ISO-10303-21;
HEADER;
FILE_DESCRIPTION(('FreeCAD Model'),'2;1');
FILE_NAME('Open CASCADE Shape Model','2022-11-10T08:53:50',(''),(''),
  'Open CASCADE STEP processor 7.6','FreeCAD','Unknown');
FILE_SCHEMA(('CONFIG_CONTROL_DESIGN','SHAPE_APPEARANCE_LAYER_MIM'));
ENDSEC;
DATA;
#1 = APPLICATION_PROTOCOL_DEFINITION('international standard',
  'config_control_design',1994,#2);
#2 = APPLICATION_CONTEXT(
'configuration controlled 3D designs of mechanical parts and assemblies'
  );
#3 = SHAPE_DEFINITION_REPRESENTATION(#4,#10);
#4 = PRODUCT_DEFINITION_SHAPE('','',#5);
#5 = PRODUCT_DEFINITION('design','',#6,#9);
#6 = PRODUCT_DEFINITION_FORMATION_WITH_SPECIFIED_SOURCE('','',#7,
  .NOT_KNOWN.);
#7 = PRODUCT('Body','Body','',(#8));
#8 = MECHANICAL_CONTEXT('',#2,'mechanical');
#9 = DESIGN_CONTEXT('',#2,'design');
#10 = ADVANCED_BREP_SHAPE_REPRESENTATION('',(#11,#15),#210);
#11 = AXIS2_PLACEMENT_3D('',#12,#13,#14);
#12 = CARTESIAN_POINT('',(0.,0.,0.));
#13 = DIRECTION('',(0.,0.,1.));
#14 = DIRECTION('',(1.,0.,-0.));
#15 = MANIFOLD_SOLID_BREP('',#16);
#16 = CLOSED_SHELL('',(#17,#45,#70,#90,#116,#141,#167,#192));
#17 = ADVANCED_FACE('',(#18,#29),#40,.T.);
#18 = FACE_BOUND('',#19,.T.);
#19 = EDGE_LOOP('',(#20));
#20 = ORIENTED_EDGE('',*,*,#21,.T.);
#21 = EDGE_CURVE('',#22,#22,#24,.T.);
#22 = VERTEX_POINT('',#23);
#23 = CARTESIAN_POINT('',(7.5,0.,0.));
#24 = CIRCLE('',#25,7.5);
#25 = AXIS2_PLACEMENT_3D('',#26,#27,#28);
#26 = CARTESIAN_POINT('',(0.,0.,0.));
#27 = DIRECTION('',(0.,-6.7E-16,-1.));
#28 = DIRECTION('',(1.,0.,0.));
#29 = FACE_BOUND('',#30,.T.);
#30 = EDGE_LOOP('',(#31));
#31 = ORIENTED_EDGE('',*,*,#32,.F.);
#32 = EDGE_CURVE('',#33,#33,#35,.T.);
#33 = VERTEX_POINT('',#34);
#34 = CARTESIAN_POINT('',(6.,0.,0.));
#35 = CIRCLE('',#36,6.);
#36 = AXIS2_PLACEMENT_3D('',#37,#38,#39);
#37 = CARTESIAN_POINT('',(0.,0.,0.));
#38 = DIRECTION('',(0.,-6.7E-16,-1.));
#39 = DIRECTION('',(1.,0.,0.));
#40 = PLANE('',#41);
#41 = AXIS2_PLACEMENT_3D('',#42,#43,#44);
#42 = CARTESIAN_POINT('',(0.,0.,0.));
#43 = DIRECTION('',(0.,-6.7E-16,-1.));
#44 = DIRECTION('',(1.,0.,0.));
#45 = ADVANCED_FACE('',(#46),#65,.F.);
#46 = FACE_BOUND('',#47,.T.);
#47 = EDGE_LOOP('',(#48,#49,#57,#64));
#48 = ORIENTED_EDGE('',*,*,#32,.T.);
#49 = ORIENTED_EDGE('',*,*,#50,.T.);
#50 = EDGE_CURVE('',#33,#51,#53,.T.);
#51 = VERTEX_POINT('',#52);
#52 = CARTESIAN_POINT('',(6.,5.8E-14,64.8));
#53 = LINE('',#54,#55);
#54 = CARTESIAN_POINT('',(6.,0.,0.));
#55 = VECTOR('',#56,1.);
#56 = DIRECTION('',(0.,2.2E-16,1.));
#57 = ORIENTED_EDGE('',*,*,#58,.F.);
#58 = EDGE_CURVE('',#51,#51,#59,.T.);
#59 = CIRCLE('',#60,6.);
#60 = AXIS2_PLACEMENT_3D('',#61,#62,#63);
#61 = CARTESIAN_POINT('',(0.,4.317E-14,64.8));
#62 = DIRECTION('',(0.,-6.7E-16,-1.));
#63 = DIRECTION('',(1.,0.,0.));
#64 = ORIENTED_EDGE('',*,*,#50,.F.);
#65 = CYLINDRICAL_SURFACE('',#66,6.);
#66 = AXIS2_PLACEMENT_3D('',#67,#68,#69);
#67 = CARTESIAN_POINT('',(0.,0.,0.));
#68 = DIRECTION('',(0.,6.7E-16,1.));
#69 = DIRECTION('',(1.,0.,0.));
#70 = ADVANCED_FACE('',(#71,#74),#85,.F.);
#71 = FACE_BOUND('',#72,.T.);
#72 = EDGE_LOOP('',(#73));
#73 = ORIENTED_EDGE('',*,*,#58,.T.);
#74 = FACE_BOUND('',#75,.T.);
#75 = EDGE_LOOP('',(#76));
#76 = ORIENTED_EDGE('',*,*,#77,.F.);
#77 = EDGE_CURVE('',#78,#78,#80,.T.);
#78 = VERTEX_POINT('',#79);
#79 = CARTESIAN_POINT('',(7.5,5.8E-14,64.8));
#80 = CIRCLE('',#81,7.5);
#81 = AXIS2_PLACEMENT_3D('',#82,#83,#84);
#82 = CARTESIAN_POINT('',(0.,4.317E-14,64.8));
#83 = DIRECTION('',(0.,-6.7E-16,-1.));
#84 = DIRECTION('',(1.,0.,0.));
#85 = PLANE('',#86);
#86 = AXIS2_PLACEMENT_3D('',#87,#88,#89);
#87 = CARTESIAN_POINT('',(0.,4.317E-14,64.8));
#88 = DIRECTION('',(0.,-6.7E-16,-1.));
#89 = DIRECTION('',(1.,0.,0.));
#90 = ADVANCED_FACE('',(#91),#111,.T.);
#91 = FACE_BOUND('',#92,.F.);
#92 = EDGE_LOOP('',(#93,#102,#109,#110));
#93 = ORIENTED_EDGE('',*,*,#94,.T.);
#94 = EDGE_CURVE('',#95,#95,#97,.T.);
#95 = VERTEX_POINT('',#96);
#96 = CARTESIAN_POINT('',(9.000000000001,5.6E-14,63.3));
#97 = CIRCLE('',#98,9.000000000001);
#98 = AXIS2_PLACEMENT_3D('',#99,#100,#101);
#99 = CARTESIAN_POINT('',(0.,4.217E-14,63.3));
#100 = DIRECTION('',(0.,-6.7E-16,-1.));
#101 = DIRECTION('',(1.,0.,0.));
#102 = ORIENTED_EDGE('',*,*,#103,.T.);
#103 = EDGE_CURVE('',#95,#78,#104,.T.);
#104 = CIRCLE('',#105,1.5);
#105 = AXIS2_PLACEMENT_3D('',#106,#107,#108);
#106 = CARTESIAN_POINT('',(7.5,1.406E-14,63.3));
#107 = DIRECTION('',(0.,-1.,2.2E-16));
#108 = DIRECTION('',(1.,0.,0.));
#109 = ORIENTED_EDGE('',*,*,#77,.F.);
#110 = ORIENTED_EDGE('',*,*,#103,.F.);
#111 = TOROIDAL_SURFACE('',#112,7.5,1.5);
#112 = AXIS2_PLACEMENT_3D('',#113,#114,#115);
#113 = CARTESIAN_POINT('',(0.,4.217E-14,63.3));
#114 = DIRECTION('',(0.,6.7E-16,1.));
#115 = DIRECTION('',(1.,0.,0.));
#116 = ADVANCED_FACE('',(#117),#136,.T.);
#117 = FACE_BOUND('',#118,.T.);
#118 = EDGE_LOOP('',(#119,#120,#128,#135));
#119 = ORIENTED_EDGE('',*,*,#94,.T.);
#120 = ORIENTED_EDGE('',*,*,#121,.T.);
#121 = EDGE_CURVE('',#95,#122,#124,.T.);
#122 = VERTEX_POINT('',#123);
#123 = CARTESIAN_POINT('',(9.000000000001,5.5E-14,61.8));
#124 = LINE('',#125,#126);
#125 = CARTESIAN_POINT('',(9.000000000001,1.406E-14,63.3));
#126 = VECTOR('',#127,1.);
#127 = DIRECTION('',(0.,-2.2E-16,-1.));
#128 = ORIENTED_EDGE('',*,*,#129,.F.);
#129 = EDGE_CURVE('',#122,#122,#130,.T.);
#130 = CIRCLE('',#131,9.000000000001);
#131 = AXIS2_PLACEMENT_3D('',#132,#133,#134);
#132 = CARTESIAN_POINT('',(0.,4.117E-14,61.8));
#133 = DIRECTION('',(0.,-6.7E-16,-1.));
#134 = DIRECTION('',(1.,0.,0.));
#135 = ORIENTED_EDGE('',*,*,#121,.F.);
#136 = CYLINDRICAL_SURFACE('',#137,9.000000000001);
#137 = AXIS2_PLACEMENT_3D('',#138,#139,#140);
#138 = CARTESIAN_POINT('',(0.,4.217E-14,63.3));
#139 = DIRECTION('',(0.,-6.7E-16,-1.));
#140 = DIRECTION('',(1.,0.,0.));
#141 = ADVANCED_FACE('',(#142),#162,.F.);
#142 = FACE_BOUND('',#143,.T.);
#143 = EDGE_LOOP('',(#144,#145,#154,#161));
#144 = ORIENTED_EDGE('',*,*,#129,.T.);
#145 = ORIENTED_EDGE('',*,*,#146,.T.);
#146 = EDGE_CURVE('',#122,#147,#149,.T.);
#147 = VERTEX_POINT('',#148);
#148 = CARTESIAN_POINT('',(9.,5.3E-14,59.800000000001));
#149 = CIRCLE('',#150,1.5);
#150 = AXIS2_PLACEMENT_3D('',#151,#152,#153);
#151 = CARTESIAN_POINT('',(10.118033988751,1.35E-14,60.8));
#152 = DIRECTION('',(0.,-1.,2.2E-16));
#153 = DIRECTION('',(1.,0.,0.));
#154 = ORIENTED_EDGE('',*,*,#155,.F.);
#155 = EDGE_CURVE('',#147,#147,#156,.T.);
#156 = CIRCLE('',#157,9.);
#157 = AXIS2_PLACEMENT_3D('',#158,#159,#160);
#158 = CARTESIAN_POINT('',(0.,3.983E-14,59.800000000001));
#159 = DIRECTION('',(0.,-6.7E-16,-1.));
#160 = DIRECTION('',(1.,0.,0.));
#161 = ORIENTED_EDGE('',*,*,#146,.F.);
#162 = TOROIDAL_SURFACE('',#163,10.118033988751,1.5);
#163 = AXIS2_PLACEMENT_3D('',#164,#165,#166);
#164 = CARTESIAN_POINT('',(0.,4.05E-14,60.8));
#165 = DIRECTION('',(0.,6.7E-16,1.));
#166 = DIRECTION('',(1.,0.,0.));
#167 = ADVANCED_FACE('',(#168),#187,.T.);
#168 = FACE_BOUND('',#169,.T.);
#169 = EDGE_LOOP('',(#170,#171,#179,#186));
#170 = ORIENTED_EDGE('',*,*,#155,.T.);
#171 = ORIENTED_EDGE('',*,*,#172,.T.);
#172 = EDGE_CURVE('',#147,#173,#175,.T.);
#173 = VERTEX_POINT('',#174);
#174 = CARTESIAN_POINT('',(9.,1.E-15,1.5));
#175 = LINE('',#176,#177);
#176 = CARTESIAN_POINT('',(9.,1.328E-14,59.800000000001));
#177 = VECTOR('',#178,1.);
#178 = DIRECTION('',(-8.5E-16,-2.2E-16,-1.));
#179 = ORIENTED_EDGE('',*,*,#180,.F.);
#180 = EDGE_CURVE('',#173,#173,#181,.T.);
#181 = CIRCLE('',#182,9.);
#182 = AXIS2_PLACEMENT_3D('',#183,#184,#185);
#183 = CARTESIAN_POINT('',(0.,1.E-15,1.5));
#184 = DIRECTION('',(0.,-6.7E-16,-1.));
#185 = DIRECTION('',(1.,0.,0.));
#186 = ORIENTED_EDGE('',*,*,#172,.F.);
#187 = CYLINDRICAL_SURFACE('',#188,9.);
#188 = AXIS2_PLACEMENT_3D('',#189,#190,#191);
#189 = CARTESIAN_POINT('',(0.,3.983E-14,59.800000000001));
#190 = DIRECTION('',(0.,-6.7E-16,-1.));
#191 = DIRECTION('',(1.,0.,0.));
#192 = ADVANCED_FACE('',(#193),#205,.T.);
#193 = FACE_BOUND('',#194,.F.);
#194 = EDGE_LOOP('',(#195,#196,#203,#204));
#195 = ORIENTED_EDGE('',*,*,#21,.T.);
#196 = ORIENTED_EDGE('',*,*,#197,.T.);
#197 = EDGE_CURVE('',#22,#173,#198,.T.);
#198 = CIRCLE('',#199,1.5);
#199 = AXIS2_PLACEMENT_3D('',#200,#201,#202);
#200 = CARTESIAN_POINT('',(7.5,3.3E-16,1.5));
#201 = DIRECTION('',(0.,-1.,2.2E-16));
#202 = DIRECTION('',(1.,0.,0.));
#203 = ORIENTED_EDGE('',*,*,#180,.F.);
#204 = ORIENTED_EDGE('',*,*,#197,.F.);
#205 = TOROIDAL_SURFACE('',#206,7.5,1.5);
#206 = AXIS2_PLACEMENT_3D('',#207,#208,#209);
#207 = CARTESIAN_POINT('',(0.,1.E-15,1.5));
#208 = DIRECTION('',(0.,6.7E-16,1.));
#209 = DIRECTION('',(1.,0.,0.));
#210 = ( GEOMETRIC_REPRESENTATION_CONTEXT(3) 
GLOBAL_UNCERTAINTY_ASSIGNED_CONTEXT((#214)) GLOBAL_UNIT_ASSIGNED_CONTEXT
((#211,#212,#213)) REPRESENTATION_CONTEXT('Context #1',
  '3D Context with UNIT and UNCERTAINTY') );
#211 = ( LENGTH_UNIT() NAMED_UNIT(*) SI_UNIT(.MILLI.,.METRE.) );
#212 = ( NAMED_UNIT(*) PLANE_ANGLE_UNIT() SI_UNIT($,.RADIAN.) );
#213 = ( NAMED_UNIT(*) SI_UNIT($,.STERADIAN.) SOLID_ANGLE_UNIT() );
#214 = UNCERTAINTY_MEASURE_WITH_UNIT(LENGTH_MEASURE(1.E-07),#211,
  'distance_accuracy_value','confusion accuracy');
#215 = PRODUCT_RELATED_PRODUCT_CATEGORY('detail',$,(#7));
#216 = PRODUCT_CATEGORY_RELATIONSHIP('','',#217,#215);
#217 = PRODUCT_CATEGORY('part',$);
#218 = CC_DESIGN_PERSON_AND_ORGANIZATION_ASSIGNMENT(#219,#222,(#6,#5));
#219 = PERSON_AND_ORGANIZATION(#220,#221);
#220 = PERSON('IP192.168.56,JOY Global','Global','JOY',$,$,$);
#221 = ORGANIZATION('IP192.168.56','Unspecified','');
#222 = PERSON_AND_ORGANIZATION_ROLE('creator');
#223 = CC_DESIGN_PERSON_AND_ORGANIZATION_ASSIGNMENT(#219,#224,(#7));
#224 = PERSON_AND_ORGANIZATION_ROLE('design_owner');
#225 = CC_DESIGN_PERSON_AND_ORGANIZATION_ASSIGNMENT(#219,#226,(#6));
#226 = PERSON_AND_ORGANIZATION_ROLE('design_supplier');
#227 = CC_DESIGN_PERSON_AND_ORGANIZATION_ASSIGNMENT(#219,#228,(#229));
#228 = PERSON_AND_ORGANIZATION_ROLE('classification_officer');
#229 = SECURITY_CLASSIFICATION('','',#230);
#230 = SECURITY_CLASSIFICATION_LEVEL('unclassified');
#231 = CC_DESIGN_SECURITY_CLASSIFICATION(#229,(#6));
#232 = CC_DESIGN_DATE_AND_TIME_ASSIGNMENT(#233,#237,(#5));
#233 = DATE_AND_TIME(#234,#235);
#234 = CALENDAR_DATE(2022,9,11);
#235 = LOCAL_TIME(8,56,$,#236);
#236 = COORDINATED_UNIVERSAL_TIME_OFFSET(6,$,.BEHIND.);
#237 = DATE_TIME_ROLE('creation_date');
#238 = CC_DESIGN_DATE_AND_TIME_ASSIGNMENT(#233,#239,(#229));
#239 = DATE_TIME_ROLE('classification_date');
#240 = CC_DESIGN_APPROVAL(#241,(#6,#5,#229));
#241 = APPROVAL(#242,'');
#242 = APPROVAL_STATUS('not_yet_approved');
#243 = APPROVAL_PERSON_ORGANIZATION(#219,#241,#244);
#244 = APPROVAL_ROLE('approver');
#245 = APPROVAL_DATE_TIME(#233,#241);
#246 = SHAPE_DEFINITION_REPRESENTATION(#247,#253);
#247 = PRODUCT_DEFINITION_SHAPE('','',#248);
#248 = PRODUCT_DEFINITION('design','',#249,#252);
#249 = PRODUCT_DEFINITION_FORMATION_WITH_SPECIFIED_SOURCE('','',#250,
  .NOT_KNOWN.);
#250 = PRODUCT('Body001','Body001','',(#251));
#251 = MECHANICAL_CONTEXT('',#2,'mechanical');
#252 = DESIGN_CONTEXT('',#2,'design');
#253 = ADVANCED_BREP_SHAPE_REPRESENTATION('',(#11,#254),#378);
#254 = MANIFOLD_SOLID_BREP('',#255);
#255 = CLOSED_SHELL('',(#256,#273,#298,#318,#343,#369));
#256 = ADVANCED_FACE('',(#257),#268,.T.);
#257 = FACE_BOUND('',#258,.F.);
#258 = EDGE_LOOP('',(#259));
#259 = ORIENTED_EDGE('',*,*,#260,.F.);
#260 = EDGE_CURVE('',#261,#261,#263,.T.);
#261 = VERTEX_POINT('',#262);
#262 = CARTESIAN_POINT('',(6.,0.,0.4));
#263 = CIRCLE('',#264,6.);
#264 = AXIS2_PLACEMENT_3D('',#265,#266,#267);
#265 = CARTESIAN_POINT('',(0.,2.7E-16,0.4));
#266 = DIRECTION('',(0.,-6.7E-16,-1.));
#267 = DIRECTION('',(1.,0.,0.));
#268 = PLANE('',#269);
#269 = AXIS2_PLACEMENT_3D('',#270,#271,#272);
#270 = CARTESIAN_POINT('',(0.,2.7E-16,0.4));
#271 = DIRECTION('',(0.,-6.7E-16,-1.));
#272 = DIRECTION('',(1.,0.,0.));
#273 = ADVANCED_FACE('',(#274),#293,.T.);
#274 = FACE_BOUND('',#275,.F.);
#275 = EDGE_LOOP('',(#276,#277,#285,#292));
#276 = ORIENTED_EDGE('',*,*,#260,.T.);
#277 = ORIENTED_EDGE('',*,*,#278,.T.);
#278 = EDGE_CURVE('',#261,#279,#281,.T.);
#279 = VERTEX_POINT('',#280);
#280 = CARTESIAN_POINT('',(6.,5.7E-14,64.2));
#281 = LINE('',#282,#283);
#282 = CARTESIAN_POINT('',(6.,9.E-17,0.4));
#283 = VECTOR('',#284,1.);
#284 = DIRECTION('',(0.,2.2E-16,1.));
#285 = ORIENTED_EDGE('',*,*,#286,.F.);
#286 = EDGE_CURVE('',#279,#279,#287,.T.);
#287 = CIRCLE('',#288,6.);
#288 = AXIS2_PLACEMENT_3D('',#289,#290,#291);
#289 = CARTESIAN_POINT('',(0.,4.277E-14,64.2));
#290 = DIRECTION('',(0.,-6.7E-16,-1.));
#291 = DIRECTION('',(1.,0.,0.));
#292 = ORIENTED_EDGE('',*,*,#278,.F.);
#293 = CYLINDRICAL_SURFACE('',#294,6.);
#294 = AXIS2_PLACEMENT_3D('',#295,#296,#297);
#295 = CARTESIAN_POINT('',(0.,2.7E-16,0.4));
#296 = DIRECTION('',(0.,6.7E-16,1.));
#297 = DIRECTION('',(1.,0.,0.));
#298 = ADVANCED_FACE('',(#299,#302),#313,.F.);
#299 = FACE_BOUND('',#300,.F.);
#300 = EDGE_LOOP('',(#301));
#301 = ORIENTED_EDGE('',*,*,#286,.T.);
#302 = FACE_BOUND('',#303,.F.);
#303 = EDGE_LOOP('',(#304));
#304 = ORIENTED_EDGE('',*,*,#305,.F.);
#305 = EDGE_CURVE('',#306,#306,#308,.T.);
#306 = VERTEX_POINT('',#307);
#307 = CARTESIAN_POINT('',(3.7,5.7E-14,64.2));
#308 = CIRCLE('',#309,3.7);
#309 = AXIS2_PLACEMENT_3D('',#310,#311,#312);
#310 = CARTESIAN_POINT('',(0.,4.277E-14,64.2));
#311 = DIRECTION('',(0.,-6.7E-16,-1.));
#312 = DIRECTION('',(1.,0.,0.));
#313 = PLANE('',#314);
#314 = AXIS2_PLACEMENT_3D('',#315,#316,#317);
#315 = CARTESIAN_POINT('',(0.,4.277E-14,64.2));
#316 = DIRECTION('',(0.,-6.7E-16,-1.));
#317 = DIRECTION('',(1.,0.,0.));
#318 = ADVANCED_FACE('',(#319),#338,.T.);
#319 = FACE_BOUND('',#320,.F.);
#320 = EDGE_LOOP('',(#321,#322,#330,#337));
#321 = ORIENTED_EDGE('',*,*,#305,.T.);
#322 = ORIENTED_EDGE('',*,*,#323,.T.);
#323 = EDGE_CURVE('',#306,#324,#326,.T.);
#324 = VERTEX_POINT('',#325);
#325 = CARTESIAN_POINT('',(3.7,5.7E-14,64.6));
#326 = LINE('',#327,#328);
#327 = CARTESIAN_POINT('',(3.7,1.426E-14,64.2));
#328 = VECTOR('',#329,1.);
#329 = DIRECTION('',(0.,2.2E-16,1.));
#330 = ORIENTED_EDGE('',*,*,#331,.F.);
#331 = EDGE_CURVE('',#324,#324,#332,.T.);
#332 = CIRCLE('',#333,3.7);
#333 = AXIS2_PLACEMENT_3D('',#334,#335,#336);
#334 = CARTESIAN_POINT('',(0.,4.303E-14,64.6));
#335 = DIRECTION('',(0.,-6.7E-16,-1.));
#336 = DIRECTION('',(1.,0.,0.));
#337 = ORIENTED_EDGE('',*,*,#323,.F.);
#338 = CYLINDRICAL_SURFACE('',#339,3.7);
#339 = AXIS2_PLACEMENT_3D('',#340,#341,#342);
#340 = CARTESIAN_POINT('',(0.,4.277E-14,64.2));
#341 = DIRECTION('',(0.,6.7E-16,1.));
#342 = DIRECTION('',(1.,0.,0.));
#343 = ADVANCED_FACE('',(#344),#364,.T.);
#344 = FACE_BOUND('',#345,.F.);
#345 = EDGE_LOOP('',(#346,#347,#356,#363));
#346 = ORIENTED_EDGE('',*,*,#331,.T.);
#347 = ORIENTED_EDGE('',*,*,#348,.T.);
#348 = EDGE_CURVE('',#324,#349,#351,.T.);
#349 = VERTEX_POINT('',#350);
#350 = CARTESIAN_POINT('',(3.3,5.8E-14,65.));
#351 = CIRCLE('',#352,0.4);
#352 = AXIS2_PLACEMENT_3D('',#353,#354,#355);
#353 = CARTESIAN_POINT('',(3.3,1.434E-14,64.6));
#354 = DIRECTION('',(0.,-1.,2.2E-16));
#355 = DIRECTION('',(1.,0.,0.));
#356 = ORIENTED_EDGE('',*,*,#357,.F.);
#357 = EDGE_CURVE('',#349,#349,#358,.T.);
#358 = CIRCLE('',#359,3.3);
#359 = AXIS2_PLACEMENT_3D('',#360,#361,#362);
#360 = CARTESIAN_POINT('',(0.,4.33E-14,65.));
#361 = DIRECTION('',(0.,-6.7E-16,-1.));
#362 = DIRECTION('',(1.,0.,0.));
#363 = ORIENTED_EDGE('',*,*,#348,.F.);
#364 = TOROIDAL_SURFACE('',#365,3.3,0.4);
#365 = AXIS2_PLACEMENT_3D('',#366,#367,#368);
#366 = CARTESIAN_POINT('',(0.,4.303E-14,64.6));
#367 = DIRECTION('',(0.,6.7E-16,1.));
#368 = DIRECTION('',(1.,0.,0.));
#369 = ADVANCED_FACE('',(#370),#373,.F.);
#370 = FACE_BOUND('',#371,.F.);
#371 = EDGE_LOOP('',(#372));
#372 = ORIENTED_EDGE('',*,*,#357,.T.);
#373 = PLANE('',#374);
#374 = AXIS2_PLACEMENT_3D('',#375,#376,#377);
#375 = CARTESIAN_POINT('',(0.,4.33E-14,65.));
#376 = DIRECTION('',(0.,-6.7E-16,-1.));
#377 = DIRECTION('',(1.,0.,0.));
#378 = ( GEOMETRIC_REPRESENTATION_CONTEXT(3) 
GLOBAL_UNCERTAINTY_ASSIGNED_CONTEXT((#382)) GLOBAL_UNIT_ASSIGNED_CONTEXT
((#379,#380,#381)) REPRESENTATION_CONTEXT('Context #1',
  '3D Context with UNIT and UNCERTAINTY') );
#379 = ( LENGTH_UNIT() NAMED_UNIT(*) SI_UNIT(.MILLI.,.METRE.) );
#380 = ( NAMED_UNIT(*) PLANE_ANGLE_UNIT() SI_UNIT($,.RADIAN.) );
#381 = ( NAMED_UNIT(*) SI_UNIT($,.STERADIAN.) SOLID_ANGLE_UNIT() );
#382 = UNCERTAINTY_MEASURE_WITH_UNIT(LENGTH_MEASURE(1.E-07),#379,
  'distance_accuracy_value','confusion accuracy');
#383 = PRODUCT_RELATED_PRODUCT_CATEGORY('detail',$,(#250));
#384 = PRODUCT_CATEGORY_RELATIONSHIP('','',#385,#383);
#385 = PRODUCT_CATEGORY('part',$);
#386 = CC_DESIGN_PERSON_AND_ORGANIZATION_ASSIGNMENT(#219,#222,(#249,#248
    ));
#387 = CC_DESIGN_PERSON_AND_ORGANIZATION_ASSIGNMENT(#219,#224,(#250));
#388 = CC_DESIGN_PERSON_AND_ORGANIZATION_ASSIGNMENT(#219,#226,(#249));
#389 = CC_DESIGN_PERSON_AND_ORGANIZATION_ASSIGNMENT(#219,#228,(#390));
#390 = SECURITY_CLASSIFICATION('','',#230);
#391 = CC_DESIGN_SECURITY_CLASSIFICATION(#390,(#249));
#392 = CC_DESIGN_DATE_AND_TIME_ASSIGNMENT(#233,#237,(#248));
#393 = CC_DESIGN_DATE_AND_TIME_ASSIGNMENT(#233,#239,(#390));
#394 = CC_DESIGN_APPROVAL(#241,(#249,#248,#390));
#395 = SHAPE_DEFINITION_REPRESENTATION(#396,#402);
#396 = PRODUCT_DEFINITION_SHAPE('','',#397);
#397 = PRODUCT_DEFINITION('design','',#398,#401);
#398 = PRODUCT_DEFINITION_FORMATION_WITH_SPECIFIED_SOURCE('','',#399,
  .NOT_KNOWN.);
#399 = PRODUCT('Body002','Body002','',(#400));
#400 = MECHANICAL_CONTEXT('',#2,'mechanical');
#401 = DESIGN_CONTEXT('',#2,'design');
#402 = ADVANCED_BREP_SHAPE_REPRESENTATION('',(#11,#403),#495);
#403 = MANIFOLD_SOLID_BREP('',#404);
#404 = CLOSED_SHELL('',(#405,#433,#458,#478));
#405 = ADVANCED_FACE('',(#406,#417),#428,.T.);
#406 = FACE_BOUND('',#407,.F.);
#407 = EDGE_LOOP('',(#408));
#408 = ORIENTED_EDGE('',*,*,#409,.T.);
#409 = EDGE_CURVE('',#410,#410,#412,.T.);
#410 = VERTEX_POINT('',#411);
#411 = CARTESIAN_POINT('',(3.7,-2.9E-14,64.2));
#412 = CIRCLE('',#413,3.7);
#413 = AXIS2_PLACEMENT_3D('',#414,#415,#416);
#414 = CARTESIAN_POINT('',(0.,-1.426E-14,64.2));
#415 = DIRECTION('',(0.,2.2E-16,-1.));
#416 = DIRECTION('',(1.,0.,0.));
#417 = FACE_BOUND('',#418,.F.);
#418 = EDGE_LOOP('',(#419));
#419 = ORIENTED_EDGE('',*,*,#420,.F.);
#420 = EDGE_CURVE('',#421,#421,#423,.T.);
#421 = VERTEX_POINT('',#422);
#422 = CARTESIAN_POINT('',(6.,-2.9E-14,64.2));
#423 = CIRCLE('',#424,6.);
#424 = AXIS2_PLACEMENT_3D('',#425,#426,#427);
#425 = CARTESIAN_POINT('',(0.,-1.426E-14,64.2));
#426 = DIRECTION('',(0.,2.2E-16,-1.));
#427 = DIRECTION('',(1.,0.,0.));
#428 = PLANE('',#429);
#429 = AXIS2_PLACEMENT_3D('',#430,#431,#432);
#430 = CARTESIAN_POINT('',(0.,-1.426E-14,64.2));
#431 = DIRECTION('',(0.,2.2E-16,-1.));
#432 = DIRECTION('',(1.,0.,0.));
#433 = ADVANCED_FACE('',(#434),#453,.T.);
#434 = FACE_BOUND('',#435,.F.);
#435 = EDGE_LOOP('',(#436,#437,#445,#452));
#436 = ORIENTED_EDGE('',*,*,#420,.T.);
#437 = ORIENTED_EDGE('',*,*,#438,.T.);
#438 = EDGE_CURVE('',#421,#439,#441,.T.);
#439 = VERTEX_POINT('',#440);
#440 = CARTESIAN_POINT('',(6.,-2.9E-14,64.6));
#441 = LINE('',#442,#443);
#442 = CARTESIAN_POINT('',(6.,-1.426E-14,64.2));
#443 = VECTOR('',#444,1.);
#444 = DIRECTION('',(0.,-2.2E-16,1.));
#445 = ORIENTED_EDGE('',*,*,#446,.F.);
#446 = EDGE_CURVE('',#439,#439,#447,.T.);
#447 = CIRCLE('',#448,6.);
#448 = AXIS2_PLACEMENT_3D('',#449,#450,#451);
#449 = CARTESIAN_POINT('',(0.,-1.434E-14,64.6));
#450 = DIRECTION('',(0.,2.2E-16,-1.));
#451 = DIRECTION('',(1.,0.,0.));
#452 = ORIENTED_EDGE('',*,*,#438,.F.);
#453 = CYLINDRICAL_SURFACE('',#454,6.);
#454 = AXIS2_PLACEMENT_3D('',#455,#456,#457);
#455 = CARTESIAN_POINT('',(0.,-1.426E-14,64.2));
#456 = DIRECTION('',(0.,-2.2E-16,1.));
#457 = DIRECTION('',(1.,0.,0.));
#458 = ADVANCED_FACE('',(#459,#462),#473,.F.);
#459 = FACE_BOUND('',#460,.F.);
#460 = EDGE_LOOP('',(#461));
#461 = ORIENTED_EDGE('',*,*,#446,.T.);
#462 = FACE_BOUND('',#463,.F.);
#463 = EDGE_LOOP('',(#464));
#464 = ORIENTED_EDGE('',*,*,#465,.F.);
#465 = EDGE_CURVE('',#466,#466,#468,.T.);
#466 = VERTEX_POINT('',#467);
#467 = CARTESIAN_POINT('',(3.7,-2.9E-14,64.6));
#468 = CIRCLE('',#469,3.7);
#469 = AXIS2_PLACEMENT_3D('',#470,#471,#472);
#470 = CARTESIAN_POINT('',(0.,-1.434E-14,64.6));
#471 = DIRECTION('',(0.,2.2E-16,-1.));
#472 = DIRECTION('',(1.,0.,0.));
#473 = PLANE('',#474);
#474 = AXIS2_PLACEMENT_3D('',#475,#476,#477);
#475 = CARTESIAN_POINT('',(0.,-1.434E-14,64.6));
#476 = DIRECTION('',(0.,2.2E-16,-1.));
#477 = DIRECTION('',(1.,0.,0.));
#478 = ADVANCED_FACE('',(#479),#490,.F.);
#479 = FACE_BOUND('',#480,.F.);
#480 = EDGE_LOOP('',(#481,#482,#488,#489));
#481 = ORIENTED_EDGE('',*,*,#465,.T.);
#482 = ORIENTED_EDGE('',*,*,#483,.T.);
#483 = EDGE_CURVE('',#466,#410,#484,.T.);
#484 = LINE('',#485,#486);
#485 = CARTESIAN_POINT('',(3.7,-1.434E-14,64.6));
#486 = VECTOR('',#487,1.);
#487 = DIRECTION('',(0.,2.2E-16,-1.));
#488 = ORIENTED_EDGE('',*,*,#409,.F.);
#489 = ORIENTED_EDGE('',*,*,#483,.F.);
#490 = CYLINDRICAL_SURFACE('',#491,3.7);
#491 = AXIS2_PLACEMENT_3D('',#492,#493,#494);
#492 = CARTESIAN_POINT('',(0.,-1.434E-14,64.6));
#493 = DIRECTION('',(0.,2.2E-16,-1.));
#494 = DIRECTION('',(1.,0.,0.));
#495 = ( GEOMETRIC_REPRESENTATION_CONTEXT(3) 
GLOBAL_UNCERTAINTY_ASSIGNED_CONTEXT((#499)) GLOBAL_UNIT_ASSIGNED_CONTEXT
((#496,#497,#498)) REPRESENTATION_CONTEXT('Context #1',
  '3D Context with UNIT and UNCERTAINTY') );
#496 = ( LENGTH_UNIT() NAMED_UNIT(*) SI_UNIT(.MILLI.,.METRE.) );
#497 = ( NAMED_UNIT(*) PLANE_ANGLE_UNIT() SI_UNIT($,.RADIAN.) );
#498 = ( NAMED_UNIT(*) SI_UNIT($,.STERADIAN.) SOLID_ANGLE_UNIT() );
#499 = UNCERTAINTY_MEASURE_WITH_UNIT(LENGTH_MEASURE(1.E-07),#496,
  'distance_accuracy_value','confusion accuracy');
#500 = PRODUCT_RELATED_PRODUCT_CATEGORY('detail',$,(#399));
#501 = PRODUCT_CATEGORY_RELATIONSHIP('','',#502,#500);
#502 = PRODUCT_CATEGORY('part',$);
#503 = CC_DESIGN_PERSON_AND_ORGANIZATION_ASSIGNMENT(#219,#222,(#398,#397
    ));
#504 = CC_DESIGN_PERSON_AND_ORGANIZATION_ASSIGNMENT(#219,#224,(#399));
#505 = CC_DESIGN_PERSON_AND_ORGANIZATION_ASSIGNMENT(#219,#226,(#398));
#506 = CC_DESIGN_PERSON_AND_ORGANIZATION_ASSIGNMENT(#219,#228,(#507));
#507 = SECURITY_CLASSIFICATION('','',#230);
#508 = CC_DESIGN_SECURITY_CLASSIFICATION(#507,(#398));
#509 = CC_DESIGN_DATE_AND_TIME_ASSIGNMENT(#233,#237,(#397));
#510 = CC_DESIGN_DATE_AND_TIME_ASSIGNMENT(#233,#239,(#507));
#511 = CC_DESIGN_APPROVAL(#241,(#398,#397,#507));
#512 = MECHANICAL_DESIGN_GEOMETRIC_PRESENTATION_REPRESENTATION('',(#513)
  ,#378);
#513 = STYLED_ITEM('color',(#514),#254);
#514 = PRESENTATION_STYLE_ASSIGNMENT((#515,#521));
#515 = SURFACE_STYLE_USAGE(.BOTH.,#516);
#516 = SURFACE_SIDE_STYLE('',(#517));
#517 = SURFACE_STYLE_FILL_AREA(#518);
#518 = FILL_AREA_STYLE('',(#519));
#519 = FILL_AREA_STYLE_COLOUR('',#520);
#520 = COLOUR_RGB('',0.800000010877,0.800000010877,0.800000010877);
#521 = CURVE_STYLE('',#522,POSITIVE_LENGTH_MEASURE(0.1),#520);
#522 = DRAUGHTING_PRE_DEFINED_CURVE_FONT('continuous');
#523 = MECHANICAL_DESIGN_GEOMETRIC_PRESENTATION_REPRESENTATION('',(#524)
  ,#210);
#524 = STYLED_ITEM('color',(#525),#15);
#525 = PRESENTATION_STYLE_ASSIGNMENT((#526,#532));
#526 = SURFACE_STYLE_USAGE(.BOTH.,#527);
#527 = SURFACE_SIDE_STYLE('',(#528));
#528 = SURFACE_STYLE_FILL_AREA(#529);
#529 = FILL_AREA_STYLE('',(#530));
#530 = FILL_AREA_STYLE_COLOUR('',#531);
#531 = COLOUR_RGB('',0.,0.5450980686,0.819607860991);
#532 = CURVE_STYLE('',#533,POSITIVE_LENGTH_MEASURE(0.1),#531);
#533 = DRAUGHTING_PRE_DEFINED_CURVE_FONT('continuous');
#534 = MECHANICAL_DESIGN_GEOMETRIC_PRESENTATION_REPRESENTATION('',(#535)
  ,#495);
#535 = STYLED_ITEM('color',(#536),#403);
#536 = PRESENTATION_STYLE_ASSIGNMENT((#537,#543));
#537 = SURFACE_STYLE_USAGE(.BOTH.,#538);
#538 = SURFACE_SIDE_STYLE('',(#539));
#539 = SURFACE_STYLE_FILL_AREA(#540);
#540 = FILL_AREA_STYLE('',(#541));
#541 = FILL_AREA_STYLE_COLOUR('',#542);
#542 = DRAUGHTING_PRE_DEFINED_COLOUR('white');
#543 = CURVE_STYLE('',#544,POSITIVE_LENGTH_MEASURE(0.1),#542);
#544 = DRAUGHTING_PRE_DEFINED_CURVE_FONT('continuous');
ENDSEC;
END-ISO-10303-21;
