ISO-10303-21;
HEADER;
FILE_DESCRIPTION (( 'STEP AP214' ),
    '1' );
FILE_NAME ('Eye2_ver1.STEP',
    '2026-08-14T11:03:38',
    ( '' ),
    ( '' ),
    'SwSTEP 2.0',
    'SolidWorks 2023',
    '' );
FILE_SCHEMA (( 'AUTOMOTIVE_DESIGN' ));
ENDSEC;

DATA;
#1 = PLANE ( 'NONE',  #152 ) ;
#2 = ADVANCED_FACE ( 'NONE', ( #299 ), #74, .T. ) ;
#3 = CARTESIAN_POINT ( 'NONE',  ( 10.49321930931249369, 7.347444381000569180, 2.000000000000000000 ) ) ;
#4 = EDGE_CURVE ( 'NONE', #194, #55, #117, .T. ) ;
#5 = CARTESIAN_POINT ( 'NONE',  ( 7.547424167586576971, -10.50000000000000178, 2.000000000000000000 ) ) ;
#6 = VECTOR ( 'NONE', #36, 1000.000000000000000 ) ;
#7 = CIRCLE ( 'NONE', #164, 2.952575832413417700 ) ;
#8 = CYLINDRICAL_SURFACE ( 'NONE', #267, 2.952575832413418588 ) ;
#9 = CARTESIAN_POINT ( 'NONE',  ( -10.50678069068750631, 7.547431953640327151, 0.000000000000000000 ) ) ;
#10 = EDGE_LOOP ( 'NONE', ( #290, #91, #177, #285, #16, #243, #44, #291 ) ) ;
#11 = AXIS2_PLACEMENT_3D ( 'NONE', #145, #230, #102 ) ;
#12 = EDGE_LOOP ( 'NONE', ( #261, #320, #89, #317 ) ) ;
#13 = ORIENTED_EDGE ( 'NONE', *, *, #180, .T. ) ;
#14 = ADVANCED_FACE ( 'NONE', ( #247 ), #324, .T. ) ;
#15 = PRODUCT ( 'Eye2_ver1', 'Eye2_ver1', '', ( #255 ) ) ;
#16 = ORIENTED_EDGE ( 'NONE', *, *, #301, .F. ) ;
#17 =( NAMED_UNIT ( * ) SI_UNIT ( $, .STERADIAN. ) SOLID_ANGLE_UNIT ( ) );
#18 = EDGE_LOOP ( 'NONE', ( #162, #153, #218, #13 ) ) ;
#19 = APPLICATION_CONTEXT ( 'automotive_design' ) ;
#20 = DIRECTION ( 'NONE',  ( 0.000000000000000000, 0.000000000000000000, 1.000000000000000000 ) ) ;
#21 = FACE_OUTER_BOUND ( 'NONE', #221, .T. ) ;
#22 = EDGE_CURVE ( 'NONE', #271, #143, #65, .T. ) ;
#23 = CARTESIAN_POINT ( 'NONE',  ( -7.547424167586578747, -10.50000000000000178, 0.000000000000000000 ) ) ;
#24 = COLOUR_RGB ( '',0.7921568627450980005, 0.8196078431372548767, 0.9333333333333333481 ) ;
#25 = DIRECTION ( 'NONE',  ( 2.360990169017646800E-16, 1.000000000000000000, 0.000000000000000000 ) ) ;
#26 = CARTESIAN_POINT ( 'NONE',  ( 7.547424167586577859, -7.547424167586581412, 2.000000000000000000 ) ) ;
#27 = ADVANCED_FACE ( 'NONE', ( #21 ), #274, .T. ) ;
#28 = CARTESIAN_POINT ( 'NONE',  ( -7.554204858274571777, 7.547431953640327151, 2.000000000000000000 ) ) ;
#29 = DIRECTION ( 'NONE',  ( 1.000000000000000000, 0.000000000000000000, 0.000000000000000000 ) ) ;
#30 = LINE ( 'NONE', #183, #225 ) ;
#31 = VECTOR ( 'NONE', #136, 1000.000000000000000 ) ;
#32 = UNCERTAINTY_MEASURE_WITH_UNIT (LENGTH_MEASURE( 1.000000000000000082E-05 ), #223, 'distance_accuracy_value', 'NONE');
#33 = EDGE_CURVE ( 'NONE', #143, #54, #148, .T. ) ;
#34 = PRODUCT_DEFINITION_SHAPE ( 'NONE', 'NONE',  #206 ) ;
#35 = CARTESIAN_POINT ( 'NONE',  ( -7.547424167586580523, 10.49999999999987743, 2.000000000000000000 ) ) ;
#36 = DIRECTION ( 'NONE',  ( -0.000000000000000000, -0.000000000000000000, -1.000000000000000000 ) ) ;
#37 = CARTESIAN_POINT ( 'NONE',  ( 10.49321930931249014, -7.347436595133146398, 0.000000000000000000 ) ) ;
#38 = AXIS2_PLACEMENT_3D ( 'NONE', #326, #108, #297 ) ;
#39 = VECTOR ( 'NONE', #284, 1000.000000000000000 ) ;
#40 = CARTESIAN_POINT ( 'NONE',  ( -7.547424167586580523, 10.49999999999987743, 2.000000000000000000 ) ) ;
#41 = VERTEX_POINT ( 'NONE', #197 ) ;
#42 = LINE ( 'NONE', #139, #39 ) ;
#43 = EDGE_CURVE ( 'NONE', #140, #41, #72, .T. ) ;
#44 = ORIENTED_EDGE ( 'NONE', *, *, #49, .F. ) ;
#45 = EDGE_LOOP ( 'NONE', ( #96, #287, #95, #187 ) ) ;
#46 = LINE ( 'NONE', #270, #234 ) ;
#47 = DIRECTION ( 'NONE',  ( 0.000000000000000000, 0.000000000000000000, 1.000000000000000000 ) ) ;
#48 = EDGE_LOOP ( 'NONE', ( #238, #173, #189, #66 ) ) ;
#49 = EDGE_CURVE ( 'NONE', #41, #239, #315, .T. ) ;
#50 = DIRECTION ( 'NONE',  ( 0.000000000000000000, 0.000000000000000000, 1.000000000000000000 ) ) ;
#51 =( NAMED_UNIT ( * ) PLANE_ANGLE_UNIT ( ) SI_UNIT ( $, .RADIAN. ) );
#52 = CIRCLE ( 'NONE', #203, 2.952575832413056656 ) ;
#53 = PRESENTATION_LAYER_ASSIGNMENT (  '', '', ( #94 ) ) ;
#54 = VERTEX_POINT ( 'NONE', #300 ) ;
#55 = VERTEX_POINT ( 'NONE', #322 ) ;
#56 = DIRECTION ( 'NONE',  ( 4.596859915785393793E-16, 1.000000000000000000, 0.000000000000000000 ) ) ;
#57 = CARTESIAN_POINT ( 'NONE',  ( 0.000000000000000000, 0.000000000000000000, 0.000000000000000000 ) ) ;
#58 = CARTESIAN_POINT ( 'NONE',  ( 7.547423639020889752, 7.547424167586629373, 2.000000000000000000 ) ) ;
#59 = EDGE_CURVE ( 'NONE', #128, #314, #52, .T. ) ;
#60 = UNCERTAINTY_MEASURE_WITH_UNIT (LENGTH_MEASURE( 1.000000000000000082E-05 ), #121, 'distance_accuracy_value', 'NONE');
#61 = LINE ( 'NONE', #159, #156 ) ;
#62 = CARTESIAN_POINT ( 'NONE',  ( 7.547424167586576083, 10.50000000000000355, 0.000000000000000000 ) ) ;
#63 = ADVANCED_FACE ( 'NONE', ( #226 ), #295, .F. ) ;
#64 = CARTESIAN_POINT ( 'NONE',  ( 7.547424167586576083, 10.50000000000000355, 2.000000000000000000 ) ) ;
#65 = CIRCLE ( 'NONE', #11, 2.952575832413420809 ) ;
#66 = ORIENTED_EDGE ( 'NONE', *, *, #83, .T. ) ;
#67 = ORIENTED_EDGE ( 'NONE', *, *, #210, .F. ) ;
#68 = FACE_OUTER_BOUND ( 'NONE', #12, .T. ) ;
#69 = ORIENTED_EDGE ( 'NONE', *, *, #49, .T. ) ;
#70 = VERTEX_POINT ( 'NONE', #199 ) ;
#71 = ORIENTED_EDGE ( 'NONE', *, *, #301, .T. ) ;
#72 = LINE ( 'NONE', #327, #310 ) ;
#73 =( NAMED_UNIT ( * ) SI_UNIT ( $, .STERADIAN. ) SOLID_ANGLE_UNIT ( ) );
#74 = CYLINDRICAL_SURFACE ( 'NONE', #263, 2.952575832413421697 ) ;
#75 = CARTESIAN_POINT ( 'NONE',  ( -10.50678069068750631, 7.547431953640327151, 2.000000000000000000 ) ) ;
#76 = ORIENTED_EDGE ( 'NONE', *, *, #146, .T. ) ;
#77 = MECHANICAL_DESIGN_GEOMETRIC_PRESENTATION_REPRESENTATION (  '', ( #94 ), #248 ) ;
#78 = DIRECTION ( 'NONE',  ( 1.000000000000000000, 0.000000000000000000, -0.000000000000000000 ) ) ;
#79 = DIRECTION ( 'NONE',  ( 0.000000000000000000, 0.000000000000000000, 1.000000000000000000 ) ) ;
#80 = LINE ( 'NONE', #303, #169 ) ;
#81 = APPLICATION_PROTOCOL_DEFINITION ( 'draft international standard', 'automotive_design', 1998, #161 ) ;
#82 = CARTESIAN_POINT ( 'NONE',  ( -10.50678069068751519, -7.547424167772908810, 2.000000000000000000 ) ) ;
#83 = EDGE_CURVE ( 'NONE', #264, #143, #298, .T. ) ;
#84 = VECTOR ( 'NONE', #25, 1000.000000000000000 ) ;
#85 = LINE ( 'NONE', #64, #31 ) ;
#86 = VECTOR ( 'NONE', #132, 1000.000000000000000 ) ;
#87 = LINE ( 'NONE', #184, #190 ) ;
#88 = PLANE ( 'NONE',  #304 ) ;
#89 = ORIENTED_EDGE ( 'NONE', *, *, #258, .F. ) ;
#90 = CARTESIAN_POINT ( 'NONE',  ( 7.547424167586576083, 10.50000000000000355, 2.000000000000000000 ) ) ;
#91 = ORIENTED_EDGE ( 'NONE', *, *, #33, .F. ) ;
#92 = ORIENTED_EDGE ( 'NONE', *, *, #210, .T. ) ;
#93 = CLOSED_SHELL ( 'NONE', ( #191, #281, #14, #254, #311, #63, #2, #272, #27, #200 ) ) ;
#94 = STYLED_ITEM ( 'NONE', ( #249 ), #306 ) ;
#95 = ORIENTED_EDGE ( 'NONE', *, *, #313, .F. ) ;
#96 = ORIENTED_EDGE ( 'NONE', *, *, #215, .T. ) ;
#97 =( NAMED_UNIT ( * ) PLANE_ANGLE_UNIT ( ) SI_UNIT ( $, .RADIAN. ) );
#98 = ORIENTED_EDGE ( 'NONE', *, *, #59, .F. ) ;
#99 = PRODUCT_DEFINITION_FORMATION_WITH_SPECIFIED_SOURCE ( 'ANY', '', #15, .NOT_KNOWN. ) ;
#100 = DIRECTION ( 'NONE',  ( 0.000000000000000000, 0.000000000000000000, 1.000000000000000000 ) ) ;
#101 = AXIS2_PLACEMENT_3D ( 'NONE', #106, #245, #104 ) ;
#102 = DIRECTION ( 'NONE',  ( 1.000000000000000000, 0.000000000000000000, 0.000000000000000000 ) ) ;
#103 = DIRECTION ( 'NONE',  ( -0.000000000000000000, -0.000000000000000000, -1.000000000000000000 ) ) ;
#104 = DIRECTION ( 'NONE',  ( -1.000000000000000000, 1.149215571735592180E-16, 0.000000000000000000 ) ) ;
#105 = DIRECTION ( 'NONE',  ( 1.000000000000000000, -1.149215571735592180E-16, 0.000000000000000000 ) ) ;
#106 = CARTESIAN_POINT ( 'NONE',  ( -7.547424167586578747, -10.50000000000000178, 2.000000000000000000 ) ) ;
#107 = CIRCLE ( 'NONE', #163, 2.952575832413420809 ) ;
#108 = DIRECTION ( 'NONE',  ( 0.000000000000000000, 0.000000000000000000, 1.000000000000000000 ) ) ;
#109 = DIRECTION ( 'NONE',  ( -1.000000000000000000, 2.360990169017646800E-16, 0.000000000000000000 ) ) ;
#110 = DIRECTION ( 'NONE',  ( 1.000000000000000000, -4.596859915785393793E-16, 0.000000000000000000 ) ) ;
#111 = CARTESIAN_POINT ( 'NONE',  ( -10.50678069068750631, 7.547431953640327151, 2.000000000000000000 ) ) ;
#112 = CIRCLE ( 'NONE', #220, 2.952575832413421697 ) ;
#113 = DIRECTION ( 'NONE',  ( -0.000000000000000000, -0.000000000000000000, -1.000000000000000000 ) ) ;
#114 = EDGE_CURVE ( 'NONE', #314, #239, #80, .T. ) ;
#115 = LINE ( 'NONE', #158, #86 ) ;
#116 = ORIENTED_EDGE ( 'NONE', *, *, #180, .F. ) ;
#117 = CIRCLE ( 'NONE', #275, 2.952575832413421697 ) ;
#118 = ORIENTED_EDGE ( 'NONE', *, *, #4, .F. ) ;
#119 = VECTOR ( 'NONE', #105, 1000.000000000000000 ) ;
#120 = ORIENTED_EDGE ( 'NONE', *, *, #141, .F. ) ;
#121 =( LENGTH_UNIT ( ) NAMED_UNIT ( * ) SI_UNIT ( .MILLI., .METRE. ) );
#122 = DIRECTION ( 'NONE',  ( 0.000000000000000000, 0.000000000000000000, 1.000000000000000000 ) ) ;
#123 = EDGE_CURVE ( 'NONE', #292, #140, #85, .T. ) ;
#124 = EDGE_LOOP ( 'NONE', ( #166, #216, #67, #138 ) ) ;
#125 = AXIS2_PLACEMENT_3D ( 'NONE', #150, #122, #78 ) ;
#126 = CARTESIAN_POINT ( 'NONE',  ( -7.554204858284356838, -7.547431953640109548, 0.000000000000000000 ) ) ;
#127 = VECTOR ( 'NONE', #149, 1000.000000000000000 ) ;
#128 = VERTEX_POINT ( 'NONE', #35 ) ;
#129 = FILL_AREA_STYLE_COLOUR ( '', #24 ) ;
#130 = DIRECTION ( 'NONE',  ( -0.000000000000000000, -0.000000000000000000, -1.000000000000000000 ) ) ;
#131 = DIRECTION ( 'NONE',  ( -0.000000000000000000, -0.000000000000000000, -1.000000000000000000 ) ) ;
#132 = DIRECTION ( 'NONE',  ( -0.000000000000000000, -0.000000000000000000, -1.000000000000000000 ) ) ;
#133 = CARTESIAN_POINT ( 'NONE',  ( 10.49321930931249014, -7.347436595133146398, 2.000000000000000000 ) ) ;
#134 = CARTESIAN_POINT ( 'NONE',  ( 7.547424167586577859, -7.547424167586581412, 2.000000000000000000 ) ) ;
#135 = VECTOR ( 'NONE', #160, 1000.000000000000000 ) ;
#136 = DIRECTION ( 'NONE',  ( -0.000000000000000000, -0.000000000000000000, -1.000000000000000000 ) ) ;
#137 = DIRECTION ( 'NONE',  ( 0.000000000000000000, 0.000000000000000000, 1.000000000000000000 ) ) ;
#138 = ORIENTED_EDGE ( 'NONE', *, *, #235, .T. ) ;
#139 = CARTESIAN_POINT ( 'NONE',  ( -10.50678069068750631, 7.547431953640327151, 0.000000000000000000 ) ) ;
#140 = VERTEX_POINT ( 'NONE', #62 ) ;
#141 = EDGE_CURVE ( 'NONE', #194, #312, #30, .T. ) ;
#142 = CARTESIAN_POINT ( 'NONE',  ( 7.547423639020889752, 7.547424167586629373, 2.000000000000000000 ) ) ;
#143 = VERTEX_POINT ( 'NONE', #37 ) ;
#144 = APPLICATION_PROTOCOL_DEFINITION ( 'draft international standard', 'automotive_design', 1998, #19 ) ;
#145 = CARTESIAN_POINT ( 'NONE',  ( 7.547424167586577859, -7.547424167586581412, 0.000000000000000000 ) ) ;
#146 = EDGE_CURVE ( 'NONE', #264, #224, #307, .T. ) ;
#147 = SURFACE_STYLE_FILL_AREA ( #244 ) ;
#148 = LINE ( 'NONE', #222, #84 ) ;
#149 = DIRECTION ( 'NONE',  ( 1.000000000000000000, -1.149215571735592180E-16, 0.000000000000000000 ) ) ;
#150 = CARTESIAN_POINT ( 'NONE',  ( 7.547423639020889752, 7.547424167586629373, 2.000000000000000000 ) ) ;
#151 = CIRCLE ( 'NONE', #283, 2.952575832413417700 ) ;
#152 = AXIS2_PLACEMENT_3D ( 'NONE', #278, #109, #205 ) ;
#153 = ORIENTED_EDGE ( 'NONE', *, *, #235, .F. ) ;
#154 = EDGE_LOOP ( 'NONE', ( #69, #262, #98, #276 ) ) ;
#155 = DIRECTION ( 'NONE',  ( -1.000000000000000000, -2.298431143471184359E-16, 0.000000000000000000 ) ) ;
#156 = VECTOR ( 'NONE', #252, 1000.000000000000000 ) ;
#157 = DIRECTION ( 'NONE',  ( 1.000000000000000000, 0.000000000000000000, -0.000000000000000000 ) ) ;
#158 = CARTESIAN_POINT ( 'NONE',  ( 10.49321930931249369, 7.347444381000569180, 2.000000000000000000 ) ) ;
#159 = CARTESIAN_POINT ( 'NONE',  ( -7.547424167586578747, -10.50000000000000178, 2.000000000000000000 ) ) ;
#160 = DIRECTION ( 'NONE',  ( -0.000000000000000000, -0.000000000000000000, -1.000000000000000000 ) ) ;
#161 = APPLICATION_CONTEXT ( 'automotive_design' ) ;
#162 = ORIENTED_EDGE ( 'NONE', *, *, #308, .T. ) ;
#163 = AXIS2_PLACEMENT_3D ( 'NONE', #134, #256, #211 ) ;
#164 = AXIS2_PLACEMENT_3D ( 'NONE', #142, #20, #198 ) ;
#165 = ORIENTED_EDGE ( 'NONE', *, *, #293, .T. ) ;
#166 = ORIENTED_EDGE ( 'NONE', *, *, #22, .T. ) ;
#167 = LINE ( 'NONE', #227, #127 ) ;
#168 = ORIENTED_EDGE ( 'NONE', *, *, #114, .T. ) ;
#169 = VECTOR ( 'NONE', #279, 1000.000000000000000 ) ;
#170 = LINE ( 'NONE', #23, #119 ) ;
#171 = ORIENTED_EDGE ( 'NONE', *, *, #59, .T. ) ;
#172 = SURFACE_SIDE_STYLE ('',( #147 ) ) ;
#173 = ORIENTED_EDGE ( 'NONE', *, *, #196, .F. ) ;
#174 = EDGE_LOOP ( 'NONE', ( #188, #120, #241, #168 ) ) ;
#175 = AXIS2_PLACEMENT_3D ( 'NONE', #28, #131, #204 ) ;
#176 = AXIS2_PLACEMENT_3D ( 'NONE', #90, #217, #260 ) ;
#177 = ORIENTED_EDGE ( 'NONE', *, *, #22, .F. ) ;
#178 = SHAPE_DEFINITION_REPRESENTATION ( #34, #265 ) ;
#179 = FACE_OUTER_BOUND ( 'NONE', #10, .T. ) ;
#180 = EDGE_CURVE ( 'NONE', #55, #192, #61, .T. ) ;
#181 = FACE_OUTER_BOUND ( 'NONE', #45, .T. ) ;
#182 = PRODUCT_DEFINITION_CONTEXT ( 'detailed design', #161, 'design' ) ;
#183 = CARTESIAN_POINT ( 'NONE',  ( -10.50678069068751519, -7.547424167772908810, 2.000000000000000000 ) ) ;
#184 = CARTESIAN_POINT ( 'NONE',  ( 7.547424167586576083, 10.50000000000000355, 2.000000000000000000 ) ) ;
#185 = CARTESIAN_POINT ( 'NONE',  ( 7.547423639020889752, 7.547424167586629373, 0.000000000000000000 ) ) ;
#186 = PLANE ( 'NONE',  #176 ) ;
#187 = ORIENTED_EDGE ( 'NONE', *, *, #196, .T. ) ;
#188 = ORIENTED_EDGE ( 'NONE', *, *, #286, .T. ) ;
#189 = ORIENTED_EDGE ( 'NONE', *, *, #146, .F. ) ;
#190 = VECTOR ( 'NONE', #155, 1000.000000000000000 ) ;
#191 = ADVANCED_FACE ( 'NONE', ( #181 ), #8, .T. ) ;
#192 = VERTEX_POINT ( 'NONE', #309 ) ;
#193 = FACE_OUTER_BOUND ( 'NONE', #214, .T. ) ;
#194 = VERTEX_POINT ( 'NONE', #82 ) ;
#195 = DIRECTION ( 'NONE',  ( 1.000000000000000000, 0.000000000000000000, 0.000000000000000000 ) ) ;
#196 = EDGE_CURVE ( 'NONE', #224, #54, #115, .T. ) ;
#197 = CARTESIAN_POINT ( 'NONE',  ( -7.547424167586580523, 10.49999999999987743, 0.000000000000000000 ) ) ;
#198 = DIRECTION ( 'NONE',  ( 1.000000000000000000, 0.000000000000000000, 0.000000000000000000 ) ) ;
#199 = CARTESIAN_POINT ( 'NONE',  ( 7.547424167586576971, -10.50000000000000178, 2.000000000000000000 ) ) ;
#200 = ADVANCED_FACE ( 'NONE', ( #179 ), #88, .F. ) ;
#201 = CARTESIAN_POINT ( 'NONE',  ( -10.50678069068751519, -7.547424167772908810, 0.000000000000000000 ) ) ;
#202 = DIRECTION ( 'NONE',  ( -1.000000000000000000, 0.000000000000000000, 0.000000000000000000 ) ) ;
#203 = AXIS2_PLACEMENT_3D ( 'NONE', #268, #47, #195 ) ;
#204 = DIRECTION ( 'NONE',  ( -1.000000000000000000, 0.000000000000000000, 0.000000000000000000 ) ) ;
#205 = DIRECTION ( 'NONE',  ( -2.360990169017646800E-16, -1.000000000000000000, 0.000000000000000000 ) ) ;
#206 = PRODUCT_DEFINITION ( 'UNKNOWN', '', #99, #182 ) ;
#207 = CARTESIAN_POINT ( 'NONE',  ( 10.49321930931249014, -7.347436595133146398, 2.000000000000000000 ) ) ;
#208 = CARTESIAN_POINT ( 'NONE',  ( 10.49321930931249014, -7.347436595133146398, 2.000000000000000000 ) ) ;
#209 = DIRECTION ( 'NONE',  ( -1.000000000000000000, 0.000000000000000000, 0.000000000000000000 ) ) ;
#210 = EDGE_CURVE ( 'NONE', #70, #264, #107, .T. ) ;
#211 = DIRECTION ( 'NONE',  ( 1.000000000000000000, 0.000000000000000000, 0.000000000000000000 ) ) ;
#212 = EDGE_CURVE ( 'NONE', #128, #41, #259, .T. ) ;
#213 = AXIS2_PLACEMENT_3D ( 'NONE', #57, #79, #29 ) ;
#214 = EDGE_LOOP ( 'NONE', ( #71, #116, #118, #250 ) ) ;
#215 = EDGE_CURVE ( 'NONE', #54, #140, #151, .T. ) ;
#216 = ORIENTED_EDGE ( 'NONE', *, *, #83, .F. ) ;
#217 = DIRECTION ( 'NONE',  ( 2.298431143471184359E-16, -1.000000000000000000, 0.000000000000000000 ) ) ;
#218 = ORIENTED_EDGE ( 'NONE', *, *, #318, .F. ) ;
#219 = ORIENTED_EDGE ( 'NONE', *, *, #318, .T. ) ;
#220 = AXIS2_PLACEMENT_3D ( 'NONE', #126, #100, #321 ) ;
#221 = EDGE_LOOP ( 'NONE', ( #269, #240, #171, #165, #242, #219, #92, #76 ) ) ;
#222 = CARTESIAN_POINT ( 'NONE',  ( 10.49321930931249014, -7.347436595133146398, 0.000000000000000000 ) ) ;
#223 =( LENGTH_UNIT ( ) NAMED_UNIT ( * ) SI_UNIT ( .MILLI., .METRE. ) );
#224 = VERTEX_POINT ( 'NONE', #3 ) ;
#225 = VECTOR ( 'NONE', #257, 1000.000000000000000 ) ;
#226 = FACE_OUTER_BOUND ( 'NONE', #18, .T. ) ;
#227 = CARTESIAN_POINT ( 'NONE',  ( -7.547424167586578747, -10.50000000000000178, 2.000000000000000000 ) ) ;
#228 = PRODUCT_RELATED_PRODUCT_CATEGORY ( 'part', '', ( #15 ) ) ;
#229 = CARTESIAN_POINT ( 'NONE',  ( -7.554204858284356838, -7.547431953640109548, 2.000000000000000000 ) ) ;
#230 = DIRECTION ( 'NONE',  ( 0.000000000000000000, 0.000000000000000000, 1.000000000000000000 ) ) ;
#231 = CARTESIAN_POINT ( 'NONE',  ( 7.547424167586576971, -10.50000000000000178, 0.000000000000000000 ) ) ;
#232 = DIRECTION ( 'NONE',  ( 1.000000000000000000, 0.000000000000000000, 0.000000000000000000 ) ) ;
#233 = PLANE ( 'NONE',  #316 ) ;
#234 = VECTOR ( 'NONE', #323, 1000.000000000000000 ) ;
#235 = EDGE_CURVE ( 'NONE', #70, #271, #237, .T. ) ;
#236 = DIRECTION ( 'NONE',  ( 2.360990169017646800E-16, 1.000000000000000000, 0.000000000000000000 ) ) ;
#237 = LINE ( 'NONE', #5, #6 ) ;
#238 = ORIENTED_EDGE ( 'NONE', *, *, #33, .T. ) ;
#239 = VERTEX_POINT ( 'NONE', #9 ) ;
#240 = ORIENTED_EDGE ( 'NONE', *, *, #258, .T. ) ;
#241 = ORIENTED_EDGE ( 'NONE', *, *, #293, .F. ) ;
#242 = ORIENTED_EDGE ( 'NONE', *, *, #4, .T. ) ;
#243 = ORIENTED_EDGE ( 'NONE', *, *, #286, .F. ) ;
#244 = FILL_AREA_STYLE ('',( #129 ) ) ;
#245 = DIRECTION ( 'NONE',  ( 1.149215571735592180E-16, 1.000000000000000000, -0.000000000000000000 ) ) ;
#246 = SURFACE_STYLE_USAGE ( .BOTH. , #172 ) ;
#247 = FACE_OUTER_BOUND ( 'NONE', #154, .T. ) ;
#248 =( GEOMETRIC_REPRESENTATION_CONTEXT ( 3 ) GLOBAL_UNCERTAINTY_ASSIGNED_CONTEXT ( ( #60 ) ) GLOBAL_UNIT_ASSIGNED_CONTEXT ( ( #121, #97, #73 ) ) REPRESENTATION_CONTEXT ( 'NONE', 'WORKASPACE' ) );
#249 = PRESENTATION_STYLE_ASSIGNMENT (( #246 ) ) ;
#250 = ORIENTED_EDGE ( 'NONE', *, *, #141, .T. ) ;
#251 = DIRECTION ( 'NONE',  ( 1.000000000000000000, 0.000000000000000000, 0.000000000000000000 ) ) ;
#252 = DIRECTION ( 'NONE',  ( -0.000000000000000000, -0.000000000000000000, -1.000000000000000000 ) ) ;
#253 = CARTESIAN_POINT ( 'NONE',  ( 7.547423639020889752, 7.547424167586629373, 0.000000000000000000 ) ) ;
#254 = ADVANCED_FACE ( 'NONE', ( #277 ), #233, .F. ) ;
#255 = PRODUCT_CONTEXT ( 'NONE', #19, 'mechanical' ) ;
#256 = DIRECTION ( 'NONE',  ( 0.000000000000000000, 0.000000000000000000, 1.000000000000000000 ) ) ;
#257 = DIRECTION ( 'NONE',  ( -0.000000000000000000, -0.000000000000000000, -1.000000000000000000 ) ) ;
#258 = EDGE_CURVE ( 'NONE', #292, #128, #87, .T. ) ;
#259 = LINE ( 'NONE', #40, #288 ) ;
#260 = DIRECTION ( 'NONE',  ( 1.000000000000000000, 2.298431143471184359E-16, 0.000000000000000000 ) ) ;
#261 = ORIENTED_EDGE ( 'NONE', *, *, #43, .T. ) ;
#262 = ORIENTED_EDGE ( 'NONE', *, *, #114, .F. ) ;
#263 = AXIS2_PLACEMENT_3D ( 'NONE', #26, #130, #202 ) ;
#264 = VERTEX_POINT ( 'NONE', #207 ) ;
#265 = ADVANCED_BREP_SHAPE_REPRESENTATION ( 'Eye2_ver1', ( #306, #213 ), #266 ) ;
#266 =( GEOMETRIC_REPRESENTATION_CONTEXT ( 3 ) GLOBAL_UNCERTAINTY_ASSIGNED_CONTEXT ( ( #32 ) ) GLOBAL_UNIT_ASSIGNED_CONTEXT ( ( #223, #51, #17 ) ) REPRESENTATION_CONTEXT ( 'NONE', 'WORKASPACE' ) );
#267 = AXIS2_PLACEMENT_3D ( 'NONE', #58, #113, #209 ) ;
#268 = CARTESIAN_POINT ( 'NONE',  ( -7.554204858274571777, 7.547431953640327151, 2.000000000000000000 ) ) ;
#269 = ORIENTED_EDGE ( 'NONE', *, *, #313, .T. ) ;
#270 = CARTESIAN_POINT ( 'NONE',  ( -10.50678069068750631, 7.547431953640327151, 2.000000000000000000 ) ) ;
#271 = VERTEX_POINT ( 'NONE', #231 ) ;
#272 = ADVANCED_FACE ( 'NONE', ( #280 ), #1, .F. ) ;
#273 = DIRECTION ( 'NONE',  ( -1.000000000000000000, 0.000000000000000000, 0.000000000000000000 ) ) ;
#274 = PLANE ( 'NONE',  #125 ) ;
#275 = AXIS2_PLACEMENT_3D ( 'NONE', #229, #50, #251 ) ;
#276 = ORIENTED_EDGE ( 'NONE', *, *, #212, .T. ) ;
#277 = FACE_OUTER_BOUND ( 'NONE', #174, .T. ) ;
#278 = CARTESIAN_POINT ( 'NONE',  ( 10.49321930931249014, -7.347436595133146398, 2.000000000000000000 ) ) ;
#279 = DIRECTION ( 'NONE',  ( -0.000000000000000000, -0.000000000000000000, -1.000000000000000000 ) ) ;
#280 = FACE_OUTER_BOUND ( 'NONE', #48, .T. ) ;
#281 = ADVANCED_FACE ( 'NONE', ( #68 ), #186, .F. ) ;
#282 = DIRECTION ( 'NONE',  ( 0.000000000000000000, 0.000000000000000000, 1.000000000000000000 ) ) ;
#283 = AXIS2_PLACEMENT_3D ( 'NONE', #253, #137, #232 ) ;
#284 = DIRECTION ( 'NONE',  ( -4.596859915785393793E-16, -1.000000000000000000, 0.000000000000000000 ) ) ;
#285 = ORIENTED_EDGE ( 'NONE', *, *, #308, .F. ) ;
#286 = EDGE_CURVE ( 'NONE', #239, #312, #42, .T. ) ;
#287 = ORIENTED_EDGE ( 'NONE', *, *, #123, .F. ) ;
#288 = VECTOR ( 'NONE', #302, 1000.000000000000000 ) ;
#289 = CARTESIAN_POINT ( 'NONE',  ( 7.547424167586576083, 10.50000000000000355, 2.000000000000000000 ) ) ;
#290 = ORIENTED_EDGE ( 'NONE', *, *, #215, .F. ) ;
#291 = ORIENTED_EDGE ( 'NONE', *, *, #43, .F. ) ;
#292 = VERTEX_POINT ( 'NONE', #289 ) ;
#293 = EDGE_CURVE ( 'NONE', #314, #194, #46, .T. ) ;
#294 = VECTOR ( 'NONE', #236, 1000.000000000000000 ) ;
#295 = PLANE ( 'NONE',  #101 ) ;
#296 = CARTESIAN_POINT ( 'NONE',  ( -7.554204858284356838, -7.547431953640109548, 2.000000000000000000 ) ) ;
#297 = DIRECTION ( 'NONE',  ( 1.000000000000000000, 0.000000000000000000, 0.000000000000000000 ) ) ;
#298 = LINE ( 'NONE', #208, #135 ) ;
#299 = FACE_OUTER_BOUND ( 'NONE', #124, .T. ) ;
#300 = CARTESIAN_POINT ( 'NONE',  ( 10.49321930931249369, 7.347444381000569180, 0.000000000000000000 ) ) ;
#301 = EDGE_CURVE ( 'NONE', #312, #192, #112, .T. ) ;
#302 = DIRECTION ( 'NONE',  ( -0.000000000000000000, -0.000000000000000000, -1.000000000000000000 ) ) ;
#303 = CARTESIAN_POINT ( 'NONE',  ( -10.50678069068750631, 7.547431953640327151, 2.000000000000000000 ) ) ;
#304 = AXIS2_PLACEMENT_3D ( 'NONE', #185, #282, #157 ) ;
#305 = AXIS2_PLACEMENT_3D ( 'NONE', #296, #103, #273 ) ;
#306 = MANIFOLD_SOLID_BREP ( 'Boss-Extrude1', #93 ) ;
#307 = LINE ( 'NONE', #133, #294 ) ;
#308 = EDGE_CURVE ( 'NONE', #192, #271, #170, .T. ) ;
#309 = CARTESIAN_POINT ( 'NONE',  ( -7.547424167586578747, -10.50000000000000178, 0.000000000000000000 ) ) ;
#310 = VECTOR ( 'NONE', #325, 1000.000000000000000 ) ;
#311 = ADVANCED_FACE ( 'NONE', ( #193 ), #319, .T. ) ;
#312 = VERTEX_POINT ( 'NONE', #201 ) ;
#313 = EDGE_CURVE ( 'NONE', #224, #292, #7, .T. ) ;
#314 = VERTEX_POINT ( 'NONE', #75 ) ;
#315 = CIRCLE ( 'NONE', #38, 2.952575832413056656 ) ;
#316 = AXIS2_PLACEMENT_3D ( 'NONE', #111, #110, #56 ) ;
#317 = ORIENTED_EDGE ( 'NONE', *, *, #123, .T. ) ;
#318 = EDGE_CURVE ( 'NONE', #55, #70, #167, .T. ) ;
#319 = CYLINDRICAL_SURFACE ( 'NONE', #305, 2.952575832413421697 ) ;
#320 = ORIENTED_EDGE ( 'NONE', *, *, #212, .F. ) ;
#321 = DIRECTION ( 'NONE',  ( 1.000000000000000000, 0.000000000000000000, 0.000000000000000000 ) ) ;
#322 = CARTESIAN_POINT ( 'NONE',  ( -7.547424167586578747, -10.50000000000000178, 2.000000000000000000 ) ) ;
#323 = DIRECTION ( 'NONE',  ( -4.596859915785393793E-16, -1.000000000000000000, 0.000000000000000000 ) ) ;
#324 = CYLINDRICAL_SURFACE ( 'NONE', #175, 2.952575832413056656 ) ;
#325 = DIRECTION ( 'NONE',  ( -1.000000000000000000, -2.298431143471184359E-16, 0.000000000000000000 ) ) ;
#326 = CARTESIAN_POINT ( 'NONE',  ( -7.554204858274571777, 7.547431953640327151, 0.000000000000000000 ) ) ;
#327 = CARTESIAN_POINT ( 'NONE',  ( 7.547424167586576083, 10.50000000000000355, 0.000000000000000000 ) ) ;
ENDSEC;
END-ISO-10303-21;
