ISO-10303-21;
HEADER;
FILE_DESCRIPTION (( 'STEP AP214' ),
    '1' );
FILE_NAME ('Khay_ver2.2.STEP',
    '2026-08-14T11:01:07',
    ( '' ),
    ( '' ),
    'SwSTEP 2.0',
    'SolidWorks 2023',
    '' );
FILE_SCHEMA (( 'AUTOMOTIVE_DESIGN' ));
ENDSEC;

DATA;
#1 = EDGE_CURVE ( 'NONE', #357, #102, #136, .T. ) ;
#2 = DIRECTION ( 'NONE',  ( -0.000000000000000000, -0.000000000000000000, 1.000000000000000000 ) ) ;
#3 = ORIENTED_EDGE ( 'NONE', *, *, #366, .F. ) ;
#4 = AXIS2_PLACEMENT_3D ( 'NONE', #402, #313, #369 ) ;
#5 = DIRECTION ( 'NONE',  ( 0.000000000000000000, 1.000000000000000000, 0.000000000000000000 ) ) ;
#6 = ORIENTED_EDGE ( 'NONE', *, *, #333, .T. ) ;
#7 = CARTESIAN_POINT ( 'NONE',  ( 56.80000000000000426, -22.69999999999994600, 3.000000000000000000 ) ) ;
#8 = EDGE_CURVE ( 'NONE', #102, #226, #106, .T. ) ;
#9 = EDGE_LOOP ( 'NONE', ( #194, #261, #218, #394 ) ) ;
#10 = LINE ( 'NONE', #124, #167 ) ;
#11 = EDGE_LOOP ( 'NONE', ( #125, #203, #280, #388, #285, #352 ) ) ;
#12 = ORIENTED_EDGE ( 'NONE', *, *, #25, .T. ) ;
#13 = EDGE_CURVE ( 'NONE', #292, #393, #47, .T. ) ;
#14 = CARTESIAN_POINT ( 'NONE',  ( 1.500000000000000444, 18.99999999999999289, 0.000000000000000000 ) ) ;
#15 = EDGE_LOOP ( 'NONE', ( #374, #68, #95, #245 ) ) ;
#16 =( GEOMETRIC_REPRESENTATION_CONTEXT ( 3 ) GLOBAL_UNCERTAINTY_ASSIGNED_CONTEXT ( ( #229 ) ) GLOBAL_UNIT_ASSIGNED_CONTEXT ( ( #266, #264, #104 ) ) REPRESENTATION_CONTEXT ( 'NONE', 'WORKASPACE' ) );
#17 = ORIENTED_EDGE ( 'NONE', *, *, #297, .T. ) ;
#18 = ORIENTED_EDGE ( 'NONE', *, *, #151, .F. ) ;
#19 = DIRECTION ( 'NONE',  ( -1.000000000000000000, 0.000000000000000000, 0.000000000000000000 ) ) ;
#20 = EDGE_CURVE ( 'NONE', #354, #325, #231, .T. ) ;
#21 = APPLICATION_CONTEXT ( 'automotive_design' ) ;
#22 = DIRECTION ( 'NONE',  ( 0.000000000000000000, 0.000000000000000000, 1.000000000000000000 ) ) ;
#23 = DIRECTION ( 'NONE',  ( -0.000000000000000000, -0.000000000000000000, -1.000000000000000000 ) ) ;
#24 = CARTESIAN_POINT ( 'NONE',  ( 7.703719777548943412E-31, 18.99999999999999289, 10.00000000000000178 ) ) ;
#25 = EDGE_CURVE ( 'NONE', #320, #357, #108, .T. ) ;
#26 = CARTESIAN_POINT ( 'NONE',  ( 49.99999999999995737, -29.49999999999999645, 3.000000000000000000 ) ) ;
#27 = DIRECTION ( 'NONE',  ( -0.000000000000000000, -0.000000000000000000, -1.000000000000000000 ) ) ;
#28 = CIRCLE ( 'NONE', #338, 1.500000000000000444 ) ;
#29 = CARTESIAN_POINT ( 'NONE',  ( -49.99999999999994316, -29.50000000000000000, 3.000000000000000000 ) ) ;
#30 = CARTESIAN_POINT ( 'NONE',  ( 49.99999999999995737, -29.49999999999999645, 3.000000000000000000 ) ) ;
#31 = ORIENTED_EDGE ( 'NONE', *, *, #308, .F. ) ;
#32 = DIRECTION ( 'NONE',  ( -0.000000000000000000, -0.000000000000000000, -1.000000000000000000 ) ) ;
#33 = ORIENTED_EDGE ( 'NONE', *, *, #139, .F. ) ;
#34 = DIRECTION ( 'NONE',  ( -1.000000000000000000, 0.000000000000000000, 0.000000000000000000 ) ) ;
#35 = ORIENTED_EDGE ( 'NONE', *, *, #268, .F. ) ;
#36 = DIRECTION ( 'NONE',  ( -0.000000000000000000, -0.000000000000000000, -1.000000000000000000 ) ) ;
#37 = EDGE_LOOP ( 'NONE', ( #63, #287, #120, #361 ) ) ;
#38 = CARTESIAN_POINT ( 'NONE',  ( -56.79999999999999005, 29.50000000000000355, 3.000000000000000000 ) ) ;
#39 = ORIENTED_EDGE ( 'NONE', *, *, #84, .T. ) ;
#40 = AXIS2_PLACEMENT_3D ( 'NONE', #277, #401, #118 ) ;
#41 = CARTESIAN_POINT ( 'NONE',  ( -49.99999999999994316, -29.49999999999999645, 0.000000000000000000 ) ) ;
#42 = SURFACE_SIDE_STYLE ('',( #134 ) ) ;
#43 = PRODUCT_DEFINITION_SHAPE ( 'NONE', 'NONE',  #70 ) ;
#44 = DIRECTION ( 'NONE',  ( -1.000000000000000000, 0.000000000000000000, 0.000000000000000000 ) ) ;
#45 = FACE_BOUND ( 'NONE', #100, .T. ) ;
#46 = AXIS2_PLACEMENT_3D ( 'NONE', #54, #244, #209 ) ;
#47 = LINE ( 'NONE', #112, #225 ) ;
#48 = CARTESIAN_POINT ( 'NONE',  ( -56.79999999999999005, -22.69999999999994600, 0.000000000000000000 ) ) ;
#49 = CARTESIAN_POINT ( 'NONE',  ( -56.79999999999999005, 29.50000000000000355, 3.000000000000000000 ) ) ;
#50 = EDGE_CURVE ( 'NONE', #211, #216, #362, .T. ) ;
#51 = VECTOR ( 'NONE', #166, 1000.000000000000000 ) ;
#52 = CARTESIAN_POINT ( 'NONE',  ( 7.703719777548943412E-31, 18.99999999999999289, 10.00000000000000178 ) ) ;
#53 = DIRECTION ( 'NONE',  ( 0.000000000000000000, 0.000000000000000000, 1.000000000000000000 ) ) ;
#54 = CARTESIAN_POINT ( 'NONE',  ( 50.00000000000000000, -22.69999999999999929, 3.000000000000000000 ) ) ;
#55 = AXIS2_PLACEMENT_3D ( 'NONE', #298, #265, #263 ) ;
#56 = CYLINDRICAL_SURFACE ( 'NONE', #385, 1.500000000000000444 ) ;
#57 = CARTESIAN_POINT ( 'NONE',  ( -56.79999999999999005, -22.69999999999994600, 3.000000000000000000 ) ) ;
#58 = ORIENTED_EDGE ( 'NONE', *, *, #113, .F. ) ;
#59 = FACE_OUTER_BOUND ( 'NONE', #378, .T. ) ;
#60 = ORIENTED_EDGE ( 'NONE', *, *, #20, .F. ) ;
#61 = VECTOR ( 'NONE', #77, 1000.000000000000000 ) ;
#62 = LINE ( 'NONE', #191, #233 ) ;
#63 = ORIENTED_EDGE ( 'NONE', *, *, #246, .T. ) ;
#64 = VECTOR ( 'NONE', #27, 1000.000000000000000 ) ;
#65 = CARTESIAN_POINT ( 'NONE',  ( -56.79999999999999005, 29.50000000000000355, 0.000000000000000000 ) ) ;
#66 = ORIENTED_EDGE ( 'NONE', *, *, #396, .T. ) ;
#67 = CYLINDRICAL_SURFACE ( 'NONE', #300, 1.500000000000000444 ) ;
#68 = ORIENTED_EDGE ( 'NONE', *, *, #84, .F. ) ;
#69 = PRESENTATION_STYLE_ASSIGNMENT (( #360 ) ) ;
#70 = PRODUCT_DEFINITION ( 'UNKNOWN', '', #288, #176 ) ;
#71 = EDGE_LOOP ( 'NONE', ( #3, #188 ) ) ;
#72 = AXIS2_PLACEMENT_3D ( 'NONE', #205, #147, #114 ) ;
#73 = DIRECTION ( 'NONE',  ( -0.000000000000000000, -0.000000000000000000, -1.000000000000000000 ) ) ;
#74 = CARTESIAN_POINT ( 'NONE',  ( 50.00000000000000000, -22.69999999999999929, 3.000000000000000000 ) ) ;
#75 = EDGE_LOOP ( 'NONE', ( #221, #192, #31, #332 ) ) ;
#76 = APPLICATION_PROTOCOL_DEFINITION ( 'draft international standard', 'automotive_design', 1998, #178 ) ;
#77 = DIRECTION ( 'NONE',  ( -0.000000000000000000, -1.000000000000000000, -0.000000000000000000 ) ) ;
#78 = DIRECTION ( 'NONE',  ( 0.000000000000000000, 0.000000000000000000, 1.000000000000000000 ) ) ;
#79 = CIRCLE ( 'NONE', #278, 6.800000000000000711 ) ;
#80 = EDGE_LOOP ( 'NONE', ( #17, #137 ) ) ;
#81 = ADVANCED_FACE ( 'NONE', ( #336, #271, #45 ), #105, .F. ) ;
#82 = CARTESIAN_POINT ( 'NONE',  ( 56.80000000000000426, -22.69999999999999929, 0.000000000000000000 ) ) ;
#83 = PLANE ( 'NONE',  #227 ) ;
#84 = EDGE_CURVE ( 'NONE', #256, #292, #142, .T. ) ;
#85 = CARTESIAN_POINT ( 'NONE',  ( 56.80000000000000426, -22.69999999999999929, 3.000000000000000000 ) ) ;
#86 = CARTESIAN_POINT ( 'NONE',  ( -1.500000000000000444, 18.99999999999999289, 0.000000000000000000 ) ) ;
#87 = EDGE_CURVE ( 'NONE', #296, #320, #307, .T. ) ;
#88 = VECTOR ( 'NONE', #36, 1000.000000000000000 ) ;
#89 = PLANE ( 'NONE',  #111 ) ;
#90 = EDGE_LOOP ( 'NONE', ( #190, #252, #18, #350 ) ) ;
#91 = DIRECTION ( 'NONE',  ( -1.000000000000000000, 0.000000000000000000, 0.000000000000000000 ) ) ;
#92 = FILL_AREA_STYLE ('',( #122 ) ) ;
#93 = ORIENTED_EDGE ( 'NONE', *, *, #139, .T. ) ;
#94 = CARTESIAN_POINT ( 'NONE',  ( 56.80000000000000426, 29.50000000000000355, 0.000000000000000000 ) ) ;
#95 = ORIENTED_EDGE ( 'NONE', *, *, #268, .T. ) ;
#96 = PRODUCT_RELATED_PRODUCT_CATEGORY ( 'part', '', ( #293 ) ) ;
#97 = DIRECTION ( 'NONE',  ( -1.000000000000000000, 0.000000000000000000, 0.000000000000000000 ) ) ;
#98 = EDGE_LOOP ( 'NONE', ( #12, #164, #60, #346 ) ) ;
#99 = LINE ( 'NONE', #38, #328 ) ;
#100 = EDGE_LOOP ( 'NONE', ( #58, #131 ) ) ;
#101 = EDGE_CURVE ( 'NONE', #186, #211, #212, .T. ) ;
#102 = VERTEX_POINT ( 'NONE', #398 ) ;
#103 = COLOUR_RGB ( '',0.7921568627450980005, 0.8196078431372548767, 0.9333333333333333481 ) ;
#104 =( NAMED_UNIT ( * ) SI_UNIT ( $, .STERADIAN. ) SOLID_ANGLE_UNIT ( ) );
#105 = PLANE ( 'NONE',  #301 ) ;
#106 = LINE ( 'NONE', #41, #195 ) ;
#107 =( NAMED_UNIT ( * ) PLANE_ANGLE_UNIT ( ) SI_UNIT ( $, .RADIAN. ) );
#108 = LINE ( 'NONE', #48, #51 ) ;
#109 = DIRECTION ( 'NONE',  ( -1.000000000000000000, 0.000000000000000000, 0.000000000000000000 ) ) ;
#110 = ORIENTED_EDGE ( 'NONE', *, *, #87, .F. ) ;
#111 = AXIS2_PLACEMENT_3D ( 'NONE', #210, #348, #379 ) ;
#112 = CARTESIAN_POINT ( 'NONE',  ( 1.500000000000000444, -18.99999999999999289, 10.00000000000000178 ) ) ;
#113 = EDGE_CURVE ( 'NONE', #200, #130, #28, .T. ) ;
#114 = DIRECTION ( 'NONE',  ( 0.000000000000000000, -0.000000000000000000, 1.000000000000000000 ) ) ;
#115 = CARTESIAN_POINT ( 'NONE',  ( -1.500000000000000444, -18.99999999999999289, 3.000000000000000000 ) ) ;
#116 = ORIENTED_EDGE ( 'NONE', *, *, #180, .F. ) ;
#117 = AXIS2_PLACEMENT_3D ( 'NONE', #74, #22, #141 ) ;
#118 = DIRECTION ( 'NONE',  ( -1.000000000000000000, 0.000000000000000000, 0.000000000000000000 ) ) ;
#119 = DIRECTION ( 'NONE',  ( 0.000000000000000000, -1.000000000000000000, 0.000000000000000000 ) ) ;
#120 = ORIENTED_EDGE ( 'NONE', *, *, #101, .F. ) ;
#121 = DIRECTION ( 'NONE',  ( -1.000000000000000000, -0.000000000000000000, -0.000000000000000000 ) ) ;
#122 = FILL_AREA_STYLE_COLOUR ( '', #103 ) ;
#123 = EDGE_LOOP ( 'NONE', ( #158, #127, #154, #387 ) ) ;
#124 = CARTESIAN_POINT ( 'NONE',  ( -49.99999999999994316, -29.49999999999999645, 3.000000000000000000 ) ) ;
#125 = ORIENTED_EDGE ( 'NONE', *, *, #367, .T. ) ;
#126 = PLANE ( 'NONE',  #282 ) ;
#127 = ORIENTED_EDGE ( 'NONE', *, *, #162, .F. ) ;
#128 = VECTOR ( 'NONE', #159, 1000.000000000000000 ) ;
#129 = FACE_BOUND ( 'NONE', #71, .T. ) ;
#130 = VERTEX_POINT ( 'NONE', #196 ) ;
#131 = ORIENTED_EDGE ( 'NONE', *, *, #396, .F. ) ;
#132 = DIRECTION ( 'NONE',  ( 1.000000000000000000, 0.000000000000000000, 0.000000000000000000 ) ) ;
#133 = DIRECTION ( 'NONE',  ( 0.000000000000000000, 0.000000000000000000, 1.000000000000000000 ) ) ;
#134 = SURFACE_STYLE_FILL_AREA ( #92 ) ;
#135 = ADVANCED_FACE ( 'NONE', ( #199 ), #335, .T. ) ;
#136 = CIRCLE ( 'NONE', #55, 6.800000000000000711 ) ;
#137 = ORIENTED_EDGE ( 'NONE', *, *, #180, .T. ) ;
#138 = DIRECTION ( 'NONE',  ( 1.000000000000000000, 0.000000000000000000, 0.000000000000000000 ) ) ;
#139 = EDGE_CURVE ( 'NONE', #200, #249, #341, .T. ) ;
#140 = CARTESIAN_POINT ( 'NONE',  ( 7.703719777548943412E-31, -18.99999999999999289, 3.000000000000000000 ) ) ;
#141 = DIRECTION ( 'NONE',  ( 1.000000000000000000, 0.000000000000000000, 0.000000000000000000 ) ) ;
#142 = CIRCLE ( 'NONE', #314, 1.500000000000000444 ) ;
#143 = FACE_OUTER_BOUND ( 'NONE', #98, .T. ) ;
#144 = DIRECTION ( 'NONE',  ( -1.000000000000000000, 0.000000000000000000, 0.000000000000000000 ) ) ;
#145 = VECTOR ( 'NONE', #185, 1000.000000000000000 ) ;
#146 = CIRCLE ( 'NONE', #255, 1.500000000000000444 ) ;
#147 = DIRECTION ( 'NONE',  ( 0.000000000000000000, 1.000000000000000000, 0.000000000000000000 ) ) ;
#148 = AXIS2_PLACEMENT_3D ( 'NONE', #184, #344, #144 ) ;
#149 = DIRECTION ( 'NONE',  ( -1.000000000000000000, 0.000000000000000000, 0.000000000000000000 ) ) ;
#150 = CARTESIAN_POINT ( 'NONE',  ( -49.99999999999998579, -22.69999999999999929, 3.000000000000000000 ) ) ;
#151 = EDGE_CURVE ( 'NONE', #325, #232, #79, .T. ) ;
#152 = STYLED_ITEM ( 'NONE', ( #69 ), #389 ) ;
#153 = CARTESIAN_POINT ( 'NONE',  ( 7.703719777548943412E-31, -18.99999999999999289, 0.000000000000000000 ) ) ;
#154 = ORIENTED_EDGE ( 'NONE', *, *, #384, .F. ) ;
#155 = CARTESIAN_POINT ( 'NONE',  ( 56.80000000000000426, -22.69999999999994600, 0.000000000000000000 ) ) ;
#156 = EDGE_LOOP ( 'NONE', ( #303, #334, #258, #223, #224, #110 ) ) ;
#157 = DIRECTION ( 'NONE',  ( 0.000000000000000000, 0.000000000000000000, -1.000000000000000000 ) ) ;
#158 = ORIENTED_EDGE ( 'NONE', *, *, #87, .T. ) ;
#159 = DIRECTION ( 'NONE',  ( -0.000000000000000000, -0.000000000000000000, -1.000000000000000000 ) ) ;
#160 = CIRCLE ( 'NONE', #174, 1.500000000000000444 ) ;
#161 = VERTEX_POINT ( 'NONE', #281 ) ;
#162 = EDGE_CURVE ( 'NONE', #354, #320, #342, .T. ) ;
#163 = CARTESIAN_POINT ( 'NONE',  ( 56.80000000000000426, -22.69999999999994600, 3.000000000000000000 ) ) ;
#164 = ORIENTED_EDGE ( 'NONE', *, *, #311, .F. ) ;
#165 = CARTESIAN_POINT ( 'NONE',  ( 56.80000000000000426, -22.69999999999999929, 3.000000000000000000 ) ) ;
#166 = DIRECTION ( 'NONE',  ( -0.000000000000000000, -1.000000000000000000, -0.000000000000000000 ) ) ;
#167 = VECTOR ( 'NONE', #217, 1000.000000000000000 ) ;
#168 = CARTESIAN_POINT ( 'NONE',  ( -49.99999999999998579, -22.69999999999999929, 3.000000000000000000 ) ) ;
#169 = CARTESIAN_POINT ( 'NONE',  ( -56.79999999999999005, -22.69999999999994600, 3.000000000000000000 ) ) ;
#170 = APPLICATION_PROTOCOL_DEFINITION ( 'draft international standard', 'automotive_design', 1998, #21 ) ;
#171 = EDGE_LOOP ( 'NONE', ( #290, #365, #267, #33 ) ) ;
#172 = ADVANCED_FACE ( 'NONE', ( #312 ), #370, .F. ) ;
#173 = ADVANCED_FACE ( 'NONE', ( #179 ), #56, .F. ) ;
#174 = AXIS2_PLACEMENT_3D ( 'NONE', #291, #382, #376 ) ;
#175 = FACE_OUTER_BOUND ( 'NONE', #15, .T. ) ;
#176 = PRODUCT_DEFINITION_CONTEXT ( 'detailed design', #178, 'design' ) ;
#177 = CIRCLE ( 'NONE', #4, 1.500000000000000444 ) ;
#178 = APPLICATION_CONTEXT ( 'automotive_design' ) ;
#179 = FACE_OUTER_BOUND ( 'NONE', #383, .T. ) ;
#180 = EDGE_CURVE ( 'NONE', #403, #249, #317, .T. ) ;
#181 = CYLINDRICAL_SURFACE ( 'NONE', #40, 1.500000000000000444 ) ;
#182 = VECTOR ( 'NONE', #73, 1000.000000000000000 ) ;
#183 = DIRECTION ( 'NONE',  ( -1.000000000000000000, 0.000000000000000000, 0.000000000000000000 ) ) ;
#184 = CARTESIAN_POINT ( 'NONE',  ( 7.703719777548943412E-31, 18.99999999999999289, 0.000000000000000000 ) ) ;
#185 = DIRECTION ( 'NONE',  ( 0.000000000000000000, 1.000000000000000000, 0.000000000000000000 ) ) ;
#186 = VERTEX_POINT ( 'NONE', #26 ) ;
#187 = CARTESIAN_POINT ( 'NONE',  ( 1.500000000000000444, -18.99999999999999289, 3.000000000000000000 ) ) ;
#188 = ORIENTED_EDGE ( 'NONE', *, *, #333, .F. ) ;
#189 = CARTESIAN_POINT ( 'NONE',  ( -49.99999999999998579, -22.69999999999999929, 3.000000000000000000 ) ) ;
#190 = ORIENTED_EDGE ( 'NONE', *, *, #1, .T. ) ;
#191 = CARTESIAN_POINT ( 'NONE',  ( -56.79999999999999005, -22.69999999999994600, 3.000000000000000000 ) ) ;
#192 = ORIENTED_EDGE ( 'NONE', *, *, #343, .F. ) ;
#193 = CARTESIAN_POINT ( 'NONE',  ( 7.703719777548943412E-31, -18.99999999999999289, 10.00000000000000178 ) ) ;
#194 = ORIENTED_EDGE ( 'NONE', *, *, #331, .T. ) ;
#195 = VECTOR ( 'NONE', #138, 1000.000000000000000 ) ;
#196 = CARTESIAN_POINT ( 'NONE',  ( 1.500000000000000444, 18.99999999999999289, 3.000000000000000000 ) ) ;
#197 = AXIS2_PLACEMENT_3D ( 'NONE', #373, #279, #340 ) ;
#198 =( LENGTH_UNIT ( ) NAMED_UNIT ( * ) SI_UNIT ( .MILLI., .METRE. ) );
#199 = FACE_OUTER_BOUND ( 'NONE', #37, .T. ) ;
#200 = VERTEX_POINT ( 'NONE', #368 ) ;
#201 = AXIS2_PLACEMENT_3D ( 'NONE', #153, #157, #91 ) ;
#202 = SHAPE_DEFINITION_REPRESENTATION ( #43, #329 ) ;
#203 = ORIENTED_EDGE ( 'NONE', *, *, #384, .T. ) ;
#204 = DIRECTION ( 'NONE',  ( -0.000000000000000000, -0.000000000000000000, -1.000000000000000000 ) ) ;
#205 = CARTESIAN_POINT ( 'NONE',  ( -49.99999999999994316, -29.49999999999999645, 3.000000000000000000 ) ) ;
#206 = MECHANICAL_DESIGN_GEOMETRIC_PRESENTATION_REPRESENTATION (  '', ( #152 ), #16 ) ;
#207 = LINE ( 'NONE', #309, #294 ) ;
#208 = DIRECTION ( 'NONE',  ( 0.000000000000000000, -0.000000000000000000, -1.000000000000000000 ) ) ;
#209 = DIRECTION ( 'NONE',  ( -1.000000000000000000, 0.000000000000000000, 0.000000000000000000 ) ) ;
#210 = CARTESIAN_POINT ( 'NONE',  ( -56.79999999999999005, -22.69999999999994600, 3.000000000000000000 ) ) ;
#211 = VERTEX_POINT ( 'NONE', #85 ) ;
#212 = CIRCLE ( 'NONE', #117, 6.800000000000000711 ) ;
#213 = CIRCLE ( 'NONE', #197, 6.800000000000000711 ) ;
#214 = DIRECTION ( 'NONE',  ( -0.000000000000000000, -0.000000000000000000, -1.000000000000000000 ) ) ;
#215 = DIRECTION ( 'NONE',  ( -0.000000000000000000, -0.000000000000000000, -1.000000000000000000 ) ) ;
#216 = VERTEX_POINT ( 'NONE', #82 ) ;
#217 = DIRECTION ( 'NONE',  ( 1.000000000000000000, 0.000000000000000000, 0.000000000000000000 ) ) ;
#218 = ORIENTED_EDGE ( 'NONE', *, *, #367, .F. ) ;
#219 = CARTESIAN_POINT ( 'NONE',  ( 56.80000000000000426, 29.50000000000000355, 3.000000000000000000 ) ) ;
#220 = AXIS2_PLACEMENT_3D ( 'NONE', #24, #399, #273 ) ;
#221 = ORIENTED_EDGE ( 'NONE', *, *, #8, .T. ) ;
#222 = CARTESIAN_POINT ( 'NONE',  ( 56.80000000000000426, 29.50000000000000355, 3.000000000000000000 ) ) ;
#223 = ORIENTED_EDGE ( 'NONE', *, *, #1, .F. ) ;
#224 = ORIENTED_EDGE ( 'NONE', *, *, #25, .F. ) ;
#225 = VECTOR ( 'NONE', #306, 1000.000000000000000 ) ;
#226 = VERTEX_POINT ( 'NONE', #315 ) ;
#227 = AXIS2_PLACEMENT_3D ( 'NONE', #49, #119, #208 ) ;
#228 = ADVANCED_FACE ( 'NONE', ( #371 ), #318, .F. ) ;
#229 = UNCERTAINTY_MEASURE_WITH_UNIT (LENGTH_MEASURE( 1.000000000000000082E-05 ), #266, 'distance_accuracy_value', 'NONE');
#230 =( GEOMETRIC_REPRESENTATION_CONTEXT ( 3 ) GLOBAL_UNCERTAINTY_ASSIGNED_CONTEXT ( ( #240 ) ) GLOBAL_UNIT_ASSIGNED_CONTEXT ( ( #198, #107, #260 ) ) REPRESENTATION_CONTEXT ( 'NONE', 'WORKASPACE' ) );
#231 = LINE ( 'NONE', #169, #61 ) ;
#232 = VERTEX_POINT ( 'NONE', #241 ) ;
#233 = VECTOR ( 'NONE', #215, 1000.000000000000000 ) ;
#234 = EDGE_CURVE ( 'NONE', #232, #102, #242, .T. ) ;
#235 = CLOSED_SHELL ( 'NONE', ( #172, #316, #81, #377, #355, #259, #274, #323, #228, #135, #262, #173 ) ) ;
#236 = CARTESIAN_POINT ( 'NONE',  ( 1.500000000000000444, 18.99999999999999289, 10.00000000000000178 ) ) ;
#237 = VECTOR ( 'NONE', #339, 1000.000000000000000 ) ;
#238 = DIRECTION ( 'NONE',  ( -0.000000000000000000, 0.000000000000000000, -1.000000000000000000 ) ) ;
#239 = DIRECTION ( 'NONE',  ( -0.000000000000000000, -0.000000000000000000, -1.000000000000000000 ) ) ;
#240 = UNCERTAINTY_MEASURE_WITH_UNIT (LENGTH_MEASURE( 1.000000000000000082E-05 ), #198, 'distance_accuracy_value', 'NONE');
#241 = CARTESIAN_POINT ( 'NONE',  ( -49.99999999999994316, -29.50000000000000000, 3.000000000000000000 ) ) ;
#242 = LINE ( 'NONE', #29, #310 ) ;
#243 = FACE_OUTER_BOUND ( 'NONE', #123, .T. ) ;
#244 = DIRECTION ( 'NONE',  ( -0.000000000000000000, -0.000000000000000000, -1.000000000000000000 ) ) ;
#245 = ORIENTED_EDGE ( 'NONE', *, *, #366, .T. ) ;
#246 = EDGE_CURVE ( 'NONE', #226, #216, #213, .T. ) ;
#247 = CYLINDRICAL_SURFACE ( 'NONE', #276, 6.800000000000000711 ) ;
#248 = DIRECTION ( 'NONE',  ( -1.000000000000000000, 0.000000000000000000, 0.000000000000000000 ) ) ;
#249 = VERTEX_POINT ( 'NONE', #86 ) ;
#250 = CARTESIAN_POINT ( 'NONE',  ( -56.79999999999999005, 29.50000000000000355, 3.000000000000000000 ) ) ;
#251 = EDGE_CURVE ( 'NONE', #292, #256, #177, .T. ) ;
#252 = ORIENTED_EDGE ( 'NONE', *, *, #234, .F. ) ;
#253 = AXIS2_PLACEMENT_3D ( 'NONE', #364, #78, #132 ) ;
#254 = CARTESIAN_POINT ( 'NONE',  ( -49.99999999999998579, -22.69999999999999929, 0.000000000000000000 ) ) ;
#255 = AXIS2_PLACEMENT_3D ( 'NONE', #353, #305, #109 ) ;
#256 = VERTEX_POINT ( 'NONE', #115 ) ;
#257 = DIRECTION ( 'NONE',  ( -1.000000000000000000, 0.000000000000000000, 0.000000000000000000 ) ) ;
#258 = ORIENTED_EDGE ( 'NONE', *, *, #8, .F. ) ;
#259 = ADVANCED_FACE ( 'NONE', ( #243 ), #83, .F. ) ;
#260 =( NAMED_UNIT ( * ) SI_UNIT ( $, .STERADIAN. ) SOLID_ANGLE_UNIT ( ) );
#261 = ORIENTED_EDGE ( 'NONE', *, *, #372, .F. ) ;
#262 = ADVANCED_FACE ( 'NONE', ( #175 ), #181, .F. ) ;
#263 = DIRECTION ( 'NONE',  ( -1.000000000000000000, 0.000000000000000000, 0.000000000000000000 ) ) ;
#264 =( NAMED_UNIT ( * ) PLANE_ANGLE_UNIT ( ) SI_UNIT ( $, .RADIAN. ) );
#265 = DIRECTION ( 'NONE',  ( 0.000000000000000000, 0.000000000000000000, 1.000000000000000000 ) ) ;
#266 =( LENGTH_UNIT ( ) NAMED_UNIT ( * ) SI_UNIT ( .MILLI., .METRE. ) );
#267 = ORIENTED_EDGE ( 'NONE', *, *, #297, .F. ) ;
#268 = EDGE_CURVE ( 'NONE', #256, #161, #207, .T. ) ;
#269 = PRODUCT_CONTEXT ( 'NONE', #21, 'mechanical' ) ;
#270 = DIRECTION ( 'NONE',  ( -1.000000000000000000, 0.000000000000000000, 0.000000000000000000 ) ) ;
#271 = FACE_OUTER_BOUND ( 'NONE', #11, .T. ) ;
#272 = AXIS2_PLACEMENT_3D ( 'NONE', #375, #2, #34 ) ;
#273 = DIRECTION ( 'NONE',  ( -1.000000000000000000, 0.000000000000000000, 0.000000000000000000 ) ) ;
#274 = ADVANCED_FACE ( 'NONE', ( #143 ), #89, .F. ) ;
#275 = DIRECTION ( 'NONE',  ( -0.000000000000000000, -0.000000000000000000, -1.000000000000000000 ) ) ;
#276 = AXIS2_PLACEMENT_3D ( 'NONE', #189, #32, #257 ) ;
#277 = CARTESIAN_POINT ( 'NONE',  ( 7.703719777548943412E-31, -18.99999999999999289, 10.00000000000000178 ) ) ;
#278 = AXIS2_PLACEMENT_3D ( 'NONE', #150, #53, #183 ) ;
#279 = DIRECTION ( 'NONE',  ( 0.000000000000000000, 0.000000000000000000, 1.000000000000000000 ) ) ;
#280 = ORIENTED_EDGE ( 'NONE', *, *, #20, .T. ) ;
#281 = CARTESIAN_POINT ( 'NONE',  ( -1.500000000000000444, -18.99999999999999289, 0.000000000000000000 ) ) ;
#282 = AXIS2_PLACEMENT_3D ( 'NONE', #254, #295, #97 ) ;
#283 = LINE ( 'NONE', #163, #405 ) ;
#284 = VECTOR ( 'NONE', #337, 1000.000000000000000 ) ;
#285 = ORIENTED_EDGE ( 'NONE', *, *, #308, .T. ) ;
#286 = FACE_OUTER_BOUND ( 'NONE', #9, .T. ) ;
#287 = ORIENTED_EDGE ( 'NONE', *, *, #50, .F. ) ;
#288 = PRODUCT_DEFINITION_FORMATION_WITH_SPECIFIED_SOURCE ( 'ANY', '', #293, .NOT_KNOWN. ) ;
#289 = LINE ( 'NONE', #30, #128 ) ;
#290 = ORIENTED_EDGE ( 'NONE', *, *, #113, .T. ) ;
#291 = CARTESIAN_POINT ( 'NONE',  ( 7.703719777548943412E-31, -18.99999999999999289, 0.000000000000000000 ) ) ;
#292 = VERTEX_POINT ( 'NONE', #187 ) ;
#293 = PRODUCT ( 'Khay_ver2.2', 'Khay_ver2.2', '', ( #269 ) ) ;
#294 = VECTOR ( 'NONE', #23, 1000.000000000000000 ) ;
#295 = DIRECTION ( 'NONE',  ( -0.000000000000000000, 0.000000000000000000, -1.000000000000000000 ) ) ;
#296 = VERTEX_POINT ( 'NONE', #94 ) ;
#297 = EDGE_CURVE ( 'NONE', #249, #403, #347, .T. ) ;
#298 = CARTESIAN_POINT ( 'NONE',  ( -49.99999999999998579, -22.69999999999999929, 0.000000000000000000 ) ) ;
#299 = ORIENTED_EDGE ( 'NONE', *, *, #251, .F. ) ;
#300 = AXIS2_PLACEMENT_3D ( 'NONE', #193, #214, #324 ) ;
#301 = AXIS2_PLACEMENT_3D ( 'NONE', #168, #238, #19 ) ;
#302 = CARTESIAN_POINT ( 'NONE',  ( 1.500000000000000444, -18.99999999999999289, 0.000000000000000000 ) ) ;
#303 = ORIENTED_EDGE ( 'NONE', *, *, #331, .F. ) ;
#304 = VECTOR ( 'NONE', #239, 1000.000000000000000 ) ;
#305 = DIRECTION ( 'NONE',  ( 0.000000000000000000, 0.000000000000000000, 1.000000000000000000 ) ) ;
#306 = DIRECTION ( 'NONE',  ( -0.000000000000000000, -0.000000000000000000, -1.000000000000000000 ) ) ;
#307 = LINE ( 'NONE', #395, #237 ) ;
#308 = EDGE_CURVE ( 'NONE', #232, #186, #10, .T. ) ;
#309 = CARTESIAN_POINT ( 'NONE',  ( -1.500000000000000444, -18.99999999999999289, 10.00000000000000178 ) ) ;
#310 = VECTOR ( 'NONE', #275, 1000.000000000000000 ) ;
#311 = EDGE_CURVE ( 'NONE', #325, #357, #62, .T. ) ;
#312 = FACE_OUTER_BOUND ( 'NONE', #171, .T. ) ;
#313 = DIRECTION ( 'NONE',  ( -0.000000000000000000, -0.000000000000000000, -1.000000000000000000 ) ) ;
#314 = AXIS2_PLACEMENT_3D ( 'NONE', #140, #204, #270 ) ;
#315 = CARTESIAN_POINT ( 'NONE',  ( 49.99999999999995737, -29.49999999999999645, 0.000000000000000000 ) ) ;
#316 = ADVANCED_FACE ( 'NONE', ( #59 ), #67, .F. ) ;
#317 = CIRCLE ( 'NONE', #148, 1.500000000000000444 ) ;
#318 = PLANE ( 'NONE',  #72 ) ;
#319 = CARTESIAN_POINT ( 'NONE',  ( -56.79999999999999005, -22.69999999999994600, 0.000000000000000000 ) ) ;
#320 = VERTEX_POINT ( 'NONE', #65 ) ;
#321 = FACE_OUTER_BOUND ( 'NONE', #90, .T. ) ;
#322 = VERTEX_POINT ( 'NONE', #219 ) ;
#323 = ADVANCED_FACE ( 'NONE', ( #321 ), #247, .T. ) ;
#324 = DIRECTION ( 'NONE',  ( -1.000000000000000000, 0.000000000000000000, 0.000000000000000000 ) ) ;
#325 = VERTEX_POINT ( 'NONE', #57 ) ;
#326 = PLANE ( 'NONE',  #358 ) ;
#327 = ORIENTED_EDGE ( 'NONE', *, *, #397, .F. ) ;
#328 = VECTOR ( 'NONE', #121, 1000.000000000000000 ) ;
#329 = ADVANCED_BREP_SHAPE_REPRESENTATION ( 'Khay_ver2.2', ( #389, #253 ), #230 ) ;
#330 = DIRECTION ( 'NONE',  ( 0.000000000000000000, 0.000000000000000000, 1.000000000000000000 ) ) ;
#331 = EDGE_CURVE ( 'NONE', #216, #296, #386, .T. ) ;
#332 = ORIENTED_EDGE ( 'NONE', *, *, #234, .T. ) ;
#333 = EDGE_CURVE ( 'NONE', #393, #161, #381, .T. ) ;
#334 = ORIENTED_EDGE ( 'NONE', *, *, #246, .F. ) ;
#335 = CYLINDRICAL_SURFACE ( 'NONE', #46, 6.800000000000000711 ) ;
#336 = FACE_BOUND ( 'NONE', #380, .T. ) ;
#337 = DIRECTION ( 'NONE',  ( -0.000000000000000000, -0.000000000000000000, -1.000000000000000000 ) ) ;
#338 = AXIS2_PLACEMENT_3D ( 'NONE', #359, #133, #44 ) ;
#339 = DIRECTION ( 'NONE',  ( -1.000000000000000000, -0.000000000000000000, -0.000000000000000000 ) ) ;
#340 = DIRECTION ( 'NONE',  ( 1.000000000000000000, 0.000000000000000000, 0.000000000000000000 ) ) ;
#341 = LINE ( 'NONE', #345, #64 ) ;
#342 = LINE ( 'NONE', #404, #304 ) ;
#343 = EDGE_CURVE ( 'NONE', #186, #226, #289, .T. ) ;
#344 = DIRECTION ( 'NONE',  ( -0.000000000000000000, -0.000000000000000000, 1.000000000000000000 ) ) ;
#345 = CARTESIAN_POINT ( 'NONE',  ( -1.500000000000000444, 18.99999999999999289, 10.00000000000000178 ) ) ;
#346 = ORIENTED_EDGE ( 'NONE', *, *, #162, .T. ) ;
#347 = CIRCLE ( 'NONE', #272, 1.500000000000000444 ) ;
#348 = DIRECTION ( 'NONE',  ( 1.000000000000000000, 0.000000000000000000, 0.000000000000000000 ) ) ;
#349 = LINE ( 'NONE', #222, #88 ) ;
#350 = ORIENTED_EDGE ( 'NONE', *, *, #311, .T. ) ;
#351 = FACE_OUTER_BOUND ( 'NONE', #156, .T. ) ;
#352 = ORIENTED_EDGE ( 'NONE', *, *, #101, .T. ) ;
#353 = CARTESIAN_POINT ( 'NONE',  ( 7.703719777548943412E-31, 18.99999999999999289, 3.000000000000000000 ) ) ;
#354 = VERTEX_POINT ( 'NONE', #250 ) ;
#355 = ADVANCED_FACE ( 'NONE', ( #286 ), #326, .F. ) ;
#356 = FACE_BOUND ( 'NONE', #80, .T. ) ;
#357 = VERTEX_POINT ( 'NONE', #319 ) ;
#358 = AXIS2_PLACEMENT_3D ( 'NONE', #7, #248, #330 ) ;
#359 = CARTESIAN_POINT ( 'NONE',  ( 7.703719777548943412E-31, 18.99999999999999289, 3.000000000000000000 ) ) ;
#360 = SURFACE_STYLE_USAGE ( .BOTH. , #42 ) ;
#361 = ORIENTED_EDGE ( 'NONE', *, *, #343, .T. ) ;
#362 = LINE ( 'NONE', #165, #284 ) ;
#363 = ORIENTED_EDGE ( 'NONE', *, *, #13, .T. ) ;
#364 = CARTESIAN_POINT ( 'NONE',  ( 0.000000000000000000, 0.000000000000000000, 0.000000000000000000 ) ) ;
#365 = ORIENTED_EDGE ( 'NONE', *, *, #397, .T. ) ;
#366 = EDGE_CURVE ( 'NONE', #161, #393, #160, .T. ) ;
#367 = EDGE_CURVE ( 'NONE', #211, #322, #283, .T. ) ;
#368 = CARTESIAN_POINT ( 'NONE',  ( -1.500000000000000444, 18.99999999999999289, 3.000000000000000000 ) ) ;
#369 = DIRECTION ( 'NONE',  ( -1.000000000000000000, 0.000000000000000000, 0.000000000000000000 ) ) ;
#370 = CYLINDRICAL_SURFACE ( 'NONE', #220, 1.500000000000000444 ) ;
#371 = FACE_OUTER_BOUND ( 'NONE', #75, .T. ) ;
#372 = EDGE_CURVE ( 'NONE', #322, #296, #349, .T. ) ;
#373 = CARTESIAN_POINT ( 'NONE',  ( 50.00000000000000000, -22.69999999999999929, 0.000000000000000000 ) ) ;
#374 = ORIENTED_EDGE ( 'NONE', *, *, #13, .F. ) ;
#375 = CARTESIAN_POINT ( 'NONE',  ( 7.703719777548943412E-31, 18.99999999999999289, 0.000000000000000000 ) ) ;
#376 = DIRECTION ( 'NONE',  ( -1.000000000000000000, 0.000000000000000000, 0.000000000000000000 ) ) ;
#377 = ADVANCED_FACE ( 'NONE', ( #351, #129, #356 ), #126, .T. ) ;
#378 = EDGE_LOOP ( 'NONE', ( #299, #363, #6, #35 ) ) ;
#379 = DIRECTION ( 'NONE',  ( 0.000000000000000000, 0.000000000000000000, -1.000000000000000000 ) ) ;
#380 = EDGE_LOOP ( 'NONE', ( #39, #391 ) ) ;
#381 = CIRCLE ( 'NONE', #201, 1.500000000000000444 ) ;
#382 = DIRECTION ( 'NONE',  ( 0.000000000000000000, 0.000000000000000000, -1.000000000000000000 ) ) ;
#383 = EDGE_LOOP ( 'NONE', ( #327, #66, #93, #116 ) ) ;
#384 = EDGE_CURVE ( 'NONE', #322, #354, #99, .T. ) ;
#385 = AXIS2_PLACEMENT_3D ( 'NONE', #52, #400, #149 ) ;
#386 = LINE ( 'NONE', #155, #145 ) ;
#387 = ORIENTED_EDGE ( 'NONE', *, *, #372, .T. ) ;
#388 = ORIENTED_EDGE ( 'NONE', *, *, #151, .T. ) ;
#389 = MANIFOLD_SOLID_BREP ( 'Cut-Extrude1', #235 ) ;
#390 = PRESENTATION_LAYER_ASSIGNMENT (  '', '', ( #152 ) ) ;
#391 = ORIENTED_EDGE ( 'NONE', *, *, #251, .T. ) ;
#392 = LINE ( 'NONE', #236, #182 ) ;
#393 = VERTEX_POINT ( 'NONE', #302 ) ;
#394 = ORIENTED_EDGE ( 'NONE', *, *, #50, .T. ) ;
#395 = CARTESIAN_POINT ( 'NONE',  ( -56.79999999999999005, 29.50000000000000355, 0.000000000000000000 ) ) ;
#396 = EDGE_CURVE ( 'NONE', #130, #200, #146, .T. ) ;
#397 = EDGE_CURVE ( 'NONE', #130, #403, #392, .T. ) ;
#398 = CARTESIAN_POINT ( 'NONE',  ( -49.99999999999994316, -29.50000000000000000, 0.000000000000000000 ) ) ;
#399 = DIRECTION ( 'NONE',  ( -0.000000000000000000, -0.000000000000000000, -1.000000000000000000 ) ) ;
#400 = DIRECTION ( 'NONE',  ( -0.000000000000000000, -0.000000000000000000, -1.000000000000000000 ) ) ;
#401 = DIRECTION ( 'NONE',  ( -0.000000000000000000, -0.000000000000000000, -1.000000000000000000 ) ) ;
#402 = CARTESIAN_POINT ( 'NONE',  ( 7.703719777548943412E-31, -18.99999999999999289, 3.000000000000000000 ) ) ;
#403 = VERTEX_POINT ( 'NONE', #14 ) ;
#404 = CARTESIAN_POINT ( 'NONE',  ( -56.79999999999999005, 29.50000000000000355, 3.000000000000000000 ) ) ;
#405 = VECTOR ( 'NONE', #5, 1000.000000000000000 ) ;
ENDSEC;
END-ISO-10303-21;
