ISO-10303-21;
HEADER;
FILE_DESCRIPTION (( 'STEP AP214' ),
    '1' );
FILE_NAME ('Light_ver1.STEP',
    '2026-08-14T11:03:23',
    ( '' ),
    ( '' ),
    'SwSTEP 2.0',
    'SolidWorks 2023',
    '' );
FILE_SCHEMA (( 'AUTOMOTIVE_DESIGN' ));
ENDSEC;

DATA;
#1 = VERTEX_POINT ( 'NONE', #680 ) ;
#2 = FACE_OUTER_BOUND ( 'NONE', #822, .T. ) ;
#3 = FACE_OUTER_BOUND ( 'NONE', #489, .T. ) ;
#4 = EDGE_CURVE ( 'NONE', #135, #322, #1133, .T. ) ;
#5 = DIRECTION ( 'NONE',  ( 0.000000000000000000, 0.000000000000000000, 1.000000000000000000 ) ) ;
#6 = VERTEX_POINT ( 'NONE', #1149 ) ;
#7 = CARTESIAN_POINT ( 'NONE',  ( -43.00000000000000000, 8.000000000000000000, 0.000000000000000000 ) ) ;
#8 = DIRECTION ( 'NONE',  ( -0.000000000000000000, -0.000000000000000000, 1.000000000000000000 ) ) ;
#9 = ADVANCED_FACE ( 'NONE', ( #790, #863, #71 ), #321, .T. ) ;
#10 = LINE ( 'NONE', #368, #538 ) ;
#11 = EDGE_CURVE ( 'NONE', #896, #806, #523, .T. ) ;
#12 = ORIENTED_EDGE ( 'NONE', *, *, #131, .T. ) ;
#13 = DIRECTION ( 'NONE',  ( 0.000000000000000000, -1.000000000000000000, 0.000000000000000000 ) ) ;
#14 = VECTOR ( 'NONE', #844, 1000.000000000000000 ) ;
#15 = AXIS2_PLACEMENT_3D ( 'NONE', #1082, #453, #738 ) ;
#16 = DIRECTION ( 'NONE',  ( 3.469446951953613696E-16, -1.000000000000000000, 0.000000000000000000 ) ) ;
#17 = AXIS2_PLACEMENT_3D ( 'NONE', #1092, #1014, #63 ) ;
#18 = DIRECTION ( 'NONE',  ( 1.000000000000000000, 0.000000000000000000, 0.000000000000000000 ) ) ;
#19 = ORIENTED_EDGE ( 'NONE', *, *, #959, .T. ) ;
#20 = DIRECTION ( 'NONE',  ( 1.000000000000000000, 0.000000000000000000, 0.000000000000000000 ) ) ;
#21 = EDGE_CURVE ( 'NONE', #701, #666, #64, .T. ) ;
#22 = LINE ( 'NONE', #992, #633 ) ;
#23 = CARTESIAN_POINT ( 'NONE',  ( -46.35094001659692253, -7.499999999999995559, 1.499999999999999556 ) ) ;
#24 = ORIENTED_EDGE ( 'NONE', *, *, #713, .F. ) ;
#25 = LINE ( 'NONE', #465, #1138 ) ;
#26 = EDGE_LOOP ( 'NONE', ( #843, #494, #769, #639, #61, #852, #660, #880 ) ) ;
#27 = LINE ( 'NONE', #193, #539 ) ;
#28 = CARTESIAN_POINT ( 'NONE',  ( -53.00000000000000711, 7.999999999999992895, 1.500000000000000000 ) ) ;
#29 = EDGE_LOOP ( 'NONE', ( #804, #785, #307, #580 ) ) ;
#30 = DIRECTION ( 'NONE',  ( 0.000000000000000000, 0.000000000000000000, 1.000000000000000000 ) ) ;
#31 = APPLICATION_CONTEXT ( 'automotive_design' ) ;
#32 = ORIENTED_EDGE ( 'NONE', *, *, #959, .F. ) ;
#33 = VECTOR ( 'NONE', #860, 1000.000000000000000 ) ;
#34 = DIRECTION ( 'NONE',  ( -1.000000000000000000, 0.000000000000000000, 0.000000000000000000 ) ) ;
#35 = VECTOR ( 'NONE', #630, 1000.000000000000000 ) ;
#36 = EDGE_CURVE ( 'NONE', #846, #1, #707, .T. ) ;
#37 = EDGE_LOOP ( 'NONE', ( #224, #824, #141, #109, #561, #89, #1084, #123 ) ) ;
#38 = DIRECTION ( 'NONE',  ( -1.000000000000000000, 0.000000000000000000, 0.000000000000000000 ) ) ;
#39 = ORIENTED_EDGE ( 'NONE', *, *, #226, .T. ) ;
#40 = CARTESIAN_POINT ( 'NONE',  ( 41.35094001659692253, -12.49999999999997691, 1.499999999999999556 ) ) ;
#41 = EDGE_CURVE ( 'NONE', #530, #896, #515, .T. ) ;
#42 = VERTEX_POINT ( 'NONE', #872 ) ;
#43 = CARTESIAN_POINT ( 'NONE',  ( -46.35094001659692253, 7.500000000000006217, -4.750000000000000888 ) ) ;
#44 = EDGE_LOOP ( 'NONE', ( #184, #469, #648, #1090, #1150, #206, #510, #833 ) ) ;
#45 = CARTESIAN_POINT ( 'NONE',  ( -26.35094001659691898, 12.50000000000000355, -4.750000000000000888 ) ) ;
#46 = PRODUCT_RELATED_PRODUCT_CATEGORY ( 'part', '', ( #611 ) ) ;
#47 = ORIENTED_EDGE ( 'NONE', *, *, #386, .F. ) ;
#48 = EDGE_LOOP ( 'NONE', ( #1008, #726, #1146, #613, #214, #1111, #859, #734 ) ) ;
#49 = CARTESIAN_POINT ( 'NONE',  ( -41.35094001659692253, 12.50000000000000711, 1.499999999999999556 ) ) ;
#50 = CARTESIAN_POINT ( 'NONE',  ( 50.00000000000000000, 8.000000000000000000, -2.000000000000000000 ) ) ;
#51 = CIRCLE ( 'NONE', #1028, 10.00000000000000178 ) ;
#52 = CIRCLE ( 'NONE', #466, 5.000000000000004441 ) ;
#53 = DIRECTION ( 'NONE',  ( 0.000000000000000000, 0.000000000000000000, 1.000000000000000000 ) ) ;
#54 = AXIS2_PLACEMENT_3D ( 'NONE', #966, #1148, #892 ) ;
#55 = VERTEX_POINT ( 'NONE', #428 ) ;
#56 = ADVANCED_FACE ( 'NONE', ( #600 ), #240, .F. ) ;
#57 = CARTESIAN_POINT ( 'NONE',  ( -21.35094001659691543, 7.500000000000006217, -2.000000000000000000 ) ) ;
#58 = CARTESIAN_POINT ( 'NONE',  ( 41.35094001659692253, 12.50000000000000711, 1.500000000000000000 ) ) ;
#59 = DIRECTION ( 'NONE',  ( -0.000000000000000000, 0.000000000000000000, -1.000000000000000000 ) ) ;
#60 = AXIS2_PLACEMENT_3D ( 'NONE', #847, #122, #587 ) ;
#61 = ORIENTED_EDGE ( 'NONE', *, *, #557, .F. ) ;
#62 = LINE ( 'NONE', #793, #1012 ) ;
#63 = DIRECTION ( 'NONE',  ( 0.000000000000000000, 0.000000000000000000, 1.000000000000000000 ) ) ;
#64 = LINE ( 'NONE', #957, #1160 ) ;
#65 = ORIENTED_EDGE ( 'NONE', *, *, #194, .F. ) ;
#66 = CARTESIAN_POINT ( 'NONE',  ( 46.35094001659692253, 7.500000000000012434, -2.000000000000000000 ) ) ;
#67 = CARTESIAN_POINT ( 'NONE',  ( 43.00000000000000711, -14.99999999999999645, -2.000000000000000000 ) ) ;
#68 = CIRCLE ( 'NONE', #312, 5.000000000000000888 ) ;
#69 = ADVANCED_FACE ( 'NONE', ( #160 ), #867, .T. ) ;
#70 = AXIS2_PLACEMENT_3D ( 'NONE', #1077, #197, #727 ) ;
#71 = FACE_OUTER_BOUND ( 'NONE', #1061, .T. ) ;
#72 = CIRCLE ( 'NONE', #841, 6.999999999999992006 ) ;
#73 = VERTEX_POINT ( 'NONE', #949 ) ;
#74 = CARTESIAN_POINT ( 'NONE',  ( 43.00000000000000711, 8.000000000000000000, 0.000000000000000000 ) ) ;
#75 = CYLINDRICAL_SURFACE ( 'NONE', #973, 5.000000000000004441 ) ;
#76 = ADVANCED_FACE ( 'NONE', ( #685 ), #1128, .F. ) ;
#77 = LINE ( 'NONE', #432, #654 ) ;
#78 = VERTEX_POINT ( 'NONE', #778 ) ;
#79 = DIRECTION ( 'NONE',  ( 1.000000000000000000, 0.000000000000000000, 0.000000000000000000 ) ) ;
#80 = PRODUCT_DEFINITION_FORMATION_WITH_SPECIFIED_SOURCE ( 'ANY', '', #611, .NOT_KNOWN. ) ;
#81 = DIRECTION ( 'NONE',  ( 0.000000000000000000, 0.000000000000000000, 1.000000000000000000 ) ) ;
#82 = DIRECTION ( 'NONE',  ( 1.000000000000000000, 0.000000000000000000, 0.000000000000000000 ) ) ;
#83 = ORIENTED_EDGE ( 'NONE', *, *, #936, .T. ) ;
#84 = DIRECTION ( 'NONE',  ( -0.000000000000000000, -0.000000000000000000, -1.000000000000000000 ) ) ;
#85 = EDGE_CURVE ( 'NONE', #922, #173, #373, .T. ) ;
#86 = CARTESIAN_POINT ( 'NONE',  ( -43.00000000000000000, 15.00000000000000000, -2.000000000000000000 ) ) ;
#87 = PLANE ( 'NONE',  #276 ) ;
#88 = CIRCLE ( 'NONE', #520, 6.999999999999999112 ) ;
#89 = ORIENTED_EDGE ( 'NONE', *, *, #346, .F. ) ;
#90 = FACE_OUTER_BOUND ( 'NONE', #327, .T. ) ;
#91 = CLOSED_SHELL ( 'NONE', ( #913, #579, #455, #313, #185, #979, #749, #325, #143, #69, #499, #395, #601, #76, #1097, #1049, #332, #9, #628, #679, #621, #1006, #1063, #506, #1145, #532, #56, #512, #1136, #609, #542, #521, #550, #433, #570 ) ) ;
#92 = EDGE_CURVE ( 'NONE', #607, #750, #444, .T. ) ;
#93 = ORIENTED_EDGE ( 'NONE', *, *, #763, .T. ) ;
#94 = DIRECTION ( 'NONE',  ( 0.000000000000000000, -1.000000000000000000, 0.000000000000000000 ) ) ;
#95 = CIRCLE ( 'NONE', #598, 5.000000000000000888 ) ;
#96 = LINE ( 'NONE', #622, #1051 ) ;
#97 = ORIENTED_EDGE ( 'NONE', *, *, #821, .F. ) ;
#98 = CARTESIAN_POINT ( 'NONE',  ( -53.00000000000000711, -8.000000000000000000, 1.500000000000000000 ) ) ;
#99 = ORIENTED_EDGE ( 'NONE', *, *, #684, .T. ) ;
#100 = CARTESIAN_POINT ( 'NONE',  ( -41.35094001659692253, -12.49999999999999289, -4.750000000000000888 ) ) ;
#101 = EDGE_CURVE ( 'NONE', #1, #687, #144, .T. ) ;
#102 = DIRECTION ( 'NONE',  ( 1.000000000000000000, 0.000000000000000000, 0.000000000000000000 ) ) ;
#103 = ORIENTED_EDGE ( 'NONE', *, *, #246, .T. ) ;
#104 = CARTESIAN_POINT ( 'NONE',  ( -50.00000000000000000, 7.999999999999992895, 0.000000000000000000 ) ) ;
#105 = ORIENTED_EDGE ( 'NONE', *, *, #346, .T. ) ;
#106 = DIRECTION ( 'NONE',  ( -1.000000000000000000, 0.000000000000000000, 0.000000000000000000 ) ) ;
#107 = EDGE_CURVE ( 'NONE', #760, #6, #599, .T. ) ;
#108 = DIRECTION ( 'NONE',  ( -0.000000000000000000, 0.000000000000000000, -1.000000000000000000 ) ) ;
#109 = ORIENTED_EDGE ( 'NONE', *, *, #1026, .F. ) ;
#110 = DIRECTION ( 'NONE',  ( -0.000000000000000000, -0.000000000000000000, 1.000000000000000000 ) ) ;
#111 = AXIS2_PLACEMENT_3D ( 'NONE', #711, #1074, #1057 ) ;
#112 = ORIENTED_EDGE ( 'NONE', *, *, #905, .T. ) ;
#113 = FACE_OUTER_BOUND ( 'NONE', #1113, .T. ) ;
#114 = VECTOR ( 'NONE', #148, 1000.000000000000000 ) ;
#115 = DIRECTION ( 'NONE',  ( -0.000000000000000000, -0.000000000000000000, 1.000000000000000000 ) ) ;
#116 = ORIENTED_EDGE ( 'NONE', *, *, #92, .F. ) ;
#117 = DIRECTION ( 'NONE',  ( -0.000000000000000000, -0.000000000000000000, 1.000000000000000000 ) ) ;
#118 = ORIENTED_EDGE ( 'NONE', *, *, #493, .T. ) ;
#119 = DIRECTION ( 'NONE',  ( -0.000000000000000000, -0.000000000000000000, 1.000000000000000000 ) ) ;
#120 = LINE ( 'NONE', #50, #204 ) ;
#121 = ORIENTED_EDGE ( 'NONE', *, *, #1035, .T. ) ;
#122 = DIRECTION ( 'NONE',  ( 1.000000000000000000, -0.000000000000000000, 0.000000000000000000 ) ) ;
#123 = ORIENTED_EDGE ( 'NONE', *, *, #438, .F. ) ;
#124 = CARTESIAN_POINT ( 'NONE',  ( -43.00000000000000000, 8.000000000000000000, 1.500000000000000000 ) ) ;
#125 = FACE_OUTER_BOUND ( 'NONE', #241, .T. ) ;
#126 = VERTEX_POINT ( 'NONE', #166 ) ;
#127 = ORIENTED_EDGE ( 'NONE', *, *, #438, .T. ) ;
#128 = AXIS2_PLACEMENT_3D ( 'NONE', #910, #473, #270 ) ;
#129 = CARTESIAN_POINT ( 'NONE',  ( -43.00000000000000000, -8.000000000000000000, 0.000000000000000000 ) ) ;
#130 = AXIS2_PLACEMENT_3D ( 'NONE', #258, #881, #20 ) ;
#131 = EDGE_CURVE ( 'NONE', #625, #663, #77, .T. ) ;
#132 = AXIS2_PLACEMENT_3D ( 'NONE', #261, #272, #901 ) ;
#133 = ORIENTED_EDGE ( 'NONE', *, *, #900, .F. ) ;
#134 = DIRECTION ( 'NONE',  ( -0.000000000000000000, -0.000000000000000000, 1.000000000000000000 ) ) ;
#135 = VERTEX_POINT ( 'NONE', #700 ) ;
#136 = LINE ( 'NONE', #492, #165 ) ;
#137 = EDGE_CURVE ( 'NONE', #229, #318, #1065, .T. ) ;
#138 =( GEOMETRIC_REPRESENTATION_CONTEXT ( 3 ) GLOBAL_UNCERTAINTY_ASSIGNED_CONTEXT ( ( #787 ) ) GLOBAL_UNIT_ASSIGNED_CONTEXT ( ( #404, #476, #207 ) ) REPRESENTATION_CONTEXT ( 'NONE', 'WORKASPACE' ) );
#139 = ORIENTED_EDGE ( 'NONE', *, *, #1080, .F. ) ;
#140 = DIRECTION ( 'NONE',  ( -0.000000000000000000, 1.000000000000000000, 0.000000000000000000 ) ) ;
#141 = ORIENTED_EDGE ( 'NONE', *, *, #151, .F. ) ;
#142 = CARTESIAN_POINT ( 'NONE',  ( -26.35094001659691898, 12.50000000000000355, 1.499999999999999556 ) ) ;
#143 = ADVANCED_FACE ( 'NONE', ( #1087, #529, #985 ), #87, .T. ) ;
#144 = LINE ( 'NONE', #1055, #782 ) ;
#145 = DIRECTION ( 'NONE',  ( -0.000000000000000000, -0.000000000000000000, -1.000000000000000000 ) ) ;
#146 = ORIENTED_EDGE ( 'NONE', *, *, #213, .F. ) ;
#147 = CARTESIAN_POINT ( 'NONE',  ( -43.00000000000000000, -12.49999999999999289, -2.000000000000000000 ) ) ;
#148 = DIRECTION ( 'NONE',  ( -0.000000000000000000, -0.000000000000000000, 1.000000000000000000 ) ) ;
#149 = CIRCLE ( 'NONE', #132, 6.999999999999999112 ) ;
#150 = DIRECTION ( 'NONE',  ( 0.000000000000000000, 0.000000000000000000, 1.000000000000000000 ) ) ;
#151 = EDGE_CURVE ( 'NONE', #1125, #229, #658, .T. ) ;
#152 = ORIENTED_EDGE ( 'NONE', *, *, #1013, .F. ) ;
#153 = CARTESIAN_POINT ( 'NONE',  ( -21.35094001659691543, 7.500000000000006217, -4.750000000000000888 ) ) ;
#154 = AXIS2_PLACEMENT_3D ( 'NONE', #879, #233, #784 ) ;
#155 = DIRECTION ( 'NONE',  ( 1.000000000000000000, 0.000000000000000000, 0.000000000000000000 ) ) ;
#156 = EDGE_LOOP ( 'NONE', ( #121, #485, #576, #344 ) ) ;
#157 = ORIENTED_EDGE ( 'NONE', *, *, #477, .F. ) ;
#158 = CARTESIAN_POINT ( 'NONE',  ( 46.35094001659692253, -8.000000000000000000, 1.500000000000000000 ) ) ;
#159 = CARTESIAN_POINT ( 'NONE',  ( -50.00000000000000000, 7.999999999999992895, 0.000000000000000000 ) ) ;
#160 = FACE_OUTER_BOUND ( 'NONE', #976, .T. ) ;
#161 = EDGE_LOOP ( 'NONE', ( #623, #963, #496, #516 ) ) ;
#162 = DIRECTION ( 'NONE',  ( -0.000000000000000000, -0.000000000000000000, -1.000000000000000000 ) ) ;
#163 = CYLINDRICAL_SURFACE ( 'NONE', #504, 5.000000000000000888 ) ;
#164 = EDGE_CURVE ( 'NONE', #42, #371, #883, .T. ) ;
#165 = VECTOR ( 'NONE', #850, 1000.000000000000000 ) ;
#166 = CARTESIAN_POINT ( 'NONE',  ( 46.35094001659692253, 7.500000000000012434, 1.499999999999999556 ) ) ;
#167 = AXIS2_PLACEMENT_3D ( 'NONE', #788, #1075, #525 ) ;
#168 = VERTEX_POINT ( 'NONE', #375 ) ;
#169 = CYLINDRICAL_SURFACE ( 'NONE', #723, 6.999999999999999112 ) ;
#170 = LINE ( 'NONE', #699, #445 ) ;
#171 = EDGE_CURVE ( 'NONE', #991, #1, #256, .T. ) ;
#172 = CARTESIAN_POINT ( 'NONE',  ( -43.00000000000000000, 15.00000000000000000, 0.000000000000000000 ) ) ;
#173 = VERTEX_POINT ( 'NONE', #537 ) ;
#174 = CARTESIAN_POINT ( 'NONE',  ( 26.35094001659691898, -7.499999999999986677, -4.750000000000000888 ) ) ;
#175 = CARTESIAN_POINT ( 'NONE',  ( -50.00000000000000000, 7.999999999999992895, -2.000000000000000000 ) ) ;
#176 = EDGE_CURVE ( 'NONE', #625, #637, #709, .T. ) ;
#177 = VERTEX_POINT ( 'NONE', #1001 ) ;
#178 = DIRECTION ( 'NONE',  ( 0.000000000000000000, 0.000000000000000000, 1.000000000000000000 ) ) ;
#179 = ORIENTED_EDGE ( 'NONE', *, *, #967, .T. ) ;
#180 = DIRECTION ( 'NONE',  ( -1.000000000000000000, 0.000000000000000000, 0.000000000000000000 ) ) ;
#181 = AXIS2_PLACEMENT_3D ( 'NONE', #747, #230, #758 ) ;
#182 = LINE ( 'NONE', #1079, #803 ) ;
#183 = AXIS2_PLACEMENT_3D ( 'NONE', #1021, #411, #834 ) ;
#184 = ORIENTED_EDGE ( 'NONE', *, *, #692, .T. ) ;
#185 = ADVANCED_FACE ( 'NONE', ( #627 ), #1154, .T. ) ;
#186 = PLANE ( 'NONE',  #575 ) ;
#187 = AXIS2_PLACEMENT_3D ( 'NONE', #1042, #592, #767 ) ;
#188 = DIRECTION ( 'NONE',  ( -0.000000000000000000, -0.000000000000000000, -1.000000000000000000 ) ) ;
#189 = CARTESIAN_POINT ( 'NONE',  ( 43.00000000000000711, -8.000000000000000000, 0.000000000000000000 ) ) ;
#190 = PRODUCT_DEFINITION_SHAPE ( 'NONE', 'NONE',  #1005 ) ;
#191 = VERTEX_POINT ( 'NONE', #267 ) ;
#192 = DIRECTION ( 'NONE',  ( -1.000000000000000000, -8.068481283613054562E-17, 0.000000000000000000 ) ) ;
#193 = CARTESIAN_POINT ( 'NONE',  ( -53.00000000000000711, 7.999999999999991118, 0.000000000000000000 ) ) ;
#194 = EDGE_CURVE ( 'NONE', #371, #472, #72, .T. ) ;
#195 = DIRECTION ( 'NONE',  ( -0.000000000000000000, -0.000000000000000000, 1.000000000000000000 ) ) ;
#196 = VERTEX_POINT ( 'NONE', #714 ) ;
#197 = DIRECTION ( 'NONE',  ( 0.000000000000000000, 0.000000000000000000, 1.000000000000000000 ) ) ;
#198 = DIRECTION ( 'NONE',  ( 0.000000000000000000, -1.000000000000000000, 0.000000000000000000 ) ) ;
#199 = DIRECTION ( 'NONE',  ( -0.000000000000000000, -0.000000000000000000, -1.000000000000000000 ) ) ;
#200 = ORIENTED_EDGE ( 'NONE', *, *, #377, .F. ) ;
#201 = DIRECTION ( 'NONE',  ( -0.000000000000000000, -0.000000000000000000, 1.000000000000000000 ) ) ;
#202 = AXIS2_PLACEMENT_3D ( 'NONE', #702, #1142, #340 ) ;
#203 = PLANE ( 'NONE',  #128 ) ;
#204 = VECTOR ( 'NONE', #918, 1000.000000000000000 ) ;
#205 = CARTESIAN_POINT ( 'NONE',  ( -43.00000000000000000, 18.00000000000000355, 1.500000000000000000 ) ) ;
#206 = ORIENTED_EDGE ( 'NONE', *, *, #942, .F. ) ;
#207 =( NAMED_UNIT ( * ) SI_UNIT ( $, .STERADIAN. ) SOLID_ANGLE_UNIT ( ) );
#208 = EDGE_LOOP ( 'NONE', ( #391, #211, #1101, #218 ) ) ;
#209 = FACE_BOUND ( 'NONE', #48, .T. ) ;
#210 = CARTESIAN_POINT ( 'NONE',  ( 50.00000000000000000, 8.000000000000000000, 0.000000000000000000 ) ) ;
#211 = ORIENTED_EDGE ( 'NONE', *, *, #471, .T. ) ;
#212 = CARTESIAN_POINT ( 'NONE',  ( 26.35094001659691898, -7.499999999999986677, -2.000000000000000000 ) ) ;
#213 = EDGE_CURVE ( 'NONE', #396, #922, #96, .T. ) ;
#214 = ORIENTED_EDGE ( 'NONE', *, *, #194, .T. ) ;
#215 = DIRECTION ( 'NONE',  ( 1.000000000000000000, 0.000000000000000000, 0.000000000000000000 ) ) ;
#216 = ORIENTED_EDGE ( 'NONE', *, *, #232, .T. ) ;
#217 = EDGE_CURVE ( 'NONE', #401, #302, #182, .T. ) ;
#218 = ORIENTED_EDGE ( 'NONE', *, *, #252, .F. ) ;
#219 = DIRECTION ( 'NONE',  ( -1.000000000000000000, 1.156482317317871232E-16, 0.000000000000000000 ) ) ;
#220 = CIRCLE ( 'NONE', #70, 9.999999999999994671 ) ;
#221 = AXIS2_PLACEMENT_3D ( 'NONE', #659, #955, #155 ) ;
#222 = EDGE_LOOP ( 'NONE', ( #983, #1030, #505, #909 ) ) ;
#223 = DIRECTION ( 'NONE',  ( -1.000000000000000000, 0.000000000000000000, 0.000000000000000000 ) ) ;
#224 = ORIENTED_EDGE ( 'NONE', *, *, #341, .F. ) ;
#225 = DIRECTION ( 'NONE',  ( -0.000000000000000000, -0.000000000000000000, 1.000000000000000000 ) ) ;
#226 = EDGE_CURVE ( 'NONE', #302, #287, #1140, .T. ) ;
#227 = VERTEX_POINT ( 'NONE', #362 ) ;
#228 = DIRECTION ( 'NONE',  ( 0.000000000000000000, -0.000000000000000000, 1.000000000000000000 ) ) ;
#229 = VERTEX_POINT ( 'NONE', #718 ) ;
#230 = DIRECTION ( 'NONE',  ( 0.000000000000000000, 0.000000000000000000, 1.000000000000000000 ) ) ;
#231 = DIRECTION ( 'NONE',  ( -1.000000000000000000, 0.000000000000000000, 0.000000000000000000 ) ) ;
#232 = EDGE_CURVE ( 'NONE', #42, #687, #149, .T. ) ;
#233 = DIRECTION ( 'NONE',  ( 0.000000000000000000, 0.000000000000000000, 1.000000000000000000 ) ) ;
#234 = ORIENTED_EDGE ( 'NONE', *, *, #11, .F. ) ;
#235 = DIRECTION ( 'NONE',  ( 0.000000000000000000, 0.000000000000000000, 1.000000000000000000 ) ) ;
#236 = CIRCLE ( 'NONE', #130, 5.000000000000004441 ) ;
#237 = DIRECTION ( 'NONE',  ( -0.000000000000000000, -0.000000000000000000, 1.000000000000000000 ) ) ;
#238 = VECTOR ( 'NONE', #13, 1000.000000000000000 ) ;
#239 = VECTOR ( 'NONE', #462, 1000.000000000000000 ) ;
#240 = PLANE ( 'NONE',  #187 ) ;
#241 = EDGE_LOOP ( 'NONE', ( #309, #1088, #403, #1056 ) ) ;
#242 = LINE ( 'NONE', #619, #481 ) ;
#243 = CARTESIAN_POINT ( 'NONE',  ( 26.35094001659691898, -12.49999999999998401, 1.499999999999999556 ) ) ;
#244 = DIRECTION ( 'NONE',  ( 1.000000000000000000, 0.000000000000000000, 0.000000000000000000 ) ) ;
#245 = VERTEX_POINT ( 'NONE', #635 ) ;
#246 = EDGE_CURVE ( 'NONE', #864, #806, #642, .T. ) ;
#247 = DIRECTION ( 'NONE',  ( 0.000000000000000000, 0.000000000000000000, 1.000000000000000000 ) ) ;
#248 = CARTESIAN_POINT ( 'NONE',  ( -53.00000000000000711, 7.999999999999992895, 1.500000000000000000 ) ) ;
#249 = DIRECTION ( 'NONE',  ( 1.000000000000000000, 0.000000000000000000, 0.000000000000000000 ) ) ;
#250 = VERTEX_POINT ( 'NONE', #814 ) ;
#251 = CARTESIAN_POINT ( 'NONE',  ( 43.00000000000000711, 15.00000000000000000, -2.000000000000000000 ) ) ;
#252 = EDGE_CURVE ( 'NONE', #168, #304, #526, .T. ) ;
#253 = LINE ( 'NONE', #794, #409 ) ;
#254 = EDGE_CURVE ( 'NONE', #73, #671, #10, .T. ) ;
#255 = AXIS2_PLACEMENT_3D ( 'NONE', #1039, #589, #34 ) ;
#256 = LINE ( 'NONE', #175, #1031 ) ;
#257 = VERTEX_POINT ( 'NONE', #279 ) ;
#258 = CARTESIAN_POINT ( 'NONE',  ( -41.35094001659692253, 7.500000000000006217, 1.499999999999999556 ) ) ;
#259 = LINE ( 'NONE', #248, #745 ) ;
#260 = EDGE_CURVE ( 'NONE', #452, #472, #551, .T. ) ;
#261 = CARTESIAN_POINT ( 'NONE',  ( -43.00000000000000000, -8.000000000000000000, 0.000000000000000000 ) ) ;
#262 = ORIENTED_EDGE ( 'NONE', *, *, #85, .F. ) ;
#263 = CARTESIAN_POINT ( 'NONE',  ( 43.00000000000000711, 15.00000000000000000, 0.000000000000000000 ) ) ;
#264 = ORIENTED_EDGE ( 'NONE', *, *, #1013, .T. ) ;
#265 = DIRECTION ( 'NONE',  ( -1.000000000000000000, -0.000000000000000000, 0.000000000000000000 ) ) ;
#266 = EDGE_CURVE ( 'NONE', #475, #478, #382, .T. ) ;
#267 = CARTESIAN_POINT ( 'NONE',  ( 43.00000000000001421, -17.99999999999999645, 1.500000000000000000 ) ) ;
#268 = ORIENTED_EDGE ( 'NONE', *, *, #1124, .F. ) ;
#269 = LINE ( 'NONE', #288, #426 ) ;
#270 = DIRECTION ( 'NONE',  ( 1.000000000000000000, 0.000000000000000000, -0.000000000000000000 ) ) ;
#271 = VECTOR ( 'NONE', #953, 1000.000000000000000 ) ;
#272 = DIRECTION ( 'NONE',  ( -0.000000000000000000, -0.000000000000000000, -1.000000000000000000 ) ) ;
#273 = CIRCLE ( 'NONE', #930, 9.999999999999994671 ) ;
#274 = ORIENTED_EDGE ( 'NONE', *, *, #756, .F. ) ;
#275 = CARTESIAN_POINT ( 'NONE',  ( 21.35094001659691543, -8.000000000000000000, 1.500000000000000000 ) ) ;
#276 = AXIS2_PLACEMENT_3D ( 'NONE', #980, #108, #1161 ) ;
#277 = ORIENTED_EDGE ( 'NONE', *, *, #942, .T. ) ;
#278 = DIRECTION ( 'NONE',  ( 1.000000000000000000, 0.000000000000000000, 0.000000000000000000 ) ) ;
#279 = CARTESIAN_POINT ( 'NONE',  ( -53.00000000000000711, -8.000000000000000000, 0.000000000000000000 ) ) ;
#280 = ORIENTED_EDGE ( 'NONE', *, *, #297, .T. ) ;
#281 = DIRECTION ( 'NONE',  ( -0.000000000000000000, -0.000000000000000000, -1.000000000000000000 ) ) ;
#282 = EDGE_CURVE ( 'NONE', #1134, #472, #596, .T. ) ;
#283 = EDGE_LOOP ( 'NONE', ( #383, #907, #1025, #379 ) ) ;
#284 = AXIS2_PLACEMENT_3D ( 'NONE', #938, #140, #228 ) ;
#285 = PLANE ( 'NONE',  #442 ) ;
#286 = CARTESIAN_POINT ( 'NONE',  ( 43.00000000000000711, -8.000000000000000000, 1.500000000000000000 ) ) ;
#287 = VERTEX_POINT ( 'NONE', #415 ) ;
#288 = CARTESIAN_POINT ( 'NONE',  ( 26.35094001659691898, -12.49999999999998401, -4.750000000000000888 ) ) ;
#289 = CARTESIAN_POINT ( 'NONE',  ( 43.00000000000000711, -8.000000000000000000, 0.000000000000000000 ) ) ;
#290 = EDGE_CURVE ( 'NONE', #1038, #914, #427, .T. ) ;
#291 = CARTESIAN_POINT ( 'NONE',  ( -43.00000000000000000, -12.50000000000000355, -2.000000000000000000 ) ) ;
#292 = ORIENTED_EDGE ( 'NONE', *, *, #591, .T. ) ;
#293 = DIRECTION ( 'NONE',  ( -0.000000000000000000, -0.000000000000000000, 1.000000000000000000 ) ) ;
#294 = CIRCLE ( 'NONE', #424, 9.999999999999994671 ) ;
#295 = EDGE_LOOP ( 'NONE', ( #1010, #934, #32, #179 ) ) ;
#296 = PLANE ( 'NONE',  #1137 ) ;
#297 = EDGE_CURVE ( 'NONE', #177, #6, #567, .T. ) ;
#298 = LINE ( 'NONE', #947, #1070 ) ;
#299 = AXIS2_PLACEMENT_3D ( 'NONE', #683, #419, #839 ) ;
#300 = EDGE_LOOP ( 'NONE', ( #216, #981, #527, #1095 ) ) ;
#301 = CARTESIAN_POINT ( 'NONE',  ( -21.35094001659691543, -7.499999999999995559, 1.500000000000000000 ) ) ;
#302 = VERTEX_POINT ( 'NONE', #468 ) ;
#303 = FACE_OUTER_BOUND ( 'NONE', #300, .T. ) ;
#304 = VERTEX_POINT ( 'NONE', #480 ) ;
#305 = CARTESIAN_POINT ( 'NONE',  ( 50.00000000000000000, 8.000000000000000000, -2.000000000000000000 ) ) ;
#306 = EDGE_CURVE ( 'NONE', #78, #1156, #924, .T. ) ;
#307 = ORIENTED_EDGE ( 'NONE', *, *, #92, .T. ) ;
#308 = CYLINDRICAL_SURFACE ( 'NONE', #406, 5.000000000000000888 ) ;
#309 = ORIENTED_EDGE ( 'NONE', *, *, #584, .T. ) ;
#310 = DIRECTION ( 'NONE',  ( -0.000000000000000000, -0.000000000000000000, -1.000000000000000000 ) ) ;
#311 = ORIENTED_EDGE ( 'NONE', *, *, #21, .T. ) ;
#312 = AXIS2_PLACEMENT_3D ( 'NONE', #555, #188, #106 ) ;
#313 = ADVANCED_FACE ( 'NONE', ( #508 ), #866, .F. ) ;
#314 = CARTESIAN_POINT ( 'NONE',  ( -26.35094001659691898, -12.49999999999999467, 1.499999999999999556 ) ) ;
#315 = AXIS2_PLACEMENT_3D ( 'NONE', #716, #915, #1003 ) ;
#316 = AXIS2_PLACEMENT_3D ( 'NONE', #205, #474, #832 ) ;
#317 = ORIENTED_EDGE ( 'NONE', *, *, #361, .F. ) ;
#318 = VERTEX_POINT ( 'NONE', #324 ) ;
#319 = LINE ( 'NONE', #414, #461 ) ;
#320 = LINE ( 'NONE', #291, #801 ) ;
#321 = PLANE ( 'NONE',  #154 ) ;
#322 = VERTEX_POINT ( 'NONE', #23 ) ;
#323 = CARTESIAN_POINT ( 'NONE',  ( -43.00000000000000000, -18.00000000000000355, 1.500000000000000000 ) ) ;
#324 = CARTESIAN_POINT ( 'NONE',  ( 41.35094001659692253, 12.50000000000000711, -2.000000000000000000 ) ) ;
#325 = ADVANCED_FACE ( 'NONE', ( #563 ), #647, .T. ) ;
#326 = DIRECTION ( 'NONE',  ( -0.000000000000000000, -0.000000000000000000, -1.000000000000000000 ) ) ;
#327 = EDGE_LOOP ( 'NONE', ( #854, #399, #274, #1118 ) ) ;
#328 = SURFACE_SIDE_STYLE ('',( #774 ) ) ;
#329 = VECTOR ( 'NONE', #1027, 1000.000000000000000 ) ;
#330 = FACE_OUTER_BOUND ( 'NONE', #945, .T. ) ;
#331 = CIRCLE ( 'NONE', #990, 5.000000000000004441 ) ;
#332 = ADVANCED_FACE ( 'NONE', ( #125 ), #1019, .T. ) ;
#333 = DIRECTION ( 'NONE',  ( 0.000000000000000000, 0.000000000000000000, 1.000000000000000000 ) ) ;
#334 = EDGE_LOOP ( 'NONE', ( #796, #1099, #885, #829, #958, #746, #268, #397 ) ) ;
#335 = PRESENTATION_STYLE_ASSIGNMENT (( #786 ) ) ;
#336 = CARTESIAN_POINT ( 'NONE',  ( 43.00000000000000711, 12.50000000000000355, 1.500000000000000000 ) ) ;
#337 = AXIS2_PLACEMENT_3D ( 'NONE', #933, #30, #390 ) ;
#338 = CARTESIAN_POINT ( 'NONE',  ( 53.00000000000000711, 8.000000000000000000, 1.500000000000000000 ) ) ;
#339 = EDGE_LOOP ( 'NONE', ( #835, #594, #1141, #643, #719, #874, #116, #891 ) ) ;
#340 = DIRECTION ( 'NONE',  ( 1.000000000000000000, 0.000000000000000000, 0.000000000000000000 ) ) ;
#341 = EDGE_CURVE ( 'NONE', #318, #827, #52, .T. ) ;
#342 = DIRECTION ( 'NONE',  ( -0.000000000000000000, -0.000000000000000000, 1.000000000000000000 ) ) ;
#343 = DIRECTION ( 'NONE',  ( -0.000000000000000000, -0.000000000000000000, -1.000000000000000000 ) ) ;
#344 = ORIENTED_EDGE ( 'NONE', *, *, #477, .T. ) ;
#345 = DIRECTION ( 'NONE',  ( 0.000000000000000000, 1.000000000000000000, -0.000000000000000000 ) ) ;
#346 = EDGE_CURVE ( 'NONE', #1024, #729, #320, .T. ) ;
#347 = CYLINDRICAL_SURFACE ( 'NONE', #54, 5.000000000000004441 ) ;
#348 = VECTOR ( 'NONE', #219, 1000.000000000000000 ) ;
#349 = CARTESIAN_POINT ( 'NONE',  ( 26.35094001659691898, 7.500000000000007105, 1.499999999999999556 ) ) ;
#350 = VECTOR ( 'NONE', #333, 1000.000000000000000 ) ;
#351 = VECTOR ( 'NONE', #705, 1000.000000000000000 ) ;
#352 = ORIENTED_EDGE ( 'NONE', *, *, #965, .F. ) ;
#353 = CARTESIAN_POINT ( 'NONE',  ( -43.00000000000000000, -15.00000000000000000, -2.000000000000000000 ) ) ;
#354 = LINE ( 'NONE', #336, #1105 ) ;
#355 = DIRECTION ( 'NONE',  ( 0.000000000000000000, -1.000000000000000000, 0.000000000000000000 ) ) ;
#356 = ORIENTED_EDGE ( 'NONE', *, *, #11, .T. ) ;
#357 = DIRECTION ( 'NONE',  ( -8.068481283613054562E-17, 1.000000000000000000, 0.000000000000000000 ) ) ;
#358 = AXIS2_PLACEMENT_3D ( 'NONE', #212, #145, #38 ) ;
#359 = EDGE_LOOP ( 'NONE', ( #311, #554, #1017, #1022 ) ) ;
#360 = DIRECTION ( 'NONE',  ( 1.000000000000000000, -1.156482317317871232E-16, 0.000000000000000000 ) ) ;
#361 = EDGE_CURVE ( 'NONE', #1121, #1134, #120, .T. ) ;
#362 = CARTESIAN_POINT ( 'NONE',  ( 53.00000000000000711, 8.000000000000000000, 1.500000000000000000 ) ) ;
#363 = ORIENTED_EDGE ( 'NONE', *, *, #386, .T. ) ;
#364 = DIRECTION ( 'NONE',  ( -1.000000000000000000, 0.000000000000000000, 0.000000000000000000 ) ) ;
#365 = ORIENTED_EDGE ( 'NONE', *, *, #900, .T. ) ;
#366 = DIRECTION ( 'NONE',  ( -2.312964634635742464E-16, 1.000000000000000000, 0.000000000000000000 ) ) ;
#367 = VECTOR ( 'NONE', #507, 1000.000000000000000 ) ;
#368 = CARTESIAN_POINT ( 'NONE',  ( 43.00000000000000711, -12.50000000000000355, 1.500000000000000000 ) ) ;
#369 = AXIS2_PLACEMENT_3D ( 'NONE', #531, #816, #384 ) ;
#370 = EDGE_CURVE ( 'NONE', #196, #701, #95, .T. ) ;
#371 = VERTEX_POINT ( 'NONE', #387 ) ;
#372 = CARTESIAN_POINT ( 'NONE',  ( -41.35094001659692253, 12.50000000000000711, -2.000000000000000000 ) ) ;
#373 = CIRCLE ( 'NONE', #1157, 10.00000000000000178 ) ;
#374 = CARTESIAN_POINT ( 'NONE',  ( 41.35094001659692253, -7.499999999999983125, -4.750000000000000888 ) ) ;
#375 = CARTESIAN_POINT ( 'NONE',  ( 21.35094001659691543, -7.499999999999986677, -2.000000000000000000 ) ) ;
#376 = ORIENTED_EDGE ( 'NONE', *, *, #706, .T. ) ;
#377 = EDGE_CURVE ( 'NONE', #318, #401, #1040, .T. ) ;
#378 = CARTESIAN_POINT ( 'NONE',  ( 53.00000000000000711, 8.000000000000000000, 1.500000000000000000 ) ) ;
#379 = ORIENTED_EDGE ( 'NONE', *, *, #297, .F. ) ;
#380 = EDGE_CURVE ( 'NONE', #229, #302, #1131, .T. ) ;
#381 = CARTESIAN_POINT ( 'NONE',  ( 41.35094001659692253, 12.50000000000000711, -4.750000000000000888 ) ) ;
#382 = LINE ( 'NONE', #1046, #932 ) ;
#383 = ORIENTED_EDGE ( 'NONE', *, *, #728, .T. ) ;
#384 = DIRECTION ( 'NONE',  ( 1.000000000000000000, 0.000000000000000000, 0.000000000000000000 ) ) ;
#385 = FACE_OUTER_BOUND ( 'NONE', #208, .T. ) ;
#386 = EDGE_CURVE ( 'NONE', #925, #653, #298, .T. ) ;
#387 = CARTESIAN_POINT ( 'NONE',  ( 43.00000000000000711, -14.99999999999999645, 0.000000000000000000 ) ) ;
#388 = AXIS2_PLACEMENT_3D ( 'NONE', #544, #641, #460 ) ;
#389 = ORIENTED_EDGE ( 'NONE', *, *, #1071, .F. ) ;
#390 = DIRECTION ( 'NONE',  ( 1.000000000000000000, 0.000000000000000000, 0.000000000000000000 ) ) ;
#391 = ORIENTED_EDGE ( 'NONE', *, *, #1026, .T. ) ;
#392 = CARTESIAN_POINT ( 'NONE',  ( 26.35094001659691898, -12.49999999999998401, -2.000000000000000000 ) ) ;
#393 = AXIS2_PLACEMENT_3D ( 'NONE', #586, #326, #962 ) ;
#394 = AXIS2_PLACEMENT_3D ( 'NONE', #917, #721, #650 ) ;
#395 = ADVANCED_FACE ( 'NONE', ( #862 ), #652, .T. ) ;
#396 = VERTEX_POINT ( 'NONE', #28 ) ;
#397 = ORIENTED_EDGE ( 'NONE', *, *, #763, .F. ) ;
#398 = CARTESIAN_POINT ( 'NONE',  ( -43.00000000000000000, 18.00000000000000355, 0.000000000000000000 ) ) ;
#399 = ORIENTED_EDGE ( 'NONE', *, *, #950, .F. ) ;
#400 = DIRECTION ( 'NONE',  ( 1.000000000000000000, 0.000000000000000000, 0.000000000000000000 ) ) ;
#401 = VERTEX_POINT ( 'NONE', #58 ) ;
#402 = CARTESIAN_POINT ( 'NONE',  ( 43.00000000000000711, -14.99999999999999645, -2.000000000000000000 ) ) ;
#403 = ORIENTED_EDGE ( 'NONE', *, *, #936, .F. ) ;
#404 =( LENGTH_UNIT ( ) NAMED_UNIT ( * ) SI_UNIT ( .MILLI., .METRE. ) );
#405 = VERTEX_POINT ( 'NONE', #67 ) ;
#406 = AXIS2_PLACEMENT_3D ( 'NONE', #1034, #225, #1023 ) ;
#407 = CYLINDRICAL_SURFACE ( 'NONE', #181, 6.999999999999999112 ) ;
#408 = CARTESIAN_POINT ( 'NONE',  ( -43.00000000000000000, -18.00000000000000355, 0.000000000000000000 ) ) ;
#409 = VECTOR ( 'NONE', #94, 1000.000000000000000 ) ;
#410 = CARTESIAN_POINT ( 'NONE',  ( -43.00000000000000000, 15.00000000000000000, -2.000000000000000000 ) ) ;
#411 = DIRECTION ( 'NONE',  ( -1.000000000000000000, 0.000000000000000000, 0.000000000000000000 ) ) ;
#412 = APPLICATION_CONTEXT ( 'automotive_design' ) ;
#413 = ORIENTED_EDGE ( 'NONE', *, *, #260, .T. ) ;
#414 = CARTESIAN_POINT ( 'NONE',  ( -43.00000000000000000, 12.50000000000000355, -2.000000000000000000 ) ) ;
#415 = CARTESIAN_POINT ( 'NONE',  ( 21.35094001659691543, 7.500000000000007105, 1.499999999999999556 ) ) ;
#416 = DIRECTION ( 'NONE',  ( 1.000000000000000000, 0.000000000000000000, 0.000000000000000000 ) ) ;
#417 = ORIENTED_EDGE ( 'NONE', *, *, #756, .T. ) ;
#418 = DIRECTION ( 'NONE',  ( 0.000000000000000000, 0.000000000000000000, 1.000000000000000000 ) ) ;
#419 = DIRECTION ( 'NONE',  ( -1.000000000000000000, 0.000000000000000000, 0.000000000000000000 ) ) ;
#420 = EDGE_CURVE ( 'NONE', #1121, #452, #626, .T. ) ;
#421 = CARTESIAN_POINT ( 'NONE',  ( 41.35094001659692253, -7.499999999999983125, 1.499999999999999556 ) ) ;
#422 = ORIENTED_EDGE ( 'NONE', *, *, #713, .T. ) ;
#423 =( NAMED_UNIT ( * ) PLANE_ANGLE_UNIT ( ) SI_UNIT ( $, .RADIAN. ) );
#424 = AXIS2_PLACEMENT_3D ( 'NONE', #289, #549, #278 ) ;
#425 = CARTESIAN_POINT ( 'NONE',  ( -41.35094001659692253, 7.500000000000006217, -2.000000000000000000 ) ) ;
#426 = VECTOR ( 'NONE', #117, 1000.000000000000000 ) ;
#427 = CIRCLE ( 'NONE', #221, 9.999999999999994671 ) ;
#428 = CARTESIAN_POINT ( 'NONE',  ( 53.00000000000000711, -8.000000000000000000, 1.500000000000000000 ) ) ;
#429 = ORIENTED_EDGE ( 'NONE', *, *, #585, .F. ) ;
#430 = LINE ( 'NONE', #608, #1120 ) ;
#431 = CARTESIAN_POINT ( 'NONE',  ( -41.35094001659692253, 7.500000000000006217, -4.750000000000000888 ) ) ;
#432 = CARTESIAN_POINT ( 'NONE',  ( -43.00000000000000000, 18.00000000000000355, 1.500000000000000000 ) ) ;
#433 = ADVANCED_FACE ( 'NONE', ( #616 ), #163, .F. ) ;
#434 = EDGE_LOOP ( 'NONE', ( #482, #569, #752, #97 ) ) ;
#435 = FACE_OUTER_BOUND ( 'NONE', #295, .T. ) ;
#436 = DIRECTION ( 'NONE',  ( 0.000000000000000000, -1.000000000000000000, 0.000000000000000000 ) ) ;
#437 = ORIENTED_EDGE ( 'NONE', *, *, #684, .F. ) ;
#438 = EDGE_CURVE ( 'NONE', #827, #177, #253, .T. ) ;
#439 =( NAMED_UNIT ( * ) SI_UNIT ( $, .STERADIAN. ) SOLID_ANGLE_UNIT ( ) );
#440 = FACE_OUTER_BOUND ( 'NONE', #29, .T. ) ;
#441 = COLOUR_RGB ( '',0.7921568627450980005, 0.8196078431372548767, 0.9333333333333333481 ) ;
#442 = AXIS2_PLACEMENT_3D ( 'NONE', #657, #1018, #360 ) ;
#443 = CARTESIAN_POINT ( 'NONE',  ( -43.00000000000000000, -15.00000000000000000, 0.000000000000000000 ) ) ;
#444 = CIRCLE ( 'NONE', #597, 5.000000000000000888 ) ;
#445 = VECTOR ( 'NONE', #81, 1000.000000000000000 ) ;
#446 = VERTEX_POINT ( 'NONE', #159 ) ;
#447 = LINE ( 'NONE', #275, #1048 ) ;
#448 = ORIENTED_EDGE ( 'NONE', *, *, #488, .T. ) ;
#449 = VECTOR ( 'NONE', #819, 1000.000000000000000 ) ;
#450 = FACE_OUTER_BOUND ( 'NONE', #757, .T. ) ;
#451 = DIRECTION ( 'NONE',  ( -0.000000000000000000, -0.000000000000000000, -1.000000000000000000 ) ) ;
#452 = VERTEX_POINT ( 'NONE', #1143 ) ;
#453 = DIRECTION ( 'NONE',  ( 0.000000000000000000, 0.000000000000000000, 1.000000000000000000 ) ) ;
#454 = DIRECTION ( 'NONE',  ( 0.000000000000000000, -0.000000000000000000, -1.000000000000000000 ) ) ;
#455 = ADVANCED_FACE ( 'NONE', ( #972 ), #620, .T. ) ;
#456 = DIRECTION ( 'NONE',  ( 1.000000000000000000, 0.000000000000000000, 0.000000000000000000 ) ) ;
#457 = ORIENTED_EDGE ( 'NONE', *, *, #260, .F. ) ;
#458 = DIRECTION ( 'NONE',  ( 1.000000000000000000, 0.000000000000000000, 0.000000000000000000 ) ) ;
#459 = VERTEX_POINT ( 'NONE', #243 ) ;
#460 = DIRECTION ( 'NONE',  ( -1.000000000000000000, 0.000000000000000000, 0.000000000000000000 ) ) ;
#461 = VECTOR ( 'NONE', #486, 1000.000000000000000 ) ;
#462 = DIRECTION ( 'NONE',  ( 1.000000000000000000, 2.312964634635742464E-16, 0.000000000000000000 ) ) ;
#463 = EDGE_CURVE ( 'NONE', #478, #925, #1015, .T. ) ;
#464 = ORIENTED_EDGE ( 'NONE', *, *, #871, .F. ) ;
#465 = CARTESIAN_POINT ( 'NONE',  ( -43.00000000000000000, -15.00000000000000000, -2.000000000000000000 ) ) ;
#466 = AXIS2_PLACEMENT_3D ( 'NONE', #1007, #199, #231 ) ;
#467 = CARTESIAN_POINT ( 'NONE',  ( -43.00000000000000000, 15.00000000000000000, -2.000000000000000000 ) ) ;
#468 = CARTESIAN_POINT ( 'NONE',  ( 26.35094001659691898, 12.50000000000000355, 1.499999999999999556 ) ) ;
#469 = ORIENTED_EDGE ( 'NONE', *, *, #41, .T. ) ;
#470 = CYLINDRICAL_SURFACE ( 'NONE', #536, 5.000000000000004441 ) ;
#471 = EDGE_CURVE ( 'NONE', #1125, #287, #519, .T. ) ;
#472 = VERTEX_POINT ( 'NONE', #1158 ) ;
#473 = DIRECTION ( 'NONE',  ( 0.000000000000000000, 0.000000000000000000, 1.000000000000000000 ) ) ;
#474 = DIRECTION ( 'NONE',  ( 8.068481283613054562E-17, 1.000000000000000000, -0.000000000000000000 ) ) ;
#475 = VERTEX_POINT ( 'NONE', #882 ) ;
#476 =( NAMED_UNIT ( * ) PLANE_ANGLE_UNIT ( ) SI_UNIT ( $, .RADIAN. ) );
#477 = EDGE_CURVE ( 'NONE', #991, #446, #170, .T. ) ;
#478 = VERTEX_POINT ( 'NONE', #870 ) ;
#479 = CARTESIAN_POINT ( 'NONE',  ( -53.00000000000000711, 7.999999999999992895, 0.000000000000000000 ) ) ;
#480 = CARTESIAN_POINT ( 'NONE',  ( 21.35094001659691543, -7.499999999999986677, 1.499999999999999556 ) ) ;
#481 = VECTOR ( 'NONE', #1062, 1000.000000000000000 ) ;
#482 = ORIENTED_EDGE ( 'NONE', *, *, #266, .T. ) ;
#483 = PRODUCT_CONTEXT ( 'NONE', #31, 'mechanical' ) ;
#484 = VECTOR ( 'NONE', #201, 1000.000000000000000 ) ;
#485 = ORIENTED_EDGE ( 'NONE', *, *, #783, .F. ) ;
#486 = DIRECTION ( 'NONE',  ( 1.000000000000000000, 0.000000000000000000, 0.000000000000000000 ) ) ;
#487 = VECTOR ( 'NONE', #18, 1000.000000000000000 ) ;
#488 = EDGE_CURVE ( 'NONE', #750, #653, #354, .T. ) ;
#489 = EDGE_LOOP ( 'NONE', ( #93, #618, #573, #24 ) ) ;
#490 = CARTESIAN_POINT ( 'NONE',  ( -21.35094001659691543, -8.000000000000000000, 1.500000000000000000 ) ) ;
#491 = ORIENTED_EDGE ( 'NONE', *, *, #997, .T. ) ;
#492 = CARTESIAN_POINT ( 'NONE',  ( -43.00000000000000000, 15.00000000000000000, -2.000000000000000000 ) ) ;
#493 = EDGE_CURVE ( 'NONE', #396, #693, #259, .T. ) ;
#494 = ORIENTED_EDGE ( 'NONE', *, *, #584, .F. ) ;
#495 = FACE_OUTER_BOUND ( 'NONE', #533, .T. ) ;
#496 = ORIENTED_EDGE ( 'NONE', *, *, #884, .T. ) ;
#497 = LINE ( 'NONE', #323, #14 ) ;
#498 = CARTESIAN_POINT ( 'NONE',  ( -43.00000000000000000, 12.49999999999998934, -2.000000000000000000 ) ) ;
#499 = ADVANCED_FACE ( 'NONE', ( #435 ), #1135, .T. ) ;
#500 = ORIENTED_EDGE ( 'NONE', *, *, #380, .F. ) ;
#501 = AXIS2_PLACEMENT_3D ( 'NONE', #374, #119, #730 ) ;
#502 = LINE ( 'NONE', #45, #33 ) ;
#503 = DIRECTION ( 'NONE',  ( -0.000000000000000000, -0.000000000000000000, 1.000000000000000000 ) ) ;
#504 = AXIS2_PLACEMENT_3D ( 'NONE', #694, #342, #528 ) ;
#505 = ORIENTED_EDGE ( 'NONE', *, *, #176, .T. ) ;
#506 = ADVANCED_FACE ( 'NONE', ( #1153 ), #75, .F. ) ;
#507 = DIRECTION ( 'NONE',  ( -0.000000000000000000, -0.000000000000000000, 1.000000000000000000 ) ) ;
#508 = FACE_OUTER_BOUND ( 'NONE', #1081, .T. ) ;
#509 = DIRECTION ( 'NONE',  ( 0.000000000000000000, -1.000000000000000000, 0.000000000000000000 ) ) ;
#510 = ORIENTED_EDGE ( 'NONE', *, *, #36, .T. ) ;
#511 = DIRECTION ( 'NONE',  ( 1.000000000000000000, 0.000000000000000000, 0.000000000000000000 ) ) ;
#512 = ADVANCED_FACE ( 'NONE', ( #330 ), #347, .F. ) ;
#513 = CARTESIAN_POINT ( 'NONE',  ( 43.00000000000000711, 8.000000000000000000, 1.500000000000000000 ) ) ;
#514 = EDGE_CURVE ( 'NONE', #227, #55, #689, .T. ) ;
#515 = LINE ( 'NONE', #410, #725 ) ;
#516 = ORIENTED_EDGE ( 'NONE', *, *, #640, .F. ) ;
#517 = DIRECTION ( 'NONE',  ( 1.000000000000000000, 0.000000000000000000, 0.000000000000000000 ) ) ;
#518 = AXIS2_PLACEMENT_3D ( 'NONE', #381, #366, #717 ) ;
#519 = LINE ( 'NONE', #1059, #1159 ) ;
#520 = AXIS2_PLACEMENT_3D ( 'NONE', #7, #553, #364 ) ;
#521 = ADVANCED_FACE ( 'NONE', ( #604 ), #1054, .F. ) ;
#522 = VECTOR ( 'NONE', #826, 1000.000000000000000 ) ;
#523 = LINE ( 'NONE', #606, #350 ) ;
#524 = EDGE_LOOP ( 'NONE', ( #661, #317, #696, #356 ) ) ;
#525 = DIRECTION ( 'NONE',  ( 1.000000000000000000, 0.000000000000000000, 0.000000000000000000 ) ) ;
#526 = LINE ( 'NONE', #994, #1108 ) ;
#527 = ORIENTED_EDGE ( 'NONE', *, *, #36, .F. ) ;
#528 = DIRECTION ( 'NONE',  ( 1.000000000000000000, 0.000000000000000000, 0.000000000000000000 ) ) ;
#529 = FACE_BOUND ( 'NONE', #334, .T. ) ;
#530 = VERTEX_POINT ( 'NONE', #86 ) ;
#531 = CARTESIAN_POINT ( 'NONE',  ( 43.00000000000000711, -8.000000000000000000, -2.000000000000000000 ) ) ;
#532 = ADVANCED_FACE ( 'NONE', ( #440 ), #799, .F. ) ;
#533 = EDGE_LOOP ( 'NONE', ( #952, #743, #448, #47 ) ) ;
#534 = DIRECTION ( 'NONE',  ( -0.000000000000000000, -0.000000000000000000, 1.000000000000000000 ) ) ;
#535 = CIRCLE ( 'NONE', #593, 5.000000000000000888 ) ;
#536 = AXIS2_PLACEMENT_3D ( 'NONE', #996, #110, #1100 ) ;
#537 = CARTESIAN_POINT ( 'NONE',  ( -43.00000000000000000, -18.00000000000000355, 1.500000000000000000 ) ) ;
#538 = VECTOR ( 'NONE', #724, 1000.000000000000000 ) ;
#539 = VECTOR ( 'NONE', #904, 1000.000000000000000 ) ;
#540 = EDGE_LOOP ( 'NONE', ( #65, #737, #588, #413 ) ) ;
#541 = FACE_OUTER_BOUND ( 'NONE', #161, .T. ) ;
#542 = ADVANCED_FACE ( 'NONE', ( #831 ), #999, .F. ) ;
#543 = AXIS2_PLACEMENT_3D ( 'NONE', #349, #895, #1072 ) ;
#544 = CARTESIAN_POINT ( 'NONE',  ( -43.00000000000000000, 8.000000000000000000, 1.500000000000000000 ) ) ;
#545 = DIRECTION ( 'NONE',  ( 0.000000000000000000, 0.000000000000000000, 1.000000000000000000 ) ) ;
#546 = VERTEX_POINT ( 'NONE', #899 ) ;
#547 = LINE ( 'NONE', #104, #238 ) ;
#548 = EDGE_LOOP ( 'NONE', ( #127, #280, #681, #564 ) ) ;
#549 = DIRECTION ( 'NONE',  ( 0.000000000000000000, 0.000000000000000000, 1.000000000000000000 ) ) ;
#550 = ADVANCED_FACE ( 'NONE', ( #385 ), #1085, .F. ) ;
#551 = LINE ( 'NONE', #906, #449 ) ;
#552 = ORIENTED_EDGE ( 'NONE', *, *, #41, .F. ) ;
#553 = DIRECTION ( 'NONE',  ( -0.000000000000000000, -0.000000000000000000, -1.000000000000000000 ) ) ;
#554 = ORIENTED_EDGE ( 'NONE', *, *, #965, .T. ) ;
#555 = CARTESIAN_POINT ( 'NONE',  ( -26.35094001659691898, -7.499999999999995559, -2.000000000000000000 ) ) ;
#556 = MECHANICAL_DESIGN_GEOMETRIC_PRESENTATION_REPRESENTATION (  '', ( #929 ), #969 ) ;
#557 = EDGE_CURVE ( 'NONE', #693, #257, #27, .T. ) ;
#558 = DIRECTION ( 'NONE',  ( -0.000000000000000000, -0.000000000000000000, -1.000000000000000000 ) ) ;
#559 = ORIENTED_EDGE ( 'NONE', *, *, #646, .T. ) ;
#560 = LINE ( 'NONE', #1009, #484 ) ;
#561 = ORIENTED_EDGE ( 'NONE', *, *, #1151, .F. ) ;
#562 = DIRECTION ( 'NONE',  ( -0.000000000000000000, -0.000000000000000000, -1.000000000000000000 ) ) ;
#563 = FACE_OUTER_BOUND ( 'NONE', #669, .T. ) ;
#564 = ORIENTED_EDGE ( 'NONE', *, *, #706, .F. ) ;
#565 = ORIENTED_EDGE ( 'NONE', *, *, #1151, .T. ) ;
#566 = CYLINDRICAL_SURFACE ( 'NONE', #388, 10.00000000000000178 ) ;
#567 = LINE ( 'NONE', #1104, #878 ) ;
#568 = ORIENTED_EDGE ( 'NONE', *, *, #1080, .T. ) ;
#569 = ORIENTED_EDGE ( 'NONE', *, *, #1071, .T. ) ;
#570 = ADVANCED_FACE ( 'NONE', ( #1102 ), #735, .F. ) ;
#571 = LINE ( 'NONE', #770, #818 ) ;
#572 = VECTOR ( 'NONE', #941, 1000.000000000000000 ) ;
#573 = ORIENTED_EDGE ( 'NONE', *, *, #254, .T. ) ;
#574 = PLANE ( 'NONE',  #60 ) ;
#575 = AXIS2_PLACEMENT_3D ( 'NONE', #733, #987, #889 ) ;
#576 = ORIENTED_EDGE ( 'NONE', *, *, #692, .F. ) ;
#577 = DIRECTION ( 'NONE',  ( -1.000000000000000000, 0.000000000000000000, 0.000000000000000000 ) ) ;
#578 = VECTOR ( 'NONE', #456, 1000.000000000000000 ) ;
#579 = ADVANCED_FACE ( 'NONE', ( #450 ), #296, .F. ) ;
#580 = ORIENTED_EDGE ( 'NONE', *, *, #798, .F. ) ;
#581 = PLANE ( 'NONE',  #284 ) ;
#582 = ORIENTED_EDGE ( 'NONE', *, *, #967, .F. ) ;
#583 = DIRECTION ( 'NONE',  ( 1.000000000000000000, 0.000000000000000000, 0.000000000000000000 ) ) ;
#584 = EDGE_CURVE ( 'NONE', #1156, #250, #294, .T. ) ;
#585 = EDGE_CURVE ( 'NONE', #173, #78, #22, .T. ) ;
#586 = CARTESIAN_POINT ( 'NONE',  ( -43.00000000000000000, -8.000000000000000000, -2.000000000000000000 ) ) ;
#587 = DIRECTION ( 'NONE',  ( 0.000000000000000000, 0.000000000000000000, -1.000000000000000000 ) ) ;
#588 = ORIENTED_EDGE ( 'NONE', *, *, #989, .T. ) ;
#589 = DIRECTION ( 'NONE',  ( -0.000000000000000000, -0.000000000000000000, -1.000000000000000000 ) ) ;
#590 = CARTESIAN_POINT ( 'NONE',  ( 26.35094001659691898, 12.50000000000000355, -4.750000000000000888 ) ) ;
#591 = EDGE_CURVE ( 'NONE', #666, #245, #68, .T. ) ;
#592 = DIRECTION ( 'NONE',  ( 1.000000000000000000, -0.000000000000000000, 0.000000000000000000 ) ) ;
#593 = AXIS2_PLACEMENT_3D ( 'NONE', #780, #247, #511 ) ;
#594 = ORIENTED_EDGE ( 'NONE', *, *, #254, .F. ) ;
#595 = DIRECTION ( 'NONE',  ( 0.000000000000000000, 0.000000000000000000, 1.000000000000000000 ) ) ;
#596 = LINE ( 'NONE', #210, #800 ) ;
#597 = AXIS2_PLACEMENT_3D ( 'NONE', #612, #968, #416 ) ;
#598 = AXIS2_PLACEMENT_3D ( 'NONE', #766, #558, #1127 ) ;
#599 = CIRCLE ( 'NONE', #893, 4.999999999999997335 ) ;
#600 = FACE_OUTER_BOUND ( 'NONE', #359, .T. ) ;
#601 = ADVANCED_FACE ( 'NONE', ( #113 ), #566, .T. ) ;
#602 = EDGE_LOOP ( 'NONE', ( #292, #422, #112, #352 ) ) ;
#603 = DIRECTION ( 'NONE',  ( 0.000000000000000000, 0.000000000000000000, 1.000000000000000000 ) ) ;
#604 = FACE_OUTER_BOUND ( 'NONE', #1076, .T. ) ;
#605 = VECTOR ( 'NONE', #655, 1000.000000000000000 ) ;
#606 = CARTESIAN_POINT ( 'NONE',  ( 43.00000000000000711, 15.00000000000000000, -2.000000000000000000 ) ) ;
#607 = VERTEX_POINT ( 'NONE', #1096 ) ;
#608 = CARTESIAN_POINT ( 'NONE',  ( 43.00000000000000711, 17.99999999999999645, 1.500000000000000000 ) ) ;
#609 = ADVANCED_FACE ( 'NONE', ( #817 ), #807, .F. ) ;
#610 = DIRECTION ( 'NONE',  ( 1.000000000000000000, 0.000000000000000000, 0.000000000000000000 ) ) ;
#611 = PRODUCT ( 'Light_ver1', 'Light_ver1', '', ( #483 ) ) ;
#612 = CARTESIAN_POINT ( 'NONE',  ( -26.35094001659691898, 7.500000000000006217, 1.499999999999999556 ) ) ;
#613 = ORIENTED_EDGE ( 'NONE', *, *, #164, .T. ) ;
#614 = FILL_AREA_STYLE_COLOUR ( '', #441 ) ;
#615 = AXIS2_PLACEMENT_3D ( 'NONE', #74, #960, #79 ) ;
#616 = FACE_OUTER_BOUND ( 'NONE', #927, .T. ) ;
#617 = CARTESIAN_POINT ( 'NONE',  ( -43.00000000000000000, 18.00000000000000355, 1.500000000000000000 ) ) ;
#618 = ORIENTED_EDGE ( 'NONE', *, *, #640, .T. ) ;
#619 = CARTESIAN_POINT ( 'NONE',  ( -46.35094001659692253, -7.499999999999995559, -4.750000000000000888 ) ) ;
#620 = CYLINDRICAL_SURFACE ( 'NONE', #167, 6.999999999999992006 ) ;
#621 = ADVANCED_FACE ( 'NONE', ( #3 ), #285, .F. ) ;
#622 = CARTESIAN_POINT ( 'NONE',  ( -53.00000000000000711, 7.999999999999991118, 1.500000000000000000 ) ) ;
#623 = ORIENTED_EDGE ( 'NONE', *, *, #1124, .T. ) ;
#624 = CARTESIAN_POINT ( 'NONE',  ( 21.35094001659691187, 8.000000000000000000, -2.000000000000000000 ) ) ;
#625 = VERTEX_POINT ( 'NONE', #1011 ) ;
#626 = LINE ( 'NONE', #984, #954 ) ;
#627 = FACE_OUTER_BOUND ( 'NONE', #540, .T. ) ;
#628 = ADVANCED_FACE ( 'NONE', ( #209, #1078 ), #203, .F. ) ;
#629 = ORIENTED_EDGE ( 'NONE', *, *, #252, .T. ) ;
#630 = DIRECTION ( 'NONE',  ( -0.000000000000000000, -0.000000000000000000, -1.000000000000000000 ) ) ;
#631 = ORIENTED_EDGE ( 'NONE', *, *, #361, .T. ) ;
#632 = LINE ( 'NONE', #100, #856 ) ;
#633 = VECTOR ( 'NONE', #562, 1000.000000000000000 ) ;
#634 = VECTOR ( 'NONE', #281, 1000.000000000000000 ) ;
#635 = CARTESIAN_POINT ( 'NONE',  ( -26.35094001659691898, -12.49999999999999467, -2.000000000000000000 ) ) ;
#636 = AXIS2_PLACEMENT_3D ( 'NONE', #808, #451, #731 ) ;
#637 = VERTEX_POINT ( 'NONE', #645 ) ;
#638 = PLANE ( 'NONE',  #741 ) ;
#639 = ORIENTED_EDGE ( 'NONE', *, *, #703, .F. ) ;
#640 = EDGE_CURVE ( 'NONE', #546, #73, #632, .T. ) ;
#641 = DIRECTION ( 'NONE',  ( -0.000000000000000000, -0.000000000000000000, -1.000000000000000000 ) ) ;
#642 = LINE ( 'NONE', #172, #578 ) ;
#643 = ORIENTED_EDGE ( 'NONE', *, *, #4, .F. ) ;
#644 = LINE ( 'NONE', #1094, #35 ) ;
#645 = CARTESIAN_POINT ( 'NONE',  ( 43.00000000000000711, 17.99999999999999645, 1.500000000000000000 ) ) ;
#646 = EDGE_CURVE ( 'NONE', #459, #760, #1004, .T. ) ;
#647 = PLANE ( 'NONE',  #17 ) ;
#648 = ORIENTED_EDGE ( 'NONE', *, *, #974, .F. ) ;
#649 = CARTESIAN_POINT ( 'NONE',  ( -50.00000000000000000, 7.999999999999992895, -2.000000000000000000 ) ) ;
#650 = DIRECTION ( 'NONE',  ( 0.000000000000000000, 0.000000000000000000, 1.000000000000000000 ) ) ;
#651 = EDGE_CURVE ( 'NONE', #925, #196, #319, .T. ) ;
#652 = PLANE ( 'NONE',  #316 ) ;
#653 = VERTEX_POINT ( 'NONE', #49 ) ;
#654 = VECTOR ( 'NONE', #343, 1000.000000000000000 ) ;
#655 = DIRECTION ( 'NONE',  ( 0.000000000000000000, 1.000000000000000000, -0.000000000000000000 ) ) ;
#656 = ORIENTED_EDGE ( 'NONE', *, *, #164, .F. ) ;
#657 = CARTESIAN_POINT ( 'NONE',  ( -41.35094001659692253, -12.49999999999999289, -4.750000000000000888 ) ) ;
#658 = CIRCLE ( 'NONE', #636, 5.000000000000000888 ) ;
#659 = CARTESIAN_POINT ( 'NONE',  ( 43.00000000000000711, 8.000000000000000000, 0.000000000000000000 ) ) ;
#660 = ORIENTED_EDGE ( 'NONE', *, *, #665, .T. ) ;
#661 = ORIENTED_EDGE ( 'NONE', *, *, #845, .F. ) ;
#662 = CARTESIAN_POINT ( 'NONE',  ( -43.00000000000000000, 8.000000000000000000, -2.000000000000000000 ) ) ;
#663 = VERTEX_POINT ( 'NONE', #398 ) ;
#664 = LINE ( 'NONE', #670, #677 ) ;
#665 = EDGE_CURVE ( 'NONE', #663, #914, #571, .T. ) ;
#666 = VERTEX_POINT ( 'NONE', #1119 ) ;
#667 = LINE ( 'NONE', #402, #722 ) ;
#668 = CIRCLE ( 'NONE', #255, 4.999999999999997335 ) ;
#669 = EDGE_LOOP ( 'NONE', ( #940, #157, #715, #1036 ) ) ;
#670 = CARTESIAN_POINT ( 'NONE',  ( 41.35094001659692253, -12.49999999999997691, -4.750000000000000888 ) ) ;
#671 = VERTEX_POINT ( 'NONE', #314 ) ;
#672 = FACE_OUTER_BOUND ( 'NONE', #602, .T. ) ;
#673 = ORIENTED_EDGE ( 'NONE', *, *, #514, .T. ) ;
#674 = FACE_OUTER_BOUND ( 'NONE', #754, .T. ) ;
#675 = ORIENTED_EDGE ( 'NONE', *, *, #107, .F. ) ;
#676 = DIRECTION ( 'NONE',  ( 1.000000000000000000, 3.469446951953613696E-16, -0.000000000000000000 ) ) ;
#677 = VECTOR ( 'NONE', #293, 1000.000000000000000 ) ;
#678 = DIRECTION ( 'NONE',  ( 0.000000000000000000, -1.000000000000000000, 0.000000000000000000 ) ) ;
#679 = ADVANCED_FACE ( 'NONE', ( #672 ), #308, .F. ) ;
#680 = CARTESIAN_POINT ( 'NONE',  ( -50.00000000000000000, -8.000000000000000000, -2.000000000000000000 ) ) ;
#681 = ORIENTED_EDGE ( 'NONE', *, *, #871, .T. ) ;
#682 = CARTESIAN_POINT ( 'NONE',  ( 53.00000000000000711, -8.000000000000000000, 1.500000000000000000 ) ) ;
#683 = CARTESIAN_POINT ( 'NONE',  ( 50.00000000000000000, 8.000000000000000000, -2.000000000000000000 ) ) ;
#684 = EDGE_CURVE ( 'NONE', #625, #396, #51, .T. ) ;
#685 = FACE_OUTER_BOUND ( 'NONE', #919, .T. ) ;
#686 = VECTOR ( 'NONE', #935, 1000.000000000000000 ) ;
#687 = VERTEX_POINT ( 'NONE', #928 ) ;
#688 = CARTESIAN_POINT ( 'NONE',  ( -43.00000000000000000, -15.00000000000000000, -2.000000000000000000 ) ) ;
#689 = LINE ( 'NONE', #961, #351 ) ;
#690 = VECTOR ( 'NONE', #509, 1000.000000000000000 ) ;
#691 = DIRECTION ( 'NONE',  ( 0.000000000000000000, -1.000000000000000000, 0.000000000000000000 ) ) ;
#692 = EDGE_CURVE ( 'NONE', #991, #530, #948, .T. ) ;
#693 = VERTEX_POINT ( 'NONE', #479 ) ;
#694 = CARTESIAN_POINT ( 'NONE',  ( 26.35094001659691898, 7.500000000000007105, -4.750000000000000888 ) ) ;
#695 = CARTESIAN_POINT ( 'NONE',  ( -53.00000000000000711, 7.999999999999991118, 1.500000000000000000 ) ) ;
#696 = ORIENTED_EDGE ( 'NONE', *, *, #974, .T. ) ;
#697 = EDGE_CURVE ( 'NONE', #405, #371, #667, .T. ) ;
#698 = FILL_AREA_STYLE ('',( #614 ) ) ;
#699 = CARTESIAN_POINT ( 'NONE',  ( -50.00000000000000000, 7.999999999999992895, -2.000000000000000000 ) ) ;
#700 = CARTESIAN_POINT ( 'NONE',  ( -46.35094001659692253, 7.500000000000006217, 1.499999999999999556 ) ) ;
#701 = VERTEX_POINT ( 'NONE', #57 ) ;
#702 = CARTESIAN_POINT ( 'NONE',  ( -41.35094001659692253, -7.499999999999995559, 1.499999999999999556 ) ) ;
#703 = EDGE_CURVE ( 'NONE', #257, #78, #1066, .T. ) ;
#704 = CIRCLE ( 'NONE', #202, 5.000000000000004441 ) ;
#705 = DIRECTION ( 'NONE',  ( 0.000000000000000000, -1.000000000000000000, 0.000000000000000000 ) ) ;
#706 = EDGE_CURVE ( 'NONE', #827, #126, #1044, .T. ) ;
#707 = CIRCLE ( 'NONE', #393, 6.999999999999999112 ) ;
#708 = AXIS2_PLACEMENT_3D ( 'NONE', #425, #712, #180 ) ;
#709 = LINE ( 'NONE', #617, #1086 ) ;
#710 = ORIENTED_EDGE ( 'NONE', *, *, #921, .T. ) ;
#711 = CARTESIAN_POINT ( 'NONE',  ( 26.35094001659691898, -7.499999999999986677, 1.499999999999999556 ) ) ;
#712 = DIRECTION ( 'NONE',  ( -0.000000000000000000, -0.000000000000000000, -1.000000000000000000 ) ) ;
#713 = EDGE_CURVE ( 'NONE', #245, #671, #1130, .T. ) ;
#714 = CARTESIAN_POINT ( 'NONE',  ( -26.35094001659691898, 12.50000000000000355, -2.000000000000000000 ) ) ;
#715 = ORIENTED_EDGE ( 'NONE', *, *, #171, .T. ) ;
#716 = CARTESIAN_POINT ( 'NONE',  ( 43.00000000000000711, 8.000000000000000000, -2.000000000000000000 ) ) ;
#717 = DIRECTION ( 'NONE',  ( -1.000000000000000000, -2.312964634635742464E-16, 0.000000000000000000 ) ) ;
#718 = CARTESIAN_POINT ( 'NONE',  ( 26.35094001659691543, 12.50000000000000355, -2.000000000000000000 ) ) ;
#719 = ORIENTED_EDGE ( 'NONE', *, *, #921, .F. ) ;
#720 = CARTESIAN_POINT ( 'NONE',  ( 53.00000000000000711, 8.000000000000000000, 0.000000000000000000 ) ) ;
#721 = DIRECTION ( 'NONE',  ( -1.000000000000000000, 0.000000000000000000, 0.000000000000000000 ) ) ;
#722 = VECTOR ( 'NONE', #595, 1000.000000000000000 ) ;
#723 = AXIS2_PLACEMENT_3D ( 'NONE', #1068, #418, #517 ) ;
#724 = DIRECTION ( 'NONE',  ( 1.000000000000000000, -1.156482317317871232E-16, 0.000000000000000000 ) ) ;
#725 = VECTOR ( 'NONE', #857, 1000.000000000000000 ) ;
#726 = ORIENTED_EDGE ( 'NONE', *, *, #1058, .T. ) ;
#727 = DIRECTION ( 'NONE',  ( 1.000000000000000000, 0.000000000000000000, 0.000000000000000000 ) ) ;
#728 = EDGE_CURVE ( 'NONE', #177, #1024, #668, .T. ) ;
#729 = VERTEX_POINT ( 'NONE', #392 ) ;
#730 = DIRECTION ( 'NONE',  ( 1.000000000000000000, 0.000000000000000000, 0.000000000000000000 ) ) ;
#731 = DIRECTION ( 'NONE',  ( -1.000000000000000000, 0.000000000000000000, 0.000000000000000000 ) ) ;
#732 = ORIENTED_EDGE ( 'NONE', *, *, #1041, .F. ) ;
#733 = CARTESIAN_POINT ( 'NONE',  ( -43.00000000000000000, -15.00000000000000000, -2.000000000000000000 ) ) ;
#734 = ORIENTED_EDGE ( 'NONE', *, *, #246, .F. ) ;
#735 = PLANE ( 'NONE',  #518 ) ;
#736 = DIRECTION ( 'NONE',  ( -1.000000000000000000, 0.000000000000000000, 0.000000000000000000 ) ) ;
#737 = ORIENTED_EDGE ( 'NONE', *, *, #697, .F. ) ;
#738 = DIRECTION ( 'NONE',  ( 1.000000000000000000, 0.000000000000000000, 0.000000000000000000 ) ) ;
#739 = ORIENTED_EDGE ( 'NONE', *, *, #217, .T. ) ;
#740 = CARTESIAN_POINT ( 'NONE',  ( -26.35094001659691898, 7.500000000000006217, -4.750000000000000888 ) ) ;
#741 = AXIS2_PLACEMENT_3D ( 'NONE', #805, #357, #192 ) ;
#742 = DIRECTION ( 'NONE',  ( 0.000000000000000000, 1.000000000000000000, 0.000000000000000000 ) ) ;
#743 = ORIENTED_EDGE ( 'NONE', *, *, #798, .T. ) ;
#744 = FACE_OUTER_BOUND ( 'NONE', #548, .T. ) ;
#745 = VECTOR ( 'NONE', #1064, 1000.000000000000000 ) ;
#746 = ORIENTED_EDGE ( 'NONE', *, *, #266, .F. ) ;
#747 = CARTESIAN_POINT ( 'NONE',  ( -43.00000000000000000, -8.000000000000000000, -2.000000000000000000 ) ) ;
#748 = AXIS2_PLACEMENT_3D ( 'NONE', #695, #1050, #943 ) ;
#749 = ADVANCED_FACE ( 'NONE', ( #303 ), #407, .T. ) ;
#750 = VERTEX_POINT ( 'NONE', #142 ) ;
#751 = CARTESIAN_POINT ( 'NONE',  ( 21.35094001659691543, 7.500000000000007105, -2.000000000000000000 ) ) ;
#752 = ORIENTED_EDGE ( 'NONE', *, *, #4, .T. ) ;
#753 = DIRECTION ( 'NONE',  ( 1.000000000000000000, -8.068481283613054562E-17, 0.000000000000000000 ) ) ;
#754 = EDGE_LOOP ( 'NONE', ( #937, #429, #262, #365 ) ) ;
#755 = CYLINDRICAL_SURFACE ( 'NONE', #1000, 10.00000000000000178 ) ;
#756 = EDGE_CURVE ( 'NONE', #173, #191, #497, .T. ) ;
#757 = EDGE_LOOP ( 'NONE', ( #103, #234, #552, #1033 ) ) ;
#758 = DIRECTION ( 'NONE',  ( 1.000000000000000000, 0.000000000000000000, 0.000000000000000000 ) ) ;
#759 = AXIS2_PLACEMENT_3D ( 'NONE', #129, #855, #583 ) ;
#760 = VERTEX_POINT ( 'NONE', #40 ) ;
#761 = LINE ( 'NONE', #490, #605 ) ;
#762 = ORIENTED_EDGE ( 'NONE', *, *, #420, .F. ) ;
#763 = EDGE_CURVE ( 'NONE', #245, #546, #946, .T. ) ;
#764 = CARTESIAN_POINT ( 'NONE',  ( 43.00000000000000711, -12.49999999999997691, 1.500000000000000000 ) ) ;
#765 = AXIS2_PLACEMENT_3D ( 'NONE', #740, #811, #825 ) ;
#766 = CARTESIAN_POINT ( 'NONE',  ( -26.35094001659691898, 7.500000000000006217, -2.000000000000000000 ) ) ;
#767 = DIRECTION ( 'NONE',  ( 0.000000000000000000, 0.000000000000000000, -1.000000000000000000 ) ) ;
#768 = PLANE ( 'NONE',  #183 ) ;
#769 = ORIENTED_EDGE ( 'NONE', *, *, #306, .F. ) ;
#770 = CARTESIAN_POINT ( 'NONE',  ( -43.00000000000000000, 18.00000000000000355, 0.000000000000000000 ) ) ;
#771 = DIRECTION ( 'NONE',  ( -0.000000000000000000, -0.000000000000000000, -1.000000000000000000 ) ) ;
#772 = CARTESIAN_POINT ( 'NONE',  ( -46.35094001659692253, -8.000000000000000000, 1.500000000000000000 ) ) ;
#773 = ORIENTED_EDGE ( 'NONE', *, *, #85, .T. ) ;
#774 = SURFACE_STYLE_FILL_AREA ( #698 ) ;
#775 = UNCERTAINTY_MEASURE_WITH_UNIT (LENGTH_MEASURE( 1.000000000000000082E-05 ), #869, 'distance_accuracy_value', 'NONE');
#776 = DIRECTION ( 'NONE',  ( 0.000000000000000000, -1.000000000000000000, 0.000000000000000000 ) ) ;
#777 = EDGE_CURVE ( 'NONE', #55, #250, #1110, .T. ) ;
#778 = CARTESIAN_POINT ( 'NONE',  ( -43.00000000000000000, -18.00000000000000355, 0.000000000000000000 ) ) ;
#779 = ORIENTED_EDGE ( 'NONE', *, *, #493, .F. ) ;
#780 = CARTESIAN_POINT ( 'NONE',  ( -26.35094001659691898, -7.499999999999995559, 1.499999999999999556 ) ) ;
#781 = DIRECTION ( 'NONE',  ( -0.000000000000000000, -0.000000000000000000, -1.000000000000000000 ) ) ;
#782 = VECTOR ( 'NONE', #150, 1000.000000000000000 ) ;
#783 = EDGE_CURVE ( 'NONE', #530, #864, #136, .T. ) ;
#784 = DIRECTION ( 'NONE',  ( 1.000000000000000000, 0.000000000000000000, -0.000000000000000000 ) ) ;
#785 = ORIENTED_EDGE ( 'NONE', *, *, #858, .T. ) ;
#786 = SURFACE_STYLE_USAGE ( .BOTH. , #328 ) ;
#787 = UNCERTAINTY_MEASURE_WITH_UNIT (LENGTH_MEASURE( 1.000000000000000082E-05 ), #404, 'distance_accuracy_value', 'NONE');
#788 = CARTESIAN_POINT ( 'NONE',  ( 43.00000000000000711, 8.000000000000000000, -2.000000000000000000 ) ) ;
#789 = AXIS2_PLACEMENT_3D ( 'NONE', #1112, #853, #920 ) ;
#790 = FACE_BOUND ( 'NONE', #995, .T. ) ;
#791 = SHAPE_DEFINITION_REPRESENTATION ( #190, #1045 ) ;
#792 = ORIENTED_EDGE ( 'NONE', *, *, #217, .F. ) ;
#793 = CARTESIAN_POINT ( 'NONE',  ( -53.00000000000000711, -8.000000000000000000, 1.500000000000000000 ) ) ;
#794 = CARTESIAN_POINT ( 'NONE',  ( 46.35094001659692964, 8.000000000000000000, -2.000000000000000000 ) ) ;
#795 = DIRECTION ( 'NONE',  ( -1.000000000000000000, -2.312964634635742464E-16, 0.000000000000000000 ) ) ;
#796 = ORIENTED_EDGE ( 'NONE', *, *, #591, .F. ) ;
#797 = CIRCLE ( 'NONE', #615, 6.999999999999992006 ) ;
#798 = EDGE_CURVE ( 'NONE', #196, #750, #502, .T. ) ;
#799 = CYLINDRICAL_SURFACE ( 'NONE', #765, 5.000000000000000888 ) ;
#800 = VECTOR ( 'NONE', #678, 1000.000000000000000 ) ;
#801 = VECTOR ( 'NONE', #1098, 1000.000000000000000 ) ;
#802 = CARTESIAN_POINT ( 'NONE',  ( 43.00000000000000711, -8.000000000000000000, -2.000000000000000000 ) ) ;
#803 = VECTOR ( 'NONE', #795, 1000.000000000000000 ) ;
#804 = ORIENTED_EDGE ( 'NONE', *, *, #370, .T. ) ;
#805 = CARTESIAN_POINT ( 'NONE',  ( -43.00000000000000000, -18.00000000000000355, 1.500000000000000000 ) ) ;
#806 = VERTEX_POINT ( 'NONE', #263 ) ;
#807 = CYLINDRICAL_SURFACE ( 'NONE', #501, 4.999999999999997335 ) ;
#808 = CARTESIAN_POINT ( 'NONE',  ( 26.35094001659691898, 7.500000000000007105, -2.000000000000000000 ) ) ;
#809 = ORIENTED_EDGE ( 'NONE', *, *, #837, .F. ) ;
#810 = DIRECTION ( 'NONE',  ( 0.000000000000000000, 1.000000000000000000, 0.000000000000000000 ) ) ;
#811 = DIRECTION ( 'NONE',  ( -0.000000000000000000, -0.000000000000000000, 1.000000000000000000 ) ) ;
#812 = MANIFOLD_SOLID_BREP ( 'Cut-Extrude2', #91 ) ;
#813 = EDGE_CURVE ( 'NONE', #846, #42, #886, .T. ) ;
#814 = CARTESIAN_POINT ( 'NONE',  ( 53.00000000000000711, -8.000000000000000000, 0.000000000000000000 ) ) ;
#815 = ORIENTED_EDGE ( 'NONE', *, *, #377, .T. ) ;
#816 = DIRECTION ( 'NONE',  ( 0.000000000000000000, 0.000000000000000000, 1.000000000000000000 ) ) ;
#817 = FACE_OUTER_BOUND ( 'NONE', #283, .T. ) ;
#818 = VECTOR ( 'NONE', #753, 1000.000000000000000 ) ;
#819 = DIRECTION ( 'NONE',  ( 0.000000000000000000, 0.000000000000000000, 1.000000000000000000 ) ) ;
#820 = AXIS2_PLACEMENT_3D ( 'NONE', #174, #1069, #887 ) ;
#821 = EDGE_CURVE ( 'NONE', #475, #322, #242, .T. ) ;
#822 = EDGE_LOOP ( 'NONE', ( #656, #1002, #277, #1067 ) ) ;
#823 = CARTESIAN_POINT ( 'NONE',  ( 43.00000000000000711, 8.000000000000000000, 1.500000000000000000 ) ) ;
#824 = ORIENTED_EDGE ( 'NONE', *, *, #137, .F. ) ;
#825 = DIRECTION ( 'NONE',  ( 1.000000000000000000, 0.000000000000000000, 0.000000000000000000 ) ) ;
#826 = DIRECTION ( 'NONE',  ( 1.000000000000000000, 8.068481283613054562E-17, 0.000000000000000000 ) ) ;
#827 = VERTEX_POINT ( 'NONE', #66 ) ;
#828 = LINE ( 'NONE', #624, #1029 ) ;
#829 = ORIENTED_EDGE ( 'NONE', *, *, #651, .F. ) ;
#830 = EDGE_CURVE ( 'NONE', #637, #914, #430, .T. ) ;
#831 = FACE_OUTER_BOUND ( 'NONE', #898, .T. ) ;
#832 = DIRECTION ( 'NONE',  ( -1.000000000000000000, 8.068481283613054562E-17, 0.000000000000000000 ) ) ;
#833 = ORIENTED_EDGE ( 'NONE', *, *, #171, .F. ) ;
#834 = DIRECTION ( 'NONE',  ( 0.000000000000000000, 0.000000000000000000, 1.000000000000000000 ) ) ;
#835 = ORIENTED_EDGE ( 'NONE', *, *, #905, .F. ) ;
#836 = CARTESIAN_POINT ( 'NONE',  ( 46.35094001659692253, 7.500000000000012434, -4.750000000000000888 ) ) ;
#837 = EDGE_CURVE ( 'NONE', #1038, #250, #1147, .T. ) ;
#838 = VECTOR ( 'NONE', #134, 1000.000000000000000 ) ;
#839 = DIRECTION ( 'NONE',  ( 0.000000000000000000, 0.000000000000000000, 1.000000000000000000 ) ) ;
#840 = ORIENTED_EDGE ( 'NONE', *, *, #282, .T. ) ;
#841 = AXIS2_PLACEMENT_3D ( 'NONE', #189, #5, #102 ) ;
#842 = APPLICATION_PROTOCOL_DEFINITION ( 'draft international standard', 'automotive_design', 1998, #412 ) ;
#843 = ORIENTED_EDGE ( 'NONE', *, *, #837, .T. ) ;
#844 = DIRECTION ( 'NONE',  ( 1.000000000000000000, 8.068481283613054562E-17, 0.000000000000000000 ) ) ;
#845 = EDGE_CURVE ( 'NONE', #1134, #806, #797, .T. ) ;
#846 = VERTEX_POINT ( 'NONE', #353 ) ;
#847 = CARTESIAN_POINT ( 'NONE',  ( 46.35094001659692253, -7.499999999999981348, -4.750000000000000888 ) ) ;
#848 = CIRCLE ( 'NONE', #789, 5.000000000000004441 ) ;
#849 = ORIENTED_EDGE ( 'NONE', *, *, #514, .F. ) ;
#850 = DIRECTION ( 'NONE',  ( 0.000000000000000000, 0.000000000000000000, 1.000000000000000000 ) ) ;
#851 = EDGE_CURVE ( 'NONE', #304, #459, #988, .T. ) ;
#852 = ORIENTED_EDGE ( 'NONE', *, *, #997, .F. ) ;
#853 = DIRECTION ( 'NONE',  ( -0.000000000000000000, -0.000000000000000000, -1.000000000000000000 ) ) ;
#854 = ORIENTED_EDGE ( 'NONE', *, *, #306, .T. ) ;
#855 = DIRECTION ( 'NONE',  ( 0.000000000000000000, 0.000000000000000000, 1.000000000000000000 ) ) ;
#856 = VECTOR ( 'NONE', #8, 1000.000000000000000 ) ;
#857 = DIRECTION ( 'NONE',  ( 1.000000000000000000, 0.000000000000000000, 0.000000000000000000 ) ) ;
#858 = EDGE_CURVE ( 'NONE', #701, #607, #977, .T. ) ;
#859 = ORIENTED_EDGE ( 'NONE', *, *, #845, .T. ) ;
#860 = DIRECTION ( 'NONE',  ( -0.000000000000000000, -0.000000000000000000, 1.000000000000000000 ) ) ;
#861 = VECTOR ( 'NONE', #115, 1000.000000000000000 ) ;
#862 = FACE_OUTER_BOUND ( 'NONE', #222, .T. ) ;
#863 = FACE_BOUND ( 'NONE', #339, .T. ) ;
#864 = VERTEX_POINT ( 'NONE', #1152 ) ;
#865 = LINE ( 'NONE', #158, #911 ) ;
#866 = PLANE ( 'NONE',  #299 ) ;
#867 = PLANE ( 'NONE',  #993 ) ;
#868 = ORIENTED_EDGE ( 'NONE', *, *, #341, .T. ) ;
#869 =( LENGTH_UNIT ( ) NAMED_UNIT ( * ) SI_UNIT ( .MILLI., .METRE. ) );
#870 = CARTESIAN_POINT ( 'NONE',  ( -46.35094001659692253, 7.500000000000006217, -2.000000000000000000 ) ) ;
#871 = EDGE_CURVE ( 'NONE', #6, #126, #865, .T. ) ;
#872 = CARTESIAN_POINT ( 'NONE',  ( -43.00000000000000000, -15.00000000000000000, 0.000000000000000000 ) ) ;
#873 = VECTOR ( 'NONE', #676, 1000.000000000000000 ) ;
#874 = ORIENTED_EDGE ( 'NONE', *, *, #488, .F. ) ;
#875 = CIRCLE ( 'NONE', #369, 6.999999999999992006 ) ;
#876 = CARTESIAN_POINT ( 'NONE',  ( 43.00000000000000711, 17.99999999999999645, 0.000000000000000000 ) ) ;
#877 = DIRECTION ( 'NONE',  ( -1.000000000000000000, 0.000000000000000000, 0.000000000000000000 ) ) ;
#878 = VECTOR ( 'NONE', #237, 1000.000000000000000 ) ;
#879 = CARTESIAN_POINT ( 'NONE',  ( 43.00000000000000711, -8.000000000000000000, 1.500000000000000000 ) ) ;
#880 = ORIENTED_EDGE ( 'NONE', *, *, #290, .F. ) ;
#881 = DIRECTION ( 'NONE',  ( 0.000000000000000000, 0.000000000000000000, 1.000000000000000000 ) ) ;
#882 = CARTESIAN_POINT ( 'NONE',  ( -46.35094001659692253, -7.499999999999995559, -2.000000000000000000 ) ) ;
#883 = LINE ( 'NONE', #443, #487 ) ;
#884 = EDGE_CURVE ( 'NONE', #322, #73, #704, .T. ) ;
#885 = ORIENTED_EDGE ( 'NONE', *, *, #370, .F. ) ;
#886 = LINE ( 'NONE', #688, #1083 ) ;
#887 = DIRECTION ( 'NONE',  ( 1.000000000000000000, 0.000000000000000000, 0.000000000000000000 ) ) ;
#888 = ORIENTED_EDGE ( 'NONE', *, *, #213, .T. ) ;
#889 = DIRECTION ( 'NONE',  ( 0.000000000000000000, -0.000000000000000000, -1.000000000000000000 ) ) ;
#890 = CIRCLE ( 'NONE', #315, 6.999999999999992006 ) ;
#891 = ORIENTED_EDGE ( 'NONE', *, *, #1132, .F. ) ;
#892 = DIRECTION ( 'NONE',  ( 1.000000000000000000, 0.000000000000000000, 0.000000000000000000 ) ) ;
#893 = AXIS2_PLACEMENT_3D ( 'NONE', #421, #1139, #244 ) ;
#894 = AXIS2_PLACEMENT_3D ( 'NONE', #1091, #16, #923 ) ;
#895 = DIRECTION ( 'NONE',  ( 0.000000000000000000, 0.000000000000000000, 1.000000000000000000 ) ) ;
#896 = VERTEX_POINT ( 'NONE', #251 ) ;
#897 = CARTESIAN_POINT ( 'NONE',  ( 41.35094001659692253, -12.49999999999997691, -2.000000000000000000 ) ) ;
#898 = EDGE_LOOP ( 'NONE', ( #105, #264, #559, #970 ) ) ;
#899 = CARTESIAN_POINT ( 'NONE',  ( -41.35094001659692253, -12.49999999999999289, -2.000000000000000000 ) ) ;
#900 = EDGE_CURVE ( 'NONE', #922, #257, #62, .T. ) ;
#901 = DIRECTION ( 'NONE',  ( -1.000000000000000000, 0.000000000000000000, 0.000000000000000000 ) ) ;
#902 = ORIENTED_EDGE ( 'NONE', *, *, #463, .T. ) ;
#903 = DIRECTION ( 'NONE',  ( 1.000000000000000000, 0.000000000000000000, 0.000000000000000000 ) ) ;
#904 = DIRECTION ( 'NONE',  ( 0.000000000000000000, -1.000000000000000000, 0.000000000000000000 ) ) ;
#905 = EDGE_CURVE ( 'NONE', #671, #1093, #535, .T. ) ;
#906 = CARTESIAN_POINT ( 'NONE',  ( 50.00000000000000000, -8.000000000000000000, -2.000000000000000000 ) ) ;
#907 = ORIENTED_EDGE ( 'NONE', *, *, #1117, .T. ) ;
#908 = LINE ( 'NONE', #378, #634 ) ;
#909 = ORIENTED_EDGE ( 'NONE', *, *, #830, .T. ) ;
#910 = CARTESIAN_POINT ( 'NONE',  ( 43.00000000000000711, -8.000000000000000000, 0.000000000000000000 ) ) ;
#911 = VECTOR ( 'NONE', #345, 1000.000000000000000 ) ;
#912 = CARTESIAN_POINT ( 'NONE',  ( 41.35094001659692253, 12.50000000000000711, -4.750000000000000888 ) ) ;
#913 = ADVANCED_FACE ( 'NONE', ( #964 ), #169, .T. ) ;
#914 = VERTEX_POINT ( 'NONE', #876 ) ;
#915 = DIRECTION ( 'NONE',  ( 0.000000000000000000, 0.000000000000000000, 1.000000000000000000 ) ) ;
#916 = ORIENTED_EDGE ( 'NONE', *, *, #151, .T. ) ;
#917 = CARTESIAN_POINT ( 'NONE',  ( 21.35094001659691543, -7.499999999999986677, -4.750000000000000888 ) ) ;
#918 = DIRECTION ( 'NONE',  ( 0.000000000000000000, 0.000000000000000000, 1.000000000000000000 ) ) ;
#919 = EDGE_LOOP ( 'NONE', ( #1016, #133, #146, #118 ) ) ;
#920 = DIRECTION ( 'NONE',  ( -1.000000000000000000, 0.000000000000000000, 0.000000000000000000 ) ) ;
#921 = EDGE_CURVE ( 'NONE', #653, #135, #236, .T. ) ;
#922 = VERTEX_POINT ( 'NONE', #98 ) ;
#923 = DIRECTION ( 'NONE',  ( 1.000000000000000000, 3.469446951953613696E-16, 0.000000000000000000 ) ) ;
#924 = LINE ( 'NONE', #408, #522 ) ;
#925 = VERTEX_POINT ( 'NONE', #372 ) ;
#926 = APPLICATION_PROTOCOL_DEFINITION ( 'draft international standard', 'automotive_design', 1998, #31 ) ;
#927 = EDGE_LOOP ( 'NONE', ( #916, #1106, #39, #1020 ) ) ;
#928 = CARTESIAN_POINT ( 'NONE',  ( -50.00000000000000000, -8.000000000000000000, 0.000000000000000000 ) ) ;
#929 = STYLED_ITEM ( 'NONE', ( #335 ), #812 ) ;
#930 = AXIS2_PLACEMENT_3D ( 'NONE', #823, #178, #458 ) ;
#931 = EDGE_LOOP ( 'NONE', ( #1043, #815, #739, #500 ) ) ;
#932 = VECTOR ( 'NONE', #742, 1000.000000000000000 ) ;
#933 = CARTESIAN_POINT ( 'NONE',  ( 0.000000000000000000, 0.000000000000000000, 0.000000000000000000 ) ) ;
#934 = ORIENTED_EDGE ( 'NONE', *, *, #830, .F. ) ;
#935 = DIRECTION ( 'NONE',  ( -0.000000000000000000, -0.000000000000000000, -1.000000000000000000 ) ) ;
#936 = EDGE_CURVE ( 'NONE', #191, #55, #220, .T. ) ;
#937 = ORIENTED_EDGE ( 'NONE', *, *, #703, .T. ) ;
#938 = CARTESIAN_POINT ( 'NONE',  ( -41.35094001659692253, 12.50000000000000355, -4.750000000000000888 ) ) ;
#939 = CIRCLE ( 'NONE', #358, 4.999999999999997335 ) ;
#940 = ORIENTED_EDGE ( 'NONE', *, *, #1058, .F. ) ;
#941 = DIRECTION ( 'NONE',  ( -0.000000000000000000, -0.000000000000000000, 1.000000000000000000 ) ) ;
#942 = EDGE_CURVE ( 'NONE', #846, #405, #25, .T. ) ;
#943 = DIRECTION ( 'NONE',  ( -0.000000000000000000, 0.000000000000000000, -1.000000000000000000 ) ) ;
#944 = CARTESIAN_POINT ( 'NONE',  ( -43.00000000000000000, -8.000000000000000000, 1.500000000000000000 ) ) ;
#945 = EDGE_LOOP ( 'NONE', ( #868, #376, #568, #200 ) ) ;
#946 = LINE ( 'NONE', #147, #348 ) ;
#947 = CARTESIAN_POINT ( 'NONE',  ( -41.35094001659692253, 12.50000000000000711, -4.750000000000000888 ) ) ;
#948 = CIRCLE ( 'NONE', #1047, 6.999999999999999112 ) ;
#949 = CARTESIAN_POINT ( 'NONE',  ( -41.35094001659692253, -12.49999999999999289, 1.499999999999999556 ) ) ;
#950 = EDGE_CURVE ( 'NONE', #191, #1156, #644, .T. ) ;
#951 = AXIS2_PLACEMENT_3D ( 'NONE', #286, #771, #736 ) ;
#952 = ORIENTED_EDGE ( 'NONE', *, *, #651, .T. ) ;
#953 = DIRECTION ( 'NONE',  ( 0.000000000000000000, -1.000000000000000000, 0.000000000000000000 ) ) ;
#954 = VECTOR ( 'NONE', #776, 1000.000000000000000 ) ;
#955 = DIRECTION ( 'NONE',  ( 0.000000000000000000, 0.000000000000000000, 1.000000000000000000 ) ) ;
#956 = AXIS2_PLACEMENT_3D ( 'NONE', #802, #545, #82 ) ;
#957 = CARTESIAN_POINT ( 'NONE',  ( -21.35094001659691543, 8.000000000000000000, -2.000000000000000000 ) ) ;
#958 = ORIENTED_EDGE ( 'NONE', *, *, #463, .F. ) ;
#959 = EDGE_CURVE ( 'NONE', #227, #637, #273, .T. ) ;
#960 = DIRECTION ( 'NONE',  ( 0.000000000000000000, 0.000000000000000000, 1.000000000000000000 ) ) ;
#961 = CARTESIAN_POINT ( 'NONE',  ( 53.00000000000000711, 8.000000000000000000, 1.500000000000000000 ) ) ;
#962 = DIRECTION ( 'NONE',  ( -1.000000000000000000, 0.000000000000000000, 0.000000000000000000 ) ) ;
#963 = ORIENTED_EDGE ( 'NONE', *, *, #821, .T. ) ;
#964 = FACE_OUTER_BOUND ( 'NONE', #156, .T. ) ;
#965 = EDGE_CURVE ( 'NONE', #666, #1093, #560, .T. ) ;
#966 = CARTESIAN_POINT ( 'NONE',  ( 41.35094001659692253, 7.500000000000010658, -4.750000000000000888 ) ) ;
#967 = EDGE_CURVE ( 'NONE', #227, #1038, #908, .T. ) ;
#968 = DIRECTION ( 'NONE',  ( 0.000000000000000000, 0.000000000000000000, 1.000000000000000000 ) ) ;
#969 =( GEOMETRIC_REPRESENTATION_CONTEXT ( 3 ) GLOBAL_UNCERTAINTY_ASSIGNED_CONTEXT ( ( #775 ) ) GLOBAL_UNIT_ASSIGNED_CONTEXT ( ( #869, #423, #439 ) ) REPRESENTATION_CONTEXT ( 'NONE', 'WORKASPACE' ) );
#970 = ORIENTED_EDGE ( 'NONE', *, *, #1117, .F. ) ;
#971 = CARTESIAN_POINT ( 'NONE',  ( 53.00000000000000711, 8.000000000000000000, 0.000000000000000000 ) ) ;
#972 = FACE_OUTER_BOUND ( 'NONE', #524, .T. ) ;
#973 = AXIS2_PLACEMENT_3D ( 'NONE', #431, #978, #610 ) ;
#974 = EDGE_CURVE ( 'NONE', #1121, #896, #890, .T. ) ;
#975 = DIRECTION ( 'NONE',  ( 1.000000000000000000, -8.068481283613054562E-17, 0.000000000000000000 ) ) ;
#976 = EDGE_LOOP ( 'NONE', ( #809, #582, #673, #1073 ) ) ;
#977 = LINE ( 'NONE', #153, #367 ) ;
#978 = DIRECTION ( 'NONE',  ( -0.000000000000000000, -0.000000000000000000, 1.000000000000000000 ) ) ;
#979 = ADVANCED_FACE ( 'NONE', ( #2 ), #186, .T. ) ;
#980 = CARTESIAN_POINT ( 'NONE',  ( -43.00000000000000000, 8.000000000000000000, -2.000000000000000000 ) ) ;
#981 = ORIENTED_EDGE ( 'NONE', *, *, #101, .F. ) ;
#982 = DIRECTION ( 'NONE',  ( 0.000000000000000000, -1.000000000000000000, 0.000000000000000000 ) ) ;
#983 = ORIENTED_EDGE ( 'NONE', *, *, #665, .F. ) ;
#984 = CARTESIAN_POINT ( 'NONE',  ( 50.00000000000000000, 8.000000000000000000, -2.000000000000000000 ) ) ;
#985 = FACE_OUTER_BOUND ( 'NONE', #44, .T. ) ;
#986 = ORIENTED_EDGE ( 'NONE', *, *, #851, .T. ) ;
#987 = DIRECTION ( 'NONE',  ( 0.000000000000000000, -1.000000000000000000, 0.000000000000000000 ) ) ;
#988 = CIRCLE ( 'NONE', #111, 4.999999999999993783 ) ;
#989 = EDGE_CURVE ( 'NONE', #405, #452, #875, .T. ) ;
#990 = AXIS2_PLACEMENT_3D ( 'NONE', #1107, #1032, #400 ) ;
#991 = VERTEX_POINT ( 'NONE', #649 ) ;
#992 = CARTESIAN_POINT ( 'NONE',  ( -43.00000000000000000, -18.00000000000000355, 1.500000000000000000 ) ) ;
#993 = AXIS2_PLACEMENT_3D ( 'NONE', #338, #1144, #59 ) ;
#994 = CARTESIAN_POINT ( 'NONE',  ( 21.35094001659691543, -7.499999999999986677, -4.750000000000000888 ) ) ;
#995 = EDGE_LOOP ( 'NONE', ( #139, #464, #675, #998, #1052, #732, #1115, #792 ) ) ;
#996 = CARTESIAN_POINT ( 'NONE',  ( -41.35094001659692253, -7.499999999999995559, -4.750000000000000888 ) ) ;
#997 = EDGE_CURVE ( 'NONE', #663, #693, #1103, .T. ) ;
#998 = ORIENTED_EDGE ( 'NONE', *, *, #646, .F. ) ;
#999 = PLANE ( 'NONE',  #894 ) ;
#1000 = AXIS2_PLACEMENT_3D ( 'NONE', #944, #310, #223 ) ;
#1001 = CARTESIAN_POINT ( 'NONE',  ( 46.35094001659691543, -7.499999999999983125, -2.000000000000000000 ) ) ;
#1002 = ORIENTED_EDGE ( 'NONE', *, *, #813, .F. ) ;
#1003 = DIRECTION ( 'NONE',  ( 1.000000000000000000, 0.000000000000000000, 0.000000000000000000 ) ) ;
#1004 = LINE ( 'NONE', #764, #873 ) ;
#1005 = PRODUCT_DEFINITION ( 'UNKNOWN', '', #80, #1053 ) ;
#1006 = ADVANCED_FACE ( 'NONE', ( #541 ), #470, .F. ) ;
#1007 = CARTESIAN_POINT ( 'NONE',  ( 41.35094001659692253, 7.500000000000010658, -2.000000000000000000 ) ) ;
#1008 = ORIENTED_EDGE ( 'NONE', *, *, #1035, .F. ) ;
#1009 = CARTESIAN_POINT ( 'NONE',  ( -21.35094001659691543, -7.499999999999995559, -4.750000000000000888 ) ) ;
#1010 = ORIENTED_EDGE ( 'NONE', *, *, #290, .T. ) ;
#1011 = CARTESIAN_POINT ( 'NONE',  ( -43.00000000000000000, 18.00000000000000355, 1.500000000000000000 ) ) ;
#1012 = VECTOR ( 'NONE', #162, 1000.000000000000000 ) ;
#1013 = EDGE_CURVE ( 'NONE', #729, #459, #269, .T. ) ;
#1014 = DIRECTION ( 'NONE',  ( -1.000000000000000000, 0.000000000000000000, 0.000000000000000000 ) ) ;
#1015 = CIRCLE ( 'NONE', #708, 5.000000000000004441 ) ;
#1016 = ORIENTED_EDGE ( 'NONE', *, *, #557, .T. ) ;
#1017 = ORIENTED_EDGE ( 'NONE', *, *, #1132, .T. ) ;
#1018 = DIRECTION ( 'NONE',  ( -1.156482317317871232E-16, -1.000000000000000000, 0.000000000000000000 ) ) ;
#1019 = CYLINDRICAL_SURFACE ( 'NONE', #951, 9.999999999999994671 ) ;
#1020 = ORIENTED_EDGE ( 'NONE', *, *, #471, .F. ) ;
#1021 = CARTESIAN_POINT ( 'NONE',  ( -46.35094001659692253, -7.499999999999995559, -4.750000000000000888 ) ) ;
#1022 = ORIENTED_EDGE ( 'NONE', *, *, #858, .F. ) ;
#1023 = DIRECTION ( 'NONE',  ( 1.000000000000000000, 0.000000000000000000, 0.000000000000000000 ) ) ;
#1024 = VERTEX_POINT ( 'NONE', #897 ) ;
#1025 = ORIENTED_EDGE ( 'NONE', *, *, #107, .T. ) ;
#1026 = EDGE_CURVE ( 'NONE', #168, #1125, #828, .T. ) ;
#1027 = DIRECTION ( 'NONE',  ( -0.000000000000000000, -0.000000000000000000, 1.000000000000000000 ) ) ;
#1028 = AXIS2_PLACEMENT_3D ( 'NONE', #124, #235, #215 ) ;
#1029 = VECTOR ( 'NONE', #810, 1000.000000000000000 ) ;
#1030 = ORIENTED_EDGE ( 'NONE', *, *, #131, .F. ) ;
#1031 = VECTOR ( 'NONE', #355, 1000.000000000000000 ) ;
#1032 = DIRECTION ( 'NONE',  ( 0.000000000000000000, 0.000000000000000000, 1.000000000000000000 ) ) ;
#1033 = ORIENTED_EDGE ( 'NONE', *, *, #783, .T. ) ;
#1034 = CARTESIAN_POINT ( 'NONE',  ( -26.35094001659691898, -7.499999999999995559, -4.750000000000000888 ) ) ;
#1035 = EDGE_CURVE ( 'NONE', #446, #864, #88, .T. ) ;
#1036 = ORIENTED_EDGE ( 'NONE', *, *, #101, .T. ) ;
#1037 = CARTESIAN_POINT ( 'NONE',  ( 43.00000000000001421, -17.99999999999999645, 0.000000000000000000 ) ) ;
#1038 = VERTEX_POINT ( 'NONE', #720 ) ;
#1039 = CARTESIAN_POINT ( 'NONE',  ( 41.35094001659692253, -7.499999999999983125, -2.000000000000000000 ) ) ;
#1040 = LINE ( 'NONE', #912, #861 ) ;
#1041 = EDGE_CURVE ( 'NONE', #287, #304, #447, .T. ) ;
#1042 = CARTESIAN_POINT ( 'NONE',  ( -21.35094001659691543, -7.499999999999995559, -4.750000000000000888 ) ) ;
#1043 = ORIENTED_EDGE ( 'NONE', *, *, #137, .T. ) ;
#1044 = LINE ( 'NONE', #836, #329 ) ;
#1045 = ADVANCED_BREP_SHAPE_REPRESENTATION ( 'Light_ver1', ( #812, #337 ), #138 ) ;
#1046 = CARTESIAN_POINT ( 'NONE',  ( -46.35094001659692253, 8.000000000000000000, -2.000000000000000000 ) ) ;
#1047 = AXIS2_PLACEMENT_3D ( 'NONE', #662, #1114, #577 ) ;
#1048 = VECTOR ( 'NONE', #982, 1000.000000000000000 ) ;
#1049 = ADVANCED_FACE ( 'NONE', ( #90 ), #638, .F. ) ;
#1050 = DIRECTION ( 'NONE',  ( 1.000000000000000000, 0.000000000000000000, -0.000000000000000000 ) ) ;
#1051 = VECTOR ( 'NONE', #436, 1000.000000000000000 ) ;
#1052 = ORIENTED_EDGE ( 'NONE', *, *, #851, .F. ) ;
#1053 = PRODUCT_DEFINITION_CONTEXT ( 'detailed design', #412, 'design' ) ;
#1054 = CYLINDRICAL_SURFACE ( 'NONE', #820, 4.999999999999993783 ) ;
#1055 = CARTESIAN_POINT ( 'NONE',  ( -50.00000000000000000, -8.000000000000000000, -2.000000000000000000 ) ) ;
#1056 = ORIENTED_EDGE ( 'NONE', *, *, #950, .T. ) ;
#1057 = DIRECTION ( 'NONE',  ( 1.000000000000000000, 0.000000000000000000, 0.000000000000000000 ) ) ;
#1058 = EDGE_CURVE ( 'NONE', #446, #687, #547, .T. ) ;
#1059 = CARTESIAN_POINT ( 'NONE',  ( 21.35094001659691543, 7.500000000000007105, -4.750000000000000888 ) ) ;
#1060 = CARTESIAN_POINT ( 'NONE',  ( -43.00000000000000000, -8.000000000000000000, 1.500000000000000000 ) ) ;
#1061 = EDGE_LOOP ( 'NONE', ( #849, #19, #1109, #99, #888, #773, #417, #83 ) ) ;
#1062 = DIRECTION ( 'NONE',  ( -0.000000000000000000, -0.000000000000000000, 1.000000000000000000 ) ) ;
#1063 = ADVANCED_FACE ( 'NONE', ( #1089 ), #768, .F. ) ;
#1064 = DIRECTION ( 'NONE',  ( -0.000000000000000000, -0.000000000000000000, -1.000000000000000000 ) ) ;
#1065 = LINE ( 'NONE', #498, #239 ) ;
#1066 = CIRCLE ( 'NONE', #759, 10.00000000000000178 ) ;
#1067 = ORIENTED_EDGE ( 'NONE', *, *, #697, .T. ) ;
#1068 = CARTESIAN_POINT ( 'NONE',  ( -43.00000000000000000, 8.000000000000000000, -2.000000000000000000 ) ) ;
#1069 = DIRECTION ( 'NONE',  ( -0.000000000000000000, -0.000000000000000000, 1.000000000000000000 ) ) ;
#1070 = VECTOR ( 'NONE', #503, 1000.000000000000000 ) ;
#1071 = EDGE_CURVE ( 'NONE', #478, #135, #1116, .T. ) ;
#1072 = DIRECTION ( 'NONE',  ( 1.000000000000000000, 0.000000000000000000, 0.000000000000000000 ) ) ;
#1073 = ORIENTED_EDGE ( 'NONE', *, *, #777, .T. ) ;
#1074 = DIRECTION ( 'NONE',  ( 0.000000000000000000, 0.000000000000000000, 1.000000000000000000 ) ) ;
#1075 = DIRECTION ( 'NONE',  ( 0.000000000000000000, 0.000000000000000000, 1.000000000000000000 ) ) ;
#1076 = EDGE_LOOP ( 'NONE', ( #565, #629, #986, #152 ) ) ;
#1077 = CARTESIAN_POINT ( 'NONE',  ( 43.00000000000000711, -8.000000000000000000, 1.500000000000000000 ) ) ;
#1078 = FACE_OUTER_BOUND ( 'NONE', #26, .T. ) ;
#1079 = CARTESIAN_POINT ( 'NONE',  ( 43.00000000000000000, 12.50000000000000711, 1.500000000000000000 ) ) ;
#1080 = EDGE_CURVE ( 'NONE', #126, #401, #331, .T. ) ;
#1081 = EDGE_LOOP ( 'NONE', ( #840, #457, #762, #631 ) ) ;
#1082 = CARTESIAN_POINT ( 'NONE',  ( -43.00000000000000000, 8.000000000000000000, 0.000000000000000000 ) ) ;
#1083 = VECTOR ( 'NONE', #603, 1000.000000000000000 ) ;
#1084 = ORIENTED_EDGE ( 'NONE', *, *, #728, .F. ) ;
#1085 = PLANE ( 'NONE',  #394 ) ;
#1086 = VECTOR ( 'NONE', #975, 1000.000000000000000 ) ;
#1087 = FACE_BOUND ( 'NONE', #37, .T. ) ;
#1088 = ORIENTED_EDGE ( 'NONE', *, *, #777, .F. ) ;
#1089 = FACE_OUTER_BOUND ( 'NONE', #434, .T. ) ;
#1090 = ORIENTED_EDGE ( 'NONE', *, *, #420, .T. ) ;
#1091 = CARTESIAN_POINT ( 'NONE',  ( 41.35094001659692253, -12.49999999999997691, -4.750000000000000888 ) ) ;
#1092 = CARTESIAN_POINT ( 'NONE',  ( -50.00000000000000000, 7.999999999999992895, -2.000000000000000000 ) ) ;
#1093 = VERTEX_POINT ( 'NONE', #301 ) ;
#1094 = CARTESIAN_POINT ( 'NONE',  ( 43.00000000000001421, -17.99999999999999645, 1.500000000000000000 ) ) ;
#1095 = ORIENTED_EDGE ( 'NONE', *, *, #813, .T. ) ;
#1096 = CARTESIAN_POINT ( 'NONE',  ( -21.35094001659691543, 7.500000000000006217, 1.499999999999999556 ) ) ;
#1097 = ADVANCED_FACE ( 'NONE', ( #674 ), #755, .T. ) ;
#1098 = DIRECTION ( 'NONE',  ( -1.000000000000000000, -3.469446951953613696E-16, 0.000000000000000000 ) ) ;
#1099 = ORIENTED_EDGE ( 'NONE', *, *, #21, .F. ) ;
#1100 = DIRECTION ( 'NONE',  ( 1.000000000000000000, 0.000000000000000000, 0.000000000000000000 ) ) ;
#1101 = ORIENTED_EDGE ( 'NONE', *, *, #1041, .T. ) ;
#1102 = FACE_OUTER_BOUND ( 'NONE', #931, .T. ) ;
#1103 = CIRCLE ( 'NONE', #15, 10.00000000000000178 ) ;
#1104 = CARTESIAN_POINT ( 'NONE',  ( 46.35094001659691543, -7.499999999999983125, -4.750000000000000888 ) ) ;
#1105 = VECTOR ( 'NONE', #265, 1000.000000000000000 ) ;
#1106 = ORIENTED_EDGE ( 'NONE', *, *, #380, .T. ) ;
#1107 = CARTESIAN_POINT ( 'NONE',  ( 41.35094001659692253, 7.500000000000010658, 1.499999999999999556 ) ) ;
#1108 = VECTOR ( 'NONE', #195, 1000.000000000000000 ) ;
#1109 = ORIENTED_EDGE ( 'NONE', *, *, #176, .F. ) ;
#1110 = LINE ( 'NONE', #682, #686 ) ;
#1111 = ORIENTED_EDGE ( 'NONE', *, *, #282, .F. ) ;
#1112 = CARTESIAN_POINT ( 'NONE',  ( -41.35094001659692253, -7.499999999999995559, -2.000000000000000000 ) ) ;
#1113 = EDGE_LOOP ( 'NONE', ( #491, #779, #437, #12 ) ) ;
#1114 = DIRECTION ( 'NONE',  ( -0.000000000000000000, -0.000000000000000000, -1.000000000000000000 ) ) ;
#1115 = ORIENTED_EDGE ( 'NONE', *, *, #226, .F. ) ;
#1116 = LINE ( 'NONE', #43, #838 ) ;
#1117 = EDGE_CURVE ( 'NONE', #1024, #760, #664, .T. ) ;
#1118 = ORIENTED_EDGE ( 'NONE', *, *, #585, .T. ) ;
#1119 = CARTESIAN_POINT ( 'NONE',  ( -21.35094001659691543, -7.499999999999995559, -2.000000000000000000 ) ) ;
#1120 = VECTOR ( 'NONE', #84, 1000.000000000000000 ) ;
#1121 = VERTEX_POINT ( 'NONE', #305 ) ;
#1122 = AXIS2_PLACEMENT_3D ( 'NONE', #513, #781, #877 ) ;
#1123 = CARTESIAN_POINT ( 'NONE',  ( 50.00000000000000000, 8.000000000000000000, 0.000000000000000000 ) ) ;
#1124 = EDGE_CURVE ( 'NONE', #546, #475, #848, .T. ) ;
#1125 = VERTEX_POINT ( 'NONE', #751 ) ;
#1126 = CARTESIAN_POINT ( 'NONE',  ( -26.35094001659691898, -12.49999999999999467, -4.750000000000000888 ) ) ;
#1127 = DIRECTION ( 'NONE',  ( -1.000000000000000000, 0.000000000000000000, 0.000000000000000000 ) ) ;
#1128 = PLANE ( 'NONE',  #748 ) ;
#1129 = EDGE_LOOP ( 'NONE', ( #902, #363, #710, #389 ) ) ;
#1130 = LINE ( 'NONE', #1126, #572 ) ;
#1131 = LINE ( 'NONE', #590, #114 ) ;
#1132 = EDGE_CURVE ( 'NONE', #1093, #607, #761, .T. ) ;
#1133 = LINE ( 'NONE', #772, #690 ) ;
#1134 = VERTEX_POINT ( 'NONE', #1123 ) ;
#1135 = CYLINDRICAL_SURFACE ( 'NONE', #1122, 9.999999999999994671 ) ;
#1136 = ADVANCED_FACE ( 'NONE', ( #744 ), #574, .F. ) ;
#1137 = AXIS2_PLACEMENT_3D ( 'NONE', #467, #198, #454 ) ;
#1138 = VECTOR ( 'NONE', #903, 1000.000000000000000 ) ;
#1139 = DIRECTION ( 'NONE',  ( 0.000000000000000000, 0.000000000000000000, 1.000000000000000000 ) ) ;
#1140 = CIRCLE ( 'NONE', #543, 5.000000000000000888 ) ;
#1141 = ORIENTED_EDGE ( 'NONE', *, *, #884, .F. ) ;
#1142 = DIRECTION ( 'NONE',  ( 0.000000000000000000, 0.000000000000000000, 1.000000000000000000 ) ) ;
#1143 = CARTESIAN_POINT ( 'NONE',  ( 50.00000000000000000, -8.000000000000000000, -2.000000000000000000 ) ) ;
#1144 = DIRECTION ( 'NONE',  ( 1.000000000000000000, 0.000000000000000000, -0.000000000000000000 ) ) ;
#1145 = ADVANCED_FACE ( 'NONE', ( #495 ), #581, .F. ) ;
#1146 = ORIENTED_EDGE ( 'NONE', *, *, #232, .F. ) ;
#1147 = LINE ( 'NONE', #971, #271 ) ;
#1148 = DIRECTION ( 'NONE',  ( -0.000000000000000000, -0.000000000000000000, 1.000000000000000000 ) ) ;
#1149 = CARTESIAN_POINT ( 'NONE',  ( 46.35094001659691543, -7.499999999999983125, 1.499999999999999556 ) ) ;
#1150 = ORIENTED_EDGE ( 'NONE', *, *, #989, .F. ) ;
#1151 = EDGE_CURVE ( 'NONE', #729, #168, #939, .T. ) ;
#1152 = CARTESIAN_POINT ( 'NONE',  ( -43.00000000000000000, 15.00000000000000000, 0.000000000000000000 ) ) ;
#1153 = FACE_OUTER_BOUND ( 'NONE', #1129, .T. ) ;
#1154 = CYLINDRICAL_SURFACE ( 'NONE', #956, 6.999999999999992006 ) ;
#1155 = PRESENTATION_LAYER_ASSIGNMENT (  '', '', ( #929 ) ) ;
#1156 = VERTEX_POINT ( 'NONE', #1037 ) ;
#1157 = AXIS2_PLACEMENT_3D ( 'NONE', #1060, #53, #249 ) ;
#1158 = CARTESIAN_POINT ( 'NONE',  ( 50.00000000000000000, -8.000000000000000000, 0.000000000000000000 ) ) ;
#1159 = VECTOR ( 'NONE', #534, 1000.000000000000000 ) ;
#1160 = VECTOR ( 'NONE', #691, 1000.000000000000000 ) ;
#1161 = DIRECTION ( 'NONE',  ( -1.000000000000000000, 0.000000000000000000, 0.000000000000000000 ) ) ;
ENDSEC;
END-ISO-10303-21;
