ISO-10303-21;
HEADER;
/* Generated by software containing ST-Developer
 * from STEP Tools, Inc. (www.steptools.com) 
 */

FILE_DESCRIPTION(
/* description */ (''),
/* implementation_level */ '2;1');

FILE_NAME(
/* name */ 'Fixtures.stp',
/* time_stamp */ '2025-10-30T12:59:37+07:00',
/* author */ ('quang'),
/* organization */ (''),
/* preprocessor_version */ 'ST-DEVELOPER v20',
/* originating_system */ 'Autodesk Inventor 2024',
/* authorisation */ '');

FILE_SCHEMA (('AUTOMOTIVE_DESIGN { 1 0 10303 214 3 1 1 }'));
ENDSEC;

DATA;
#10=MECHANICAL_DESIGN_GEOMETRIC_PRESENTATION_REPRESENTATION('',(#510,#511,
#512,#513,#514,#515,#516,#517,#518,#519,#520,#521,#522,#523,#524,#525,#526,
#527,#528,#529,#530,#531,#532,#533,#534,#535,#536),#956);
#11=SHAPE_REPRESENTATION_RELATIONSHIP('SRR','None',#963,#12);
#12=ADVANCED_BREP_SHAPE_REPRESENTATION('',(#13),#955);
#13=MANIFOLD_SOLID_BREP('Solid1',#563);
#14=FACE_BOUND('',#73,.T.);
#15=FACE_BOUND('',#74,.T.);
#16=FACE_BOUND('',#75,.T.);
#17=FACE_BOUND('',#76,.T.);
#18=FACE_BOUND('',#91,.T.);
#19=FACE_BOUND('',#92,.T.);
#20=FACE_BOUND('',#93,.T.);
#21=FACE_BOUND('',#94,.T.);
#22=FACE_BOUND('',#95,.T.);
#23=FACE_BOUND('',#96,.T.);
#24=FACE_BOUND('',#97,.T.);
#25=FACE_BOUND('',#101,.T.);
#26=FACE_BOUND('',#102,.T.);
#27=FACE_BOUND('',#103,.T.);
#28=FACE_BOUND('',#104,.T.);
#29=FACE_BOUND('',#107,.T.);
#30=FACE_BOUND('',#108,.T.);
#31=FACE_BOUND('',#109,.T.);
#32=FACE_BOUND('',#110,.T.);
#33=FACE_BOUND('',#111,.T.);
#34=FACE_BOUND('',#112,.T.);
#35=FACE_BOUND('',#113,.T.);
#36=PLANE('',#589);
#37=PLANE('',#595);
#38=PLANE('',#619);
#39=PLANE('',#623);
#40=PLANE('',#627);
#41=PLANE('',#632);
#42=PLANE('',#633);
#43=PLANE('',#640);
#44=PLANE('',#645);
#45=FACE_OUTER_BOUND('',#71,.T.);
#46=FACE_OUTER_BOUND('',#72,.T.);
#47=FACE_OUTER_BOUND('',#77,.T.);
#48=FACE_OUTER_BOUND('',#78,.T.);
#49=FACE_OUTER_BOUND('',#79,.T.);
#50=FACE_OUTER_BOUND('',#80,.T.);
#51=FACE_OUTER_BOUND('',#81,.T.);
#52=FACE_OUTER_BOUND('',#82,.T.);
#53=FACE_OUTER_BOUND('',#83,.T.);
#54=FACE_OUTER_BOUND('',#84,.T.);
#55=FACE_OUTER_BOUND('',#85,.T.);
#56=FACE_OUTER_BOUND('',#86,.T.);
#57=FACE_OUTER_BOUND('',#87,.T.);
#58=FACE_OUTER_BOUND('',#88,.T.);
#59=FACE_OUTER_BOUND('',#89,.T.);
#60=FACE_OUTER_BOUND('',#90,.T.);
#61=FACE_OUTER_BOUND('',#98,.T.);
#62=FACE_OUTER_BOUND('',#99,.T.);
#63=FACE_OUTER_BOUND('',#100,.T.);
#64=FACE_OUTER_BOUND('',#105,.T.);
#65=FACE_OUTER_BOUND('',#106,.T.);
#66=FACE_OUTER_BOUND('',#114,.T.);
#67=FACE_OUTER_BOUND('',#115,.T.);
#68=FACE_OUTER_BOUND('',#116,.T.);
#69=FACE_OUTER_BOUND('',#117,.T.);
#70=FACE_OUTER_BOUND('',#118,.T.);
#71=EDGE_LOOP('',(#349,#350,#351,#352));
#72=EDGE_LOOP('',(#353,#354,#355,#356,#357,#358));
#73=EDGE_LOOP('',(#359));
#74=EDGE_LOOP('',(#360));
#75=EDGE_LOOP('',(#361));
#76=EDGE_LOOP('',(#362));
#77=EDGE_LOOP('',(#363,#364,#365,#366));
#78=EDGE_LOOP('',(#367,#368,#369,#370));
#79=EDGE_LOOP('',(#371,#372,#373,#374));
#80=EDGE_LOOP('',(#375,#376,#377,#378));
#81=EDGE_LOOP('',(#379,#380,#381,#382));
#82=EDGE_LOOP('',(#383,#384,#385,#386));
#83=EDGE_LOOP('',(#387,#388,#389,#390));
#84=EDGE_LOOP('',(#391,#392,#393,#394));
#85=EDGE_LOOP('',(#395,#396,#397,#398));
#86=EDGE_LOOP('',(#399,#400,#401,#402));
#87=EDGE_LOOP('',(#403,#404,#405,#406));
#88=EDGE_LOOP('',(#407,#408,#409,#410));
#89=EDGE_LOOP('',(#411,#412,#413,#414));
#90=EDGE_LOOP('',(#415,#416,#417,#418));
#91=EDGE_LOOP('',(#419));
#92=EDGE_LOOP('',(#420));
#93=EDGE_LOOP('',(#421));
#94=EDGE_LOOP('',(#422));
#95=EDGE_LOOP('',(#423));
#96=EDGE_LOOP('',(#424));
#97=EDGE_LOOP('',(#425,#426,#427,#428));
#98=EDGE_LOOP('',(#429,#430,#431,#432));
#99=EDGE_LOOP('',(#433,#434,#435,#436,#437,#438,#439,#440));
#100=EDGE_LOOP('',(#441,#442,#443,#444,#445,#446));
#101=EDGE_LOOP('',(#447));
#102=EDGE_LOOP('',(#448));
#103=EDGE_LOOP('',(#449));
#104=EDGE_LOOP('',(#450));
#105=EDGE_LOOP('',(#451,#452,#453,#454));
#106=EDGE_LOOP('',(#455,#456,#457,#458));
#107=EDGE_LOOP('',(#459));
#108=EDGE_LOOP('',(#460));
#109=EDGE_LOOP('',(#461));
#110=EDGE_LOOP('',(#462));
#111=EDGE_LOOP('',(#463));
#112=EDGE_LOOP('',(#464));
#113=EDGE_LOOP('',(#465,#466,#467,#468));
#114=EDGE_LOOP('',(#469,#470,#471,#472));
#115=EDGE_LOOP('',(#473,#474,#475,#476));
#116=EDGE_LOOP('',(#477,#478,#479,#480));
#117=EDGE_LOOP('',(#481,#482,#483,#484));
#118=EDGE_LOOP('',(#485,#486,#487,#488,#489,#490,#491,#492));
#119=LINE('',#812,#157);
#120=LINE('',#815,#158);
#121=LINE('',#818,#159);
#122=LINE('',#822,#160);
#123=LINE('',#824,#161);
#124=LINE('',#825,#162);
#125=LINE('',#836,#163);
#126=LINE('',#837,#164);
#127=LINE('',#841,#165);
#128=LINE('',#846,#166);
#129=LINE('',#852,#167);
#130=LINE('',#858,#168);
#131=LINE('',#864,#169);
#132=LINE('',#870,#170);
#133=LINE('',#876,#171);
#134=LINE('',#883,#172);
#135=LINE('',#886,#173);
#136=LINE('',#889,#174);
#137=LINE('',#891,#175);
#138=LINE('',#892,#176);
#139=LINE('',#898,#177);
#140=LINE('',#900,#178);
#141=LINE('',#901,#179);
#142=LINE('',#906,#180);
#143=LINE('',#910,#181);
#144=LINE('',#913,#182);
#145=LINE('',#919,#183);
#146=LINE('',#922,#184);
#147=LINE('',#925,#185);
#148=LINE('',#926,#186);
#149=LINE('',#927,#187);
#150=LINE('',#929,#188);
#151=LINE('',#940,#189);
#152=LINE('',#943,#190);
#153=LINE('',#945,#191);
#154=LINE('',#947,#192);
#155=LINE('',#949,#193);
#156=LINE('',#951,#194);
#157=VECTOR('',#652,10.);
#158=VECTOR('',#655,10.);
#159=VECTOR('',#658,10.);
#160=VECTOR('',#661,10.);
#161=VECTOR('',#662,10.);
#162=VECTOR('',#663,10.);
#163=VECTOR('',#674,10.);
#164=VECTOR('',#675,10.);
#165=VECTOR('',#680,10.);
#166=VECTOR('',#685,1.5);
#167=VECTOR('',#692,1.5);
#168=VECTOR('',#699,1.5);
#169=VECTOR('',#706,1.5);
#170=VECTOR('',#713,1.5);
#171=VECTOR('',#720,1.5);
#172=VECTOR('',#727,10.);
#173=VECTOR('',#730,10.);
#174=VECTOR('',#733,10.);
#175=VECTOR('',#734,10.);
#176=VECTOR('',#735,10.);
#177=VECTOR('',#742,10.);
#178=VECTOR('',#745,10.);
#179=VECTOR('',#746,10.);
#180=VECTOR('',#751,10.);
#181=VECTOR('',#756,10.);
#182=VECTOR('',#759,10.);
#183=VECTOR('',#764,10.);
#184=VECTOR('',#767,10.);
#185=VECTOR('',#770,10.);
#186=VECTOR('',#771,10.);
#187=VECTOR('',#772,10.);
#188=VECTOR('',#775,10.);
#189=VECTOR('',#786,10.);
#190=VECTOR('',#791,10.);
#191=VECTOR('',#794,1.75);
#192=VECTOR('',#797,1.75);
#193=VECTOR('',#800,1.75);
#194=VECTOR('',#803,1.75);
#195=CIRCLE('',#587,3.);
#196=CIRCLE('',#588,3.);
#197=CIRCLE('',#590,3.);
#198=CIRCLE('',#591,1.75);
#199=CIRCLE('',#592,1.75);
#200=CIRCLE('',#593,1.75);
#201=CIRCLE('',#594,1.75);
#202=CIRCLE('',#597,3.);
#203=CIRCLE('',#599,1.5);
#204=CIRCLE('',#600,1.5);
#205=CIRCLE('',#602,1.5);
#206=CIRCLE('',#603,1.5);
#207=CIRCLE('',#605,1.5);
#208=CIRCLE('',#606,1.5);
#209=CIRCLE('',#608,1.5);
#210=CIRCLE('',#609,1.5);
#211=CIRCLE('',#611,1.5);
#212=CIRCLE('',#612,1.5);
#213=CIRCLE('',#614,1.5);
#214=CIRCLE('',#615,1.5);
#215=CIRCLE('',#617,6.6);
#216=CIRCLE('',#618,6.6);
#217=CIRCLE('',#621,6.6);
#218=CIRCLE('',#622,6.6);
#219=CIRCLE('',#625,2.);
#220=CIRCLE('',#626,2.);
#221=CIRCLE('',#628,19.9);
#222=CIRCLE('',#630,4.);
#223=CIRCLE('',#631,4.);
#224=CIRCLE('',#634,1.75);
#225=CIRCLE('',#635,1.75);
#226=CIRCLE('',#636,1.75);
#227=CIRCLE('',#637,1.75);
#228=CIRCLE('',#639,19.9);
#229=VERTEX_POINT('',#808);
#230=VERTEX_POINT('',#809);
#231=VERTEX_POINT('',#811);
#232=VERTEX_POINT('',#813);
#233=VERTEX_POINT('',#817);
#234=VERTEX_POINT('',#819);
#235=VERTEX_POINT('',#821);
#236=VERTEX_POINT('',#823);
#237=VERTEX_POINT('',#826);
#238=VERTEX_POINT('',#828);
#239=VERTEX_POINT('',#830);
#240=VERTEX_POINT('',#832);
#241=VERTEX_POINT('',#835);
#242=VERTEX_POINT('',#839);
#243=VERTEX_POINT('',#843);
#244=VERTEX_POINT('',#845);
#245=VERTEX_POINT('',#849);
#246=VERTEX_POINT('',#851);
#247=VERTEX_POINT('',#855);
#248=VERTEX_POINT('',#857);
#249=VERTEX_POINT('',#861);
#250=VERTEX_POINT('',#863);
#251=VERTEX_POINT('',#867);
#252=VERTEX_POINT('',#869);
#253=VERTEX_POINT('',#873);
#254=VERTEX_POINT('',#875);
#255=VERTEX_POINT('',#879);
#256=VERTEX_POINT('',#880);
#257=VERTEX_POINT('',#882);
#258=VERTEX_POINT('',#884);
#259=VERTEX_POINT('',#888);
#260=VERTEX_POINT('',#890);
#261=VERTEX_POINT('',#894);
#262=VERTEX_POINT('',#896);
#263=VERTEX_POINT('',#903);
#264=VERTEX_POINT('',#905);
#265=VERTEX_POINT('',#909);
#266=VERTEX_POINT('',#911);
#267=VERTEX_POINT('',#915);
#268=VERTEX_POINT('',#916);
#269=VERTEX_POINT('',#918);
#270=VERTEX_POINT('',#920);
#271=VERTEX_POINT('',#924);
#272=VERTEX_POINT('',#930);
#273=VERTEX_POINT('',#932);
#274=VERTEX_POINT('',#934);
#275=VERTEX_POINT('',#936);
#276=VERTEX_POINT('',#939);
#277=EDGE_CURVE('',#229,#230,#195,.T.);
#278=EDGE_CURVE('',#230,#231,#119,.T.);
#279=EDGE_CURVE('',#231,#232,#196,.T.);
#280=EDGE_CURVE('',#232,#229,#120,.T.);
#281=EDGE_CURVE('',#233,#229,#121,.T.);
#282=EDGE_CURVE('',#234,#233,#197,.T.);
#283=EDGE_CURVE('',#235,#234,#122,.T.);
#284=EDGE_CURVE('',#236,#235,#123,.T.);
#285=EDGE_CURVE('',#230,#236,#124,.T.);
#286=EDGE_CURVE('',#237,#237,#198,.T.);
#287=EDGE_CURVE('',#238,#238,#199,.T.);
#288=EDGE_CURVE('',#239,#239,#200,.T.);
#289=EDGE_CURVE('',#240,#240,#201,.T.);
#290=EDGE_CURVE('',#241,#232,#125,.T.);
#291=EDGE_CURVE('',#233,#241,#126,.T.);
#292=EDGE_CURVE('',#241,#242,#202,.T.);
#293=EDGE_CURVE('',#242,#234,#127,.T.);
#294=EDGE_CURVE('',#243,#243,#203,.T.);
#295=EDGE_CURVE('',#243,#244,#128,.T.);
#296=EDGE_CURVE('',#244,#244,#204,.T.);
#297=EDGE_CURVE('',#245,#245,#205,.T.);
#298=EDGE_CURVE('',#245,#246,#129,.T.);
#299=EDGE_CURVE('',#246,#246,#206,.T.);
#300=EDGE_CURVE('',#247,#247,#207,.T.);
#301=EDGE_CURVE('',#247,#248,#130,.T.);
#302=EDGE_CURVE('',#248,#248,#208,.T.);
#303=EDGE_CURVE('',#249,#249,#209,.T.);
#304=EDGE_CURVE('',#249,#250,#131,.T.);
#305=EDGE_CURVE('',#250,#250,#210,.T.);
#306=EDGE_CURVE('',#251,#251,#211,.T.);
#307=EDGE_CURVE('',#251,#252,#132,.T.);
#308=EDGE_CURVE('',#252,#252,#212,.T.);
#309=EDGE_CURVE('',#253,#253,#213,.T.);
#310=EDGE_CURVE('',#253,#254,#133,.T.);
#311=EDGE_CURVE('',#254,#254,#214,.T.);
#312=EDGE_CURVE('',#255,#256,#215,.T.);
#313=EDGE_CURVE('',#257,#255,#134,.T.);
#314=EDGE_CURVE('',#258,#257,#216,.T.);
#315=EDGE_CURVE('',#258,#256,#135,.T.);
#316=EDGE_CURVE('',#256,#259,#136,.T.);
#317=EDGE_CURVE('',#260,#258,#137,.T.);
#318=EDGE_CURVE('',#260,#259,#138,.T.);
#319=EDGE_CURVE('',#259,#261,#217,.T.);
#320=EDGE_CURVE('',#262,#260,#218,.T.);
#321=EDGE_CURVE('',#262,#261,#139,.T.);
#322=EDGE_CURVE('',#261,#255,#140,.T.);
#323=EDGE_CURVE('',#257,#262,#141,.T.);
#324=EDGE_CURVE('',#235,#263,#219,.T.);
#325=EDGE_CURVE('',#263,#264,#142,.T.);
#326=EDGE_CURVE('',#264,#236,#220,.T.);
#327=EDGE_CURVE('',#265,#263,#143,.T.);
#328=EDGE_CURVE('',#266,#265,#221,.T.);
#329=EDGE_CURVE('',#264,#266,#144,.T.);
#330=EDGE_CURVE('',#267,#268,#222,.T.);
#331=EDGE_CURVE('',#268,#269,#145,.T.);
#332=EDGE_CURVE('',#269,#270,#223,.T.);
#333=EDGE_CURVE('',#270,#267,#146,.T.);
#334=EDGE_CURVE('',#266,#271,#147,.T.);
#335=EDGE_CURVE('',#268,#271,#148,.T.);
#336=EDGE_CURVE('',#231,#267,#149,.T.);
#337=EDGE_CURVE('',#242,#270,#150,.T.);
#338=EDGE_CURVE('',#272,#272,#224,.T.);
#339=EDGE_CURVE('',#273,#273,#225,.T.);
#340=EDGE_CURVE('',#274,#274,#226,.T.);
#341=EDGE_CURVE('',#275,#275,#227,.T.);
#342=EDGE_CURVE('',#265,#276,#151,.T.);
#343=EDGE_CURVE('',#271,#276,#228,.T.);
#344=EDGE_CURVE('',#276,#269,#152,.T.);
#345=EDGE_CURVE('',#237,#275,#153,.T.);
#346=EDGE_CURVE('',#238,#274,#154,.T.);
#347=EDGE_CURVE('',#239,#273,#155,.T.);
#348=EDGE_CURVE('',#240,#272,#156,.T.);
#349=ORIENTED_EDGE('',*,*,#277,.T.);
#350=ORIENTED_EDGE('',*,*,#278,.T.);
#351=ORIENTED_EDGE('',*,*,#279,.T.);
#352=ORIENTED_EDGE('',*,*,#280,.T.);
#353=ORIENTED_EDGE('',*,*,#277,.F.);
#354=ORIENTED_EDGE('',*,*,#281,.F.);
#355=ORIENTED_EDGE('',*,*,#282,.F.);
#356=ORIENTED_EDGE('',*,*,#283,.F.);
#357=ORIENTED_EDGE('',*,*,#284,.F.);
#358=ORIENTED_EDGE('',*,*,#285,.F.);
#359=ORIENTED_EDGE('',*,*,#286,.T.);
#360=ORIENTED_EDGE('',*,*,#287,.T.);
#361=ORIENTED_EDGE('',*,*,#288,.T.);
#362=ORIENTED_EDGE('',*,*,#289,.T.);
#363=ORIENTED_EDGE('',*,*,#280,.F.);
#364=ORIENTED_EDGE('',*,*,#290,.F.);
#365=ORIENTED_EDGE('',*,*,#291,.F.);
#366=ORIENTED_EDGE('',*,*,#281,.T.);
#367=ORIENTED_EDGE('',*,*,#292,.T.);
#368=ORIENTED_EDGE('',*,*,#293,.T.);
#369=ORIENTED_EDGE('',*,*,#282,.T.);
#370=ORIENTED_EDGE('',*,*,#291,.T.);
#371=ORIENTED_EDGE('',*,*,#294,.F.);
#372=ORIENTED_EDGE('',*,*,#295,.T.);
#373=ORIENTED_EDGE('',*,*,#296,.F.);
#374=ORIENTED_EDGE('',*,*,#295,.F.);
#375=ORIENTED_EDGE('',*,*,#297,.F.);
#376=ORIENTED_EDGE('',*,*,#298,.T.);
#377=ORIENTED_EDGE('',*,*,#299,.F.);
#378=ORIENTED_EDGE('',*,*,#298,.F.);
#379=ORIENTED_EDGE('',*,*,#300,.F.);
#380=ORIENTED_EDGE('',*,*,#301,.T.);
#381=ORIENTED_EDGE('',*,*,#302,.F.);
#382=ORIENTED_EDGE('',*,*,#301,.F.);
#383=ORIENTED_EDGE('',*,*,#303,.F.);
#384=ORIENTED_EDGE('',*,*,#304,.T.);
#385=ORIENTED_EDGE('',*,*,#305,.F.);
#386=ORIENTED_EDGE('',*,*,#304,.F.);
#387=ORIENTED_EDGE('',*,*,#306,.F.);
#388=ORIENTED_EDGE('',*,*,#307,.T.);
#389=ORIENTED_EDGE('',*,*,#308,.F.);
#390=ORIENTED_EDGE('',*,*,#307,.F.);
#391=ORIENTED_EDGE('',*,*,#309,.F.);
#392=ORIENTED_EDGE('',*,*,#310,.T.);
#393=ORIENTED_EDGE('',*,*,#311,.F.);
#394=ORIENTED_EDGE('',*,*,#310,.F.);
#395=ORIENTED_EDGE('',*,*,#312,.F.);
#396=ORIENTED_EDGE('',*,*,#313,.F.);
#397=ORIENTED_EDGE('',*,*,#314,.F.);
#398=ORIENTED_EDGE('',*,*,#315,.T.);
#399=ORIENTED_EDGE('',*,*,#316,.F.);
#400=ORIENTED_EDGE('',*,*,#315,.F.);
#401=ORIENTED_EDGE('',*,*,#317,.F.);
#402=ORIENTED_EDGE('',*,*,#318,.T.);
#403=ORIENTED_EDGE('',*,*,#319,.F.);
#404=ORIENTED_EDGE('',*,*,#318,.F.);
#405=ORIENTED_EDGE('',*,*,#320,.F.);
#406=ORIENTED_EDGE('',*,*,#321,.T.);
#407=ORIENTED_EDGE('',*,*,#322,.F.);
#408=ORIENTED_EDGE('',*,*,#321,.F.);
#409=ORIENTED_EDGE('',*,*,#323,.F.);
#410=ORIENTED_EDGE('',*,*,#313,.T.);
#411=ORIENTED_EDGE('',*,*,#324,.T.);
#412=ORIENTED_EDGE('',*,*,#325,.T.);
#413=ORIENTED_EDGE('',*,*,#326,.T.);
#414=ORIENTED_EDGE('',*,*,#284,.T.);
#415=ORIENTED_EDGE('',*,*,#325,.F.);
#416=ORIENTED_EDGE('',*,*,#327,.F.);
#417=ORIENTED_EDGE('',*,*,#328,.F.);
#418=ORIENTED_EDGE('',*,*,#329,.F.);
#419=ORIENTED_EDGE('',*,*,#294,.T.);
#420=ORIENTED_EDGE('',*,*,#297,.T.);
#421=ORIENTED_EDGE('',*,*,#300,.T.);
#422=ORIENTED_EDGE('',*,*,#303,.T.);
#423=ORIENTED_EDGE('',*,*,#306,.T.);
#424=ORIENTED_EDGE('',*,*,#309,.T.);
#425=ORIENTED_EDGE('',*,*,#320,.T.);
#426=ORIENTED_EDGE('',*,*,#317,.T.);
#427=ORIENTED_EDGE('',*,*,#314,.T.);
#428=ORIENTED_EDGE('',*,*,#323,.T.);
#429=ORIENTED_EDGE('',*,*,#330,.T.);
#430=ORIENTED_EDGE('',*,*,#331,.T.);
#431=ORIENTED_EDGE('',*,*,#332,.T.);
#432=ORIENTED_EDGE('',*,*,#333,.T.);
#433=ORIENTED_EDGE('',*,*,#278,.F.);
#434=ORIENTED_EDGE('',*,*,#285,.T.);
#435=ORIENTED_EDGE('',*,*,#326,.F.);
#436=ORIENTED_EDGE('',*,*,#329,.T.);
#437=ORIENTED_EDGE('',*,*,#334,.T.);
#438=ORIENTED_EDGE('',*,*,#335,.F.);
#439=ORIENTED_EDGE('',*,*,#330,.F.);
#440=ORIENTED_EDGE('',*,*,#336,.F.);
#441=ORIENTED_EDGE('',*,*,#279,.F.);
#442=ORIENTED_EDGE('',*,*,#336,.T.);
#443=ORIENTED_EDGE('',*,*,#333,.F.);
#444=ORIENTED_EDGE('',*,*,#337,.F.);
#445=ORIENTED_EDGE('',*,*,#292,.F.);
#446=ORIENTED_EDGE('',*,*,#290,.T.);
#447=ORIENTED_EDGE('',*,*,#338,.T.);
#448=ORIENTED_EDGE('',*,*,#339,.T.);
#449=ORIENTED_EDGE('',*,*,#340,.T.);
#450=ORIENTED_EDGE('',*,*,#341,.T.);
#451=ORIENTED_EDGE('',*,*,#328,.T.);
#452=ORIENTED_EDGE('',*,*,#342,.T.);
#453=ORIENTED_EDGE('',*,*,#343,.F.);
#454=ORIENTED_EDGE('',*,*,#334,.F.);
#455=ORIENTED_EDGE('',*,*,#331,.F.);
#456=ORIENTED_EDGE('',*,*,#335,.T.);
#457=ORIENTED_EDGE('',*,*,#343,.T.);
#458=ORIENTED_EDGE('',*,*,#344,.T.);
#459=ORIENTED_EDGE('',*,*,#296,.T.);
#460=ORIENTED_EDGE('',*,*,#299,.T.);
#461=ORIENTED_EDGE('',*,*,#302,.T.);
#462=ORIENTED_EDGE('',*,*,#305,.T.);
#463=ORIENTED_EDGE('',*,*,#308,.T.);
#464=ORIENTED_EDGE('',*,*,#311,.T.);
#465=ORIENTED_EDGE('',*,*,#319,.T.);
#466=ORIENTED_EDGE('',*,*,#322,.T.);
#467=ORIENTED_EDGE('',*,*,#312,.T.);
#468=ORIENTED_EDGE('',*,*,#316,.T.);
#469=ORIENTED_EDGE('',*,*,#286,.F.);
#470=ORIENTED_EDGE('',*,*,#345,.T.);
#471=ORIENTED_EDGE('',*,*,#341,.F.);
#472=ORIENTED_EDGE('',*,*,#345,.F.);
#473=ORIENTED_EDGE('',*,*,#287,.F.);
#474=ORIENTED_EDGE('',*,*,#346,.T.);
#475=ORIENTED_EDGE('',*,*,#340,.F.);
#476=ORIENTED_EDGE('',*,*,#346,.F.);
#477=ORIENTED_EDGE('',*,*,#288,.F.);
#478=ORIENTED_EDGE('',*,*,#347,.T.);
#479=ORIENTED_EDGE('',*,*,#339,.F.);
#480=ORIENTED_EDGE('',*,*,#347,.F.);
#481=ORIENTED_EDGE('',*,*,#289,.F.);
#482=ORIENTED_EDGE('',*,*,#348,.T.);
#483=ORIENTED_EDGE('',*,*,#338,.F.);
#484=ORIENTED_EDGE('',*,*,#348,.F.);
#485=ORIENTED_EDGE('',*,*,#293,.F.);
#486=ORIENTED_EDGE('',*,*,#337,.T.);
#487=ORIENTED_EDGE('',*,*,#332,.F.);
#488=ORIENTED_EDGE('',*,*,#344,.F.);
#489=ORIENTED_EDGE('',*,*,#342,.F.);
#490=ORIENTED_EDGE('',*,*,#327,.T.);
#491=ORIENTED_EDGE('',*,*,#324,.F.);
#492=ORIENTED_EDGE('',*,*,#283,.T.);
#493=CYLINDRICAL_SURFACE('',#586,3.);
#494=CYLINDRICAL_SURFACE('',#596,3.);
#495=CYLINDRICAL_SURFACE('',#598,1.5);
#496=CYLINDRICAL_SURFACE('',#601,1.5);
#497=CYLINDRICAL_SURFACE('',#604,1.5);
#498=CYLINDRICAL_SURFACE('',#607,1.5);
#499=CYLINDRICAL_SURFACE('',#610,1.5);
#500=CYLINDRICAL_SURFACE('',#613,1.5);
#501=CYLINDRICAL_SURFACE('',#616,6.6);
#502=CYLINDRICAL_SURFACE('',#620,6.6);
#503=CYLINDRICAL_SURFACE('',#624,2.);
#504=CYLINDRICAL_SURFACE('',#629,4.);
#505=CYLINDRICAL_SURFACE('',#638,19.9);
#506=CYLINDRICAL_SURFACE('',#641,1.75);
#507=CYLINDRICAL_SURFACE('',#642,1.75);
#508=CYLINDRICAL_SURFACE('',#643,1.75);
#509=CYLINDRICAL_SURFACE('',#644,1.75);
#510=STYLED_ITEM('',(#973),#537);
#511=STYLED_ITEM('',(#973),#538);
#512=STYLED_ITEM('',(#973),#539);
#513=STYLED_ITEM('',(#973),#540);
#514=STYLED_ITEM('',(#973),#541);
#515=STYLED_ITEM('',(#973),#542);
#516=STYLED_ITEM('',(#973),#543);
#517=STYLED_ITEM('',(#973),#544);
#518=STYLED_ITEM('',(#973),#545);
#519=STYLED_ITEM('',(#973),#546);
#520=STYLED_ITEM('',(#973),#547);
#521=STYLED_ITEM('',(#973),#548);
#522=STYLED_ITEM('',(#973),#549);
#523=STYLED_ITEM('',(#973),#550);
#524=STYLED_ITEM('',(#973),#551);
#525=STYLED_ITEM('',(#973),#552);
#526=STYLED_ITEM('',(#973),#553);
#527=STYLED_ITEM('',(#973),#554);
#528=STYLED_ITEM('',(#973),#555);
#529=STYLED_ITEM('',(#973),#556);
#530=STYLED_ITEM('',(#973),#557);
#531=STYLED_ITEM('',(#973),#558);
#532=STYLED_ITEM('',(#973),#559);
#533=STYLED_ITEM('',(#973),#560);
#534=STYLED_ITEM('',(#973),#561);
#535=STYLED_ITEM('',(#973),#562);
#536=STYLED_ITEM('',(#972),#13);
#537=ADVANCED_FACE('',(#45),#493,.T.);
#538=ADVANCED_FACE('',(#46,#14,#15,#16,#17),#36,.T.);
#539=ADVANCED_FACE('',(#47),#37,.T.);
#540=ADVANCED_FACE('',(#48),#494,.T.);
#541=ADVANCED_FACE('',(#49),#495,.F.);
#542=ADVANCED_FACE('',(#50),#496,.F.);
#543=ADVANCED_FACE('',(#51),#497,.F.);
#544=ADVANCED_FACE('',(#52),#498,.F.);
#545=ADVANCED_FACE('',(#53),#499,.F.);
#546=ADVANCED_FACE('',(#54),#500,.F.);
#547=ADVANCED_FACE('',(#55),#501,.F.);
#548=ADVANCED_FACE('',(#56),#38,.F.);
#549=ADVANCED_FACE('',(#57),#502,.F.);
#550=ADVANCED_FACE('',(#58),#39,.F.);
#551=ADVANCED_FACE('',(#59),#503,.F.);
#552=ADVANCED_FACE('',(#60,#18,#19,#20,#21,#22,#23,#24),#40,.F.);
#553=ADVANCED_FACE('',(#61),#504,.T.);
#554=ADVANCED_FACE('',(#62),#41,.T.);
#555=ADVANCED_FACE('',(#63,#25,#26,#27,#28),#42,.T.);
#556=ADVANCED_FACE('',(#64),#505,.T.);
#557=ADVANCED_FACE('',(#65,#29,#30,#31,#32,#33,#34,#35),#43,.T.);
#558=ADVANCED_FACE('',(#66),#506,.F.);
#559=ADVANCED_FACE('',(#67),#507,.F.);
#560=ADVANCED_FACE('',(#68),#508,.F.);
#561=ADVANCED_FACE('',(#69),#509,.F.);
#562=ADVANCED_FACE('',(#70),#44,.T.);
#563=CLOSED_SHELL('',(#537,#538,#539,#540,#541,#542,#543,#544,#545,#546,
#547,#548,#549,#550,#551,#552,#553,#554,#555,#556,#557,#558,#559,#560,#561,
#562));
#564=DERIVED_UNIT_ELEMENT(#567,1.);
#565=DERIVED_UNIT_ELEMENT(#958,-3.);
#566=DIMENSIONAL_EXPONENTS(0.,1.,0.,0.,0.,0.,0.);
#567=(
CONVERSION_BASED_UNIT('gram',#569)
MASS_UNIT()
NAMED_UNIT(#566)
);
#568=(
MASS_UNIT()
NAMED_UNIT(*)
SI_UNIT(.KILO.,.GRAM.)
);
#569=MASS_MEASURE_WITH_UNIT(MASS_MEASURE(0.001),#568);
#570=DERIVED_UNIT((#564,#565));
#571=MEASURE_REPRESENTATION_ITEM('density measure',
POSITIVE_RATIO_MEASURE(1.),#570);
#572=PROPERTY_DEFINITION_REPRESENTATION(#577,#574);
#573=PROPERTY_DEFINITION_REPRESENTATION(#578,#575);
#574=REPRESENTATION('material name',(#576),#955);
#575=REPRESENTATION('density',(#571),#955);
#576=DESCRIPTIVE_REPRESENTATION_ITEM('Generic','Generic');
#577=PROPERTY_DEFINITION('material property','material name',#965);
#578=PROPERTY_DEFINITION('material property','density of part',#965);
#579=DATE_TIME_ROLE('creation_date');
#580=APPLIED_DATE_AND_TIME_ASSIGNMENT(#581,#579,(#965));
#581=DATE_AND_TIME(#582,#583);
#582=CALENDAR_DATE(2025,30,10);
#583=LOCAL_TIME(0,0,0.,#584);
#584=COORDINATED_UNIVERSAL_TIME_OFFSET(0,0,.BEHIND.);
#585=AXIS2_PLACEMENT_3D('',#806,#646,#647);
#586=AXIS2_PLACEMENT_3D('',#807,#648,#649);
#587=AXIS2_PLACEMENT_3D('',#810,#650,#651);
#588=AXIS2_PLACEMENT_3D('',#814,#653,#654);
#589=AXIS2_PLACEMENT_3D('',#816,#656,#657);
#590=AXIS2_PLACEMENT_3D('',#820,#659,#660);
#591=AXIS2_PLACEMENT_3D('',#827,#664,#665);
#592=AXIS2_PLACEMENT_3D('',#829,#666,#667);
#593=AXIS2_PLACEMENT_3D('',#831,#668,#669);
#594=AXIS2_PLACEMENT_3D('',#833,#670,#671);
#595=AXIS2_PLACEMENT_3D('',#834,#672,#673);
#596=AXIS2_PLACEMENT_3D('',#838,#676,#677);
#597=AXIS2_PLACEMENT_3D('',#840,#678,#679);
#598=AXIS2_PLACEMENT_3D('',#842,#681,#682);
#599=AXIS2_PLACEMENT_3D('',#844,#683,#684);
#600=AXIS2_PLACEMENT_3D('',#847,#686,#687);
#601=AXIS2_PLACEMENT_3D('',#848,#688,#689);
#602=AXIS2_PLACEMENT_3D('',#850,#690,#691);
#603=AXIS2_PLACEMENT_3D('',#853,#693,#694);
#604=AXIS2_PLACEMENT_3D('',#854,#695,#696);
#605=AXIS2_PLACEMENT_3D('',#856,#697,#698);
#606=AXIS2_PLACEMENT_3D('',#859,#700,#701);
#607=AXIS2_PLACEMENT_3D('',#860,#702,#703);
#608=AXIS2_PLACEMENT_3D('',#862,#704,#705);
#609=AXIS2_PLACEMENT_3D('',#865,#707,#708);
#610=AXIS2_PLACEMENT_3D('',#866,#709,#710);
#611=AXIS2_PLACEMENT_3D('',#868,#711,#712);
#612=AXIS2_PLACEMENT_3D('',#871,#714,#715);
#613=AXIS2_PLACEMENT_3D('',#872,#716,#717);
#614=AXIS2_PLACEMENT_3D('',#874,#718,#719);
#615=AXIS2_PLACEMENT_3D('',#877,#721,#722);
#616=AXIS2_PLACEMENT_3D('',#878,#723,#724);
#617=AXIS2_PLACEMENT_3D('',#881,#725,#726);
#618=AXIS2_PLACEMENT_3D('',#885,#728,#729);
#619=AXIS2_PLACEMENT_3D('',#887,#731,#732);
#620=AXIS2_PLACEMENT_3D('',#893,#736,#737);
#621=AXIS2_PLACEMENT_3D('',#895,#738,#739);
#622=AXIS2_PLACEMENT_3D('',#897,#740,#741);
#623=AXIS2_PLACEMENT_3D('',#899,#743,#744);
#624=AXIS2_PLACEMENT_3D('',#902,#747,#748);
#625=AXIS2_PLACEMENT_3D('',#904,#749,#750);
#626=AXIS2_PLACEMENT_3D('',#907,#752,#753);
#627=AXIS2_PLACEMENT_3D('',#908,#754,#755);
#628=AXIS2_PLACEMENT_3D('',#912,#757,#758);
#629=AXIS2_PLACEMENT_3D('',#914,#760,#761);
#630=AXIS2_PLACEMENT_3D('',#917,#762,#763);
#631=AXIS2_PLACEMENT_3D('',#921,#765,#766);
#632=AXIS2_PLACEMENT_3D('',#923,#768,#769);
#633=AXIS2_PLACEMENT_3D('',#928,#773,#774);
#634=AXIS2_PLACEMENT_3D('',#931,#776,#777);
#635=AXIS2_PLACEMENT_3D('',#933,#778,#779);
#636=AXIS2_PLACEMENT_3D('',#935,#780,#781);
#637=AXIS2_PLACEMENT_3D('',#937,#782,#783);
#638=AXIS2_PLACEMENT_3D('',#938,#784,#785);
#639=AXIS2_PLACEMENT_3D('',#941,#787,#788);
#640=AXIS2_PLACEMENT_3D('',#942,#789,#790);
#641=AXIS2_PLACEMENT_3D('',#944,#792,#793);
#642=AXIS2_PLACEMENT_3D('',#946,#795,#796);
#643=AXIS2_PLACEMENT_3D('',#948,#798,#799);
#644=AXIS2_PLACEMENT_3D('',#950,#801,#802);
#645=AXIS2_PLACEMENT_3D('',#952,#804,#805);
#646=DIRECTION('axis',(0.,0.,1.));
#647=DIRECTION('refdir',(1.,0.,0.));
#648=DIRECTION('center_axis',(0.,1.,0.));
#649=DIRECTION('ref_axis',(-0.707106781186548,0.,0.707106781186547));
#650=DIRECTION('center_axis',(0.,-1.,0.));
#651=DIRECTION('ref_axis',(-0.707106781186548,0.,0.707106781186547));
#652=DIRECTION('',(0.,-1.,0.));
#653=DIRECTION('center_axis',(0.,1.,0.));
#654=DIRECTION('ref_axis',(-0.707106781186548,0.,0.707106781186547));
#655=DIRECTION('',(0.,1.,0.));
#656=DIRECTION('center_axis',(0.,1.,0.));
#657=DIRECTION('ref_axis',(0.,0.,-1.));
#658=DIRECTION('',(-1.,0.,0.));
#659=DIRECTION('center_axis',(0.,-1.,0.));
#660=DIRECTION('ref_axis',(0.707106781186548,0.,0.707106781186548));
#661=DIRECTION('',(0.,0.,1.));
#662=DIRECTION('',(1.,0.,0.));
#663=DIRECTION('',(0.,0.,-1.));
#664=DIRECTION('center_axis',(0.,-1.,0.));
#665=DIRECTION('ref_axis',(1.,0.,0.));
#666=DIRECTION('center_axis',(0.,-1.,0.));
#667=DIRECTION('ref_axis',(1.,0.,0.));
#668=DIRECTION('center_axis',(0.,-1.,0.));
#669=DIRECTION('ref_axis',(1.,0.,0.));
#670=DIRECTION('center_axis',(0.,-1.,0.));
#671=DIRECTION('ref_axis',(1.,0.,0.));
#672=DIRECTION('center_axis',(0.,0.,1.));
#673=DIRECTION('ref_axis',(0.,1.,0.));
#674=DIRECTION('',(-1.,0.,0.));
#675=DIRECTION('',(0.,-1.,0.));
#676=DIRECTION('center_axis',(0.,-1.,0.));
#677=DIRECTION('ref_axis',(0.707106781186548,0.,0.707106781186548));
#678=DIRECTION('center_axis',(0.,1.,0.));
#679=DIRECTION('ref_axis',(0.707106781186548,0.,0.707106781186548));
#680=DIRECTION('',(0.,1.,0.));
#681=DIRECTION('center_axis',(0.,0.,-1.));
#682=DIRECTION('ref_axis',(1.,0.,0.));
#683=DIRECTION('center_axis',(0.,0.,-1.));
#684=DIRECTION('ref_axis',(1.,0.,0.));
#685=DIRECTION('',(0.,0.,-1.));
#686=DIRECTION('center_axis',(0.,0.,1.));
#687=DIRECTION('ref_axis',(1.,0.,0.));
#688=DIRECTION('center_axis',(0.,0.,-1.));
#689=DIRECTION('ref_axis',(1.,0.,0.));
#690=DIRECTION('center_axis',(0.,0.,-1.));
#691=DIRECTION('ref_axis',(1.,0.,0.));
#692=DIRECTION('',(0.,0.,-1.));
#693=DIRECTION('center_axis',(0.,0.,1.));
#694=DIRECTION('ref_axis',(1.,0.,0.));
#695=DIRECTION('center_axis',(0.,0.,-1.));
#696=DIRECTION('ref_axis',(1.,0.,0.));
#697=DIRECTION('center_axis',(0.,0.,-1.));
#698=DIRECTION('ref_axis',(1.,0.,0.));
#699=DIRECTION('',(0.,0.,-1.));
#700=DIRECTION('center_axis',(0.,0.,1.));
#701=DIRECTION('ref_axis',(1.,0.,0.));
#702=DIRECTION('center_axis',(0.,0.,-1.));
#703=DIRECTION('ref_axis',(1.,0.,0.));
#704=DIRECTION('center_axis',(0.,0.,-1.));
#705=DIRECTION('ref_axis',(1.,0.,0.));
#706=DIRECTION('',(0.,0.,-1.));
#707=DIRECTION('center_axis',(0.,0.,1.));
#708=DIRECTION('ref_axis',(1.,0.,0.));
#709=DIRECTION('center_axis',(0.,0.,-1.));
#710=DIRECTION('ref_axis',(1.,0.,0.));
#711=DIRECTION('center_axis',(0.,0.,-1.));
#712=DIRECTION('ref_axis',(1.,0.,0.));
#713=DIRECTION('',(0.,0.,-1.));
#714=DIRECTION('center_axis',(0.,0.,1.));
#715=DIRECTION('ref_axis',(1.,0.,0.));
#716=DIRECTION('center_axis',(0.,0.,-1.));
#717=DIRECTION('ref_axis',(1.,0.,0.));
#718=DIRECTION('center_axis',(0.,0.,-1.));
#719=DIRECTION('ref_axis',(1.,0.,0.));
#720=DIRECTION('',(0.,0.,-1.));
#721=DIRECTION('center_axis',(0.,0.,1.));
#722=DIRECTION('ref_axis',(1.,0.,0.));
#723=DIRECTION('center_axis',(0.,0.,-1.));
#724=DIRECTION('ref_axis',(-1.,-3.36431219583381E-16,0.));
#725=DIRECTION('center_axis',(0.,0.,1.));
#726=DIRECTION('ref_axis',(-1.,-3.36431219583381E-16,0.));
#727=DIRECTION('',(0.,0.,-1.));
#728=DIRECTION('center_axis',(0.,0.,-1.));
#729=DIRECTION('ref_axis',(-1.,-3.36431219583381E-16,0.));
#730=DIRECTION('',(0.,0.,-1.));
#731=DIRECTION('center_axis',(1.,5.55111512312578E-16,0.));
#732=DIRECTION('ref_axis',(5.55111512312578E-16,-1.,0.));
#733=DIRECTION('',(-5.55111512312578E-16,1.,0.));
#734=DIRECTION('',(5.55111512312578E-16,-1.,0.));
#735=DIRECTION('',(0.,0.,-1.));
#736=DIRECTION('center_axis',(0.,0.,-1.));
#737=DIRECTION('ref_axis',(1.,6.72862439166761E-16,0.));
#738=DIRECTION('center_axis',(0.,0.,1.));
#739=DIRECTION('ref_axis',(1.,6.72862439166761E-16,0.));
#740=DIRECTION('center_axis',(0.,0.,-1.));
#741=DIRECTION('ref_axis',(1.,6.72862439166761E-16,0.));
#742=DIRECTION('',(0.,0.,-1.));
#743=DIRECTION('center_axis',(-1.,-5.55111512312578E-16,0.));
#744=DIRECTION('ref_axis',(-5.55111512312578E-16,1.,0.));
#745=DIRECTION('',(5.55111512312578E-16,-1.,0.));
#746=DIRECTION('',(-5.55111512312578E-16,1.,0.));
#747=DIRECTION('center_axis',(-1.,0.,0.));
#748=DIRECTION('ref_axis',(0.,-0.707106781186549,-0.707106781186546));
#749=DIRECTION('center_axis',(1.,0.,0.));
#750=DIRECTION('ref_axis',(0.,-0.707106781186549,-0.707106781186546));
#751=DIRECTION('',(-1.,0.,0.));
#752=DIRECTION('center_axis',(-1.,0.,0.));
#753=DIRECTION('ref_axis',(0.,-0.707106781186549,-0.707106781186546));
#754=DIRECTION('center_axis',(0.,0.,-1.));
#755=DIRECTION('ref_axis',(-1.,0.,0.));
#756=DIRECTION('',(0.,-1.,0.));
#757=DIRECTION('center_axis',(0.,0.,-1.));
#758=DIRECTION('ref_axis',(-1.,0.,0.));
#759=DIRECTION('',(0.,1.,0.));
#760=DIRECTION('center_axis',(-1.,0.,0.));
#761=DIRECTION('ref_axis',(0.,-0.707106781186547,-0.707106781186548));
#762=DIRECTION('center_axis',(1.,0.,0.));
#763=DIRECTION('ref_axis',(0.,-0.707106781186547,-0.707106781186548));
#764=DIRECTION('',(1.,0.,0.));
#765=DIRECTION('center_axis',(-1.,0.,0.));
#766=DIRECTION('ref_axis',(0.,-0.707106781186547,-0.707106781186548));
#767=DIRECTION('',(-1.,0.,0.));
#768=DIRECTION('center_axis',(-1.,0.,0.));
#769=DIRECTION('ref_axis',(0.,0.,1.));
#770=DIRECTION('',(0.,0.,-1.));
#771=DIRECTION('',(0.,1.,0.));
#772=DIRECTION('',(0.,0.,-1.));
#773=DIRECTION('center_axis',(0.,-1.,0.));
#774=DIRECTION('ref_axis',(0.,0.,1.));
#775=DIRECTION('',(0.,0.,-1.));
#776=DIRECTION('center_axis',(0.,1.,0.));
#777=DIRECTION('ref_axis',(1.,0.,0.));
#778=DIRECTION('center_axis',(0.,1.,0.));
#779=DIRECTION('ref_axis',(1.,0.,0.));
#780=DIRECTION('center_axis',(0.,1.,0.));
#781=DIRECTION('ref_axis',(1.,0.,0.));
#782=DIRECTION('center_axis',(0.,1.,0.));
#783=DIRECTION('ref_axis',(1.,0.,0.));
#784=DIRECTION('center_axis',(0.,0.,-1.));
#785=DIRECTION('ref_axis',(-1.,0.,0.));
#786=DIRECTION('',(0.,0.,-1.));
#787=DIRECTION('center_axis',(0.,0.,-1.));
#788=DIRECTION('ref_axis',(-1.,0.,0.));
#789=DIRECTION('center_axis',(0.,0.,-1.));
#790=DIRECTION('ref_axis',(-1.,0.,0.));
#791=DIRECTION('',(0.,-1.,0.));
#792=DIRECTION('center_axis',(0.,-1.,0.));
#793=DIRECTION('ref_axis',(1.,0.,0.));
#794=DIRECTION('',(0.,-1.,0.));
#795=DIRECTION('center_axis',(0.,-1.,0.));
#796=DIRECTION('ref_axis',(1.,0.,0.));
#797=DIRECTION('',(0.,-1.,0.));
#798=DIRECTION('center_axis',(0.,-1.,0.));
#799=DIRECTION('ref_axis',(1.,0.,0.));
#800=DIRECTION('',(0.,-1.,0.));
#801=DIRECTION('center_axis',(0.,-1.,0.));
#802=DIRECTION('ref_axis',(1.,0.,0.));
#803=DIRECTION('',(0.,-1.,0.));
#804=DIRECTION('center_axis',(1.,0.,0.));
#805=DIRECTION('ref_axis',(0.,0.,-1.));
#806=CARTESIAN_POINT('',(0.,0.,0.));
#807=CARTESIAN_POINT('Origin',(-36.8,0.75,-3.));
#808=CARTESIAN_POINT('',(-36.8,3.,0.));
#809=CARTESIAN_POINT('',(-39.8,3.,-3.));
#810=CARTESIAN_POINT('Origin',(-36.8,3.,-3.));
#811=CARTESIAN_POINT('',(-39.8,0.,-3.));
#812=CARTESIAN_POINT('',(-39.8,0.75,-3.));
#813=CARTESIAN_POINT('',(-36.8,0.,0.));
#814=CARTESIAN_POINT('Origin',(-36.8,0.,-3.));
#815=CARTESIAN_POINT('',(-36.8,0.75,0.));
#816=CARTESIAN_POINT('Origin',(0.,3.,0.));
#817=CARTESIAN_POINT('',(-3.,3.,0.));
#818=CARTESIAN_POINT('',(0.,3.,0.));
#819=CARTESIAN_POINT('',(0.,3.,-3.));
#820=CARTESIAN_POINT('Origin',(-3.,3.,-3.));
#821=CARTESIAN_POINT('',(0.,3.,-39.));
#822=CARTESIAN_POINT('',(0.,3.,-41.));
#823=CARTESIAN_POINT('',(-39.8,3.,-39.));
#824=CARTESIAN_POINT('',(-9.95,3.,-39.));
#825=CARTESIAN_POINT('',(-39.8,3.,-41.));
#826=CARTESIAN_POINT('',(-6.75,3.,-32.));
#827=CARTESIAN_POINT('Origin',(-5.,3.,-32.));
#828=CARTESIAN_POINT('',(-36.55,3.,-32.));
#829=CARTESIAN_POINT('Origin',(-34.8,3.,-32.));
#830=CARTESIAN_POINT('',(-6.75,3.,-8.));
#831=CARTESIAN_POINT('Origin',(-5.,3.,-8.));
#832=CARTESIAN_POINT('',(-36.55,3.,-8.));
#833=CARTESIAN_POINT('Origin',(-34.8,3.,-8.));
#834=CARTESIAN_POINT('Origin',(0.,0.,0.));
#835=CARTESIAN_POINT('',(-3.,0.,0.));
#836=CARTESIAN_POINT('',(0.,0.,0.));
#837=CARTESIAN_POINT('',(-3.,0.75,0.));
#838=CARTESIAN_POINT('Origin',(-3.,0.75,-3.));
#839=CARTESIAN_POINT('',(0.,0.,-3.));
#840=CARTESIAN_POINT('Origin',(-3.,0.,-3.));
#841=CARTESIAN_POINT('',(0.,0.75,-3.));
#842=CARTESIAN_POINT('Origin',(-35.5,26.,-41.));
#843=CARTESIAN_POINT('',(-37.,26.,-41.));
#844=CARTESIAN_POINT('Origin',(-35.5,26.,-41.));
#845=CARTESIAN_POINT('',(-37.,26.,-44.));
#846=CARTESIAN_POINT('',(-37.,26.,-41.));
#847=CARTESIAN_POINT('Origin',(-35.5,26.,-44.));
#848=CARTESIAN_POINT('Origin',(-12.25,39.4233937586588,-41.));
#849=CARTESIAN_POINT('',(-13.75,39.4233937586588,-41.));
#850=CARTESIAN_POINT('Origin',(-12.25,39.4233937586588,-41.));
#851=CARTESIAN_POINT('',(-13.75,39.4233937586588,-44.));
#852=CARTESIAN_POINT('',(-13.75,39.4233937586588,-41.));
#853=CARTESIAN_POINT('Origin',(-12.25,39.4233937586588,-44.));
#854=CARTESIAN_POINT('Origin',(-27.75,12.5766062413412,-41.));
#855=CARTESIAN_POINT('',(-29.25,12.5766062413412,-41.));
#856=CARTESIAN_POINT('Origin',(-27.75,12.5766062413412,-41.));
#857=CARTESIAN_POINT('',(-29.25,12.5766062413412,-44.));
#858=CARTESIAN_POINT('',(-29.25,12.5766062413412,-41.));
#859=CARTESIAN_POINT('Origin',(-27.75,12.5766062413412,-44.));
#860=CARTESIAN_POINT('Origin',(-27.75,39.4233937586588,-41.));
#861=CARTESIAN_POINT('',(-29.25,39.4233937586588,-41.));
#862=CARTESIAN_POINT('Origin',(-27.75,39.4233937586588,-41.));
#863=CARTESIAN_POINT('',(-29.25,39.4233937586588,-44.));
#864=CARTESIAN_POINT('',(-29.25,39.4233937586588,-41.));
#865=CARTESIAN_POINT('Origin',(-27.75,39.4233937586588,-44.));
#866=CARTESIAN_POINT('Origin',(-4.5,26.,-41.));
#867=CARTESIAN_POINT('',(-6.,26.,-41.));
#868=CARTESIAN_POINT('Origin',(-4.5,26.,-41.));
#869=CARTESIAN_POINT('',(-6.,26.,-44.));
#870=CARTESIAN_POINT('',(-6.,26.,-41.));
#871=CARTESIAN_POINT('Origin',(-4.5,26.,-44.));
#872=CARTESIAN_POINT('Origin',(-12.25,12.5766062413412,-41.));
#873=CARTESIAN_POINT('',(-13.75,12.5766062413412,-41.));
#874=CARTESIAN_POINT('Origin',(-12.25,12.5766062413412,-41.));
#875=CARTESIAN_POINT('',(-13.75,12.5766062413412,-44.));
#876=CARTESIAN_POINT('',(-13.75,12.5766062413412,-41.));
#877=CARTESIAN_POINT('Origin',(-12.25,12.5766062413412,-44.));
#878=CARTESIAN_POINT('Origin',(-20.,18.,-41.));
#879=CARTESIAN_POINT('',(-26.6,18.,-44.));
#880=CARTESIAN_POINT('',(-13.4,18.,-44.));
#881=CARTESIAN_POINT('Origin',(-20.,18.,-44.));
#882=CARTESIAN_POINT('',(-26.6,18.,-41.));
#883=CARTESIAN_POINT('',(-26.6,18.,-41.));
#884=CARTESIAN_POINT('',(-13.4,18.,-41.));
#885=CARTESIAN_POINT('Origin',(-20.,18.,-41.));
#886=CARTESIAN_POINT('',(-13.4,18.,-41.));
#887=CARTESIAN_POINT('Origin',(-13.4,34.,-41.));
#888=CARTESIAN_POINT('',(-13.4,34.,-44.));
#889=CARTESIAN_POINT('',(-13.4,29.725,-44.));
#890=CARTESIAN_POINT('',(-13.4,34.,-41.));
#891=CARTESIAN_POINT('',(-13.4,29.725,-41.));
#892=CARTESIAN_POINT('',(-13.4,34.,-41.));
#893=CARTESIAN_POINT('Origin',(-20.,34.,-41.));
#894=CARTESIAN_POINT('',(-26.6,34.,-44.));
#895=CARTESIAN_POINT('Origin',(-20.,34.,-44.));
#896=CARTESIAN_POINT('',(-26.6,34.,-41.));
#897=CARTESIAN_POINT('Origin',(-20.,34.,-41.));
#898=CARTESIAN_POINT('',(-26.6,34.,-41.));
#899=CARTESIAN_POINT('Origin',(-26.6,18.,-41.));
#900=CARTESIAN_POINT('',(-26.6,21.725,-44.));
#901=CARTESIAN_POINT('',(-26.6,21.725,-41.));
#902=CARTESIAN_POINT('Origin',(-9.95,5.,-39.));
#903=CARTESIAN_POINT('',(0.,5.,-41.));
#904=CARTESIAN_POINT('Origin',(0.,5.,-39.));
#905=CARTESIAN_POINT('',(-39.8,5.,-41.));
#906=CARTESIAN_POINT('',(-9.95,5.,-41.));
#907=CARTESIAN_POINT('Origin',(-39.8,5.,-39.));
#908=CARTESIAN_POINT('Origin',(-19.9,25.45,-41.));
#909=CARTESIAN_POINT('',(0.,28.,-41.));
#910=CARTESIAN_POINT('',(0.,28.,-41.));
#911=CARTESIAN_POINT('',(-39.8,28.,-41.));
#912=CARTESIAN_POINT('Origin',(-19.9,28.,-41.));
#913=CARTESIAN_POINT('',(-39.8,3.,-41.));
#914=CARTESIAN_POINT('Origin',(-9.95,4.,-40.));
#915=CARTESIAN_POINT('',(-39.8,0.,-40.));
#916=CARTESIAN_POINT('',(-39.8,4.,-44.));
#917=CARTESIAN_POINT('Origin',(-39.8,4.,-40.));
#918=CARTESIAN_POINT('',(0.,4.,-44.));
#919=CARTESIAN_POINT('',(-9.95,4.,-44.));
#920=CARTESIAN_POINT('',(0.,0.,-40.));
#921=CARTESIAN_POINT('Origin',(0.,4.,-40.));
#922=CARTESIAN_POINT('',(-9.95,0.,-40.));
#923=CARTESIAN_POINT('Origin',(-39.8,1.5,-20.5));
#924=CARTESIAN_POINT('',(-39.8,28.,-44.));
#925=CARTESIAN_POINT('',(-39.8,28.,-41.));
#926=CARTESIAN_POINT('',(-39.8,0.,-44.));
#927=CARTESIAN_POINT('',(-39.8,0.,-41.));
#928=CARTESIAN_POINT('Origin',(0.,0.,-41.));
#929=CARTESIAN_POINT('',(0.,0.,-41.));
#930=CARTESIAN_POINT('',(-36.55,0.,-8.));
#931=CARTESIAN_POINT('Origin',(-34.8,0.,-8.));
#932=CARTESIAN_POINT('',(-6.75,0.,-8.));
#933=CARTESIAN_POINT('Origin',(-5.,0.,-8.));
#934=CARTESIAN_POINT('',(-36.55,0.,-32.));
#935=CARTESIAN_POINT('Origin',(-34.8,0.,-32.));
#936=CARTESIAN_POINT('',(-6.75,0.,-32.));
#937=CARTESIAN_POINT('Origin',(-5.,0.,-32.));
#938=CARTESIAN_POINT('Origin',(-19.9,28.,-41.));
#939=CARTESIAN_POINT('',(0.,28.,-44.));
#940=CARTESIAN_POINT('',(0.,28.,-41.));
#941=CARTESIAN_POINT('Origin',(-19.9,28.,-44.));
#942=CARTESIAN_POINT('Origin',(-19.9,25.45,-44.));
#943=CARTESIAN_POINT('',(0.,28.,-44.));
#944=CARTESIAN_POINT('Origin',(-5.,3.,-32.));
#945=CARTESIAN_POINT('',(-6.75,3.,-32.));
#946=CARTESIAN_POINT('Origin',(-34.8,3.,-32.));
#947=CARTESIAN_POINT('',(-36.55,3.,-32.));
#948=CARTESIAN_POINT('Origin',(-5.,3.,-8.));
#949=CARTESIAN_POINT('',(-6.75,3.,-8.));
#950=CARTESIAN_POINT('Origin',(-34.8,3.,-8.));
#951=CARTESIAN_POINT('',(-36.55,3.,-8.));
#952=CARTESIAN_POINT('Origin',(0.,1.5,-20.5));
#953=UNCERTAINTY_MEASURE_WITH_UNIT(LENGTH_MEASURE(0.01),#957,
'DISTANCE_ACCURACY_VALUE',
'Maximum model space distance between geometric entities at asserted c
onnectivities');
#954=UNCERTAINTY_MEASURE_WITH_UNIT(LENGTH_MEASURE(0.01),#957,
'DISTANCE_ACCURACY_VALUE',
'Maximum model space distance between geometric entities at asserted c
onnectivities');
#955=(
GEOMETRIC_REPRESENTATION_CONTEXT(3)
GLOBAL_UNCERTAINTY_ASSIGNED_CONTEXT((#953))
GLOBAL_UNIT_ASSIGNED_CONTEXT((#957,#959,#960))
REPRESENTATION_CONTEXT('','3D')
);
#956=(
GEOMETRIC_REPRESENTATION_CONTEXT(3)
GLOBAL_UNCERTAINTY_ASSIGNED_CONTEXT((#954))
GLOBAL_UNIT_ASSIGNED_CONTEXT((#957,#959,#960))
REPRESENTATION_CONTEXT('','3D')
);
#957=(
LENGTH_UNIT()
NAMED_UNIT(*)
SI_UNIT(.MILLI.,.METRE.)
);
#958=(
LENGTH_UNIT()
NAMED_UNIT(*)
SI_UNIT(.CENTI.,.METRE.)
);
#959=(
NAMED_UNIT(*)
PLANE_ANGLE_UNIT()
SI_UNIT($,.RADIAN.)
);
#960=(
NAMED_UNIT(*)
SI_UNIT($,.STERADIAN.)
SOLID_ANGLE_UNIT()
);
#961=SHAPE_DEFINITION_REPRESENTATION(#962,#963);
#962=PRODUCT_DEFINITION_SHAPE('',$,#965);
#963=SHAPE_REPRESENTATION('',(#585),#955);
#964=PRODUCT_DEFINITION_CONTEXT('part definition',#969,'design');
#965=PRODUCT_DEFINITION('Fixtures','Fixtures',#966,#964);
#966=PRODUCT_DEFINITION_FORMATION('',$,#971);
#967=PRODUCT_RELATED_PRODUCT_CATEGORY('Fixtures','Fixtures',(#971));
#968=APPLICATION_PROTOCOL_DEFINITION('international standard',
'automotive_design',2009,#969);
#969=APPLICATION_CONTEXT(
'Core Data for Automotive Mechanical Design Process');
#970=PRODUCT_CONTEXT('part definition',#969,'mechanical');
#971=PRODUCT('Fixtures','Fixtures',$,(#970));
#972=PRESENTATION_STYLE_ASSIGNMENT((#974));
#973=PRESENTATION_STYLE_ASSIGNMENT((#975));
#974=SURFACE_STYLE_USAGE(.BOTH.,#980);
#975=SURFACE_STYLE_USAGE(.BOTH.,#981);
#976=SURFACE_STYLE_RENDERING_WITH_PROPERTIES($,#988,(#978));
#977=SURFACE_STYLE_RENDERING_WITH_PROPERTIES($,#989,(#979));
#978=SURFACE_STYLE_TRANSPARENT(0.);
#979=SURFACE_STYLE_TRANSPARENT(0.);
#980=SURFACE_SIDE_STYLE('',(#982,#976));
#981=SURFACE_SIDE_STYLE('',(#983,#977));
#982=SURFACE_STYLE_FILL_AREA(#984);
#983=SURFACE_STYLE_FILL_AREA(#985);
#984=FILL_AREA_STYLE('',(#986));
#985=FILL_AREA_STYLE('',(#987));
#986=FILL_AREA_STYLE_COLOUR('',#988);
#987=FILL_AREA_STYLE_COLOUR('',#989);
#988=COLOUR_RGB('',0.749019607843137,0.749019607843137,0.749019607843137);
#989=COLOUR_RGB('',0.352941176470588,0.384313725490196,0.4);
ENDSEC;
END-ISO-10303-21;
